<svg width="44" height="39" viewBox="0 0 44 39" fill="none" xmlns="http://www.w3.org/2000/svg">
<path d="M28.5931 0L28.8505 0.0126736C33.066 0.464696 36.2328 1.43211 39.2447 3.54648C39.6041 3.79956 39.8757 4.1601 40.0212 4.57726C43.9478 15.8039 44.9881 25.6724 43.0583 30.5158C40.9589 34.7508 37.6037 38.0206 33.8613 38.0206C32.3292 38.0206 30.3178 35.9759 28.9887 33.701C30.4723 33.4285 31.9414 33.081 33.3904 32.6597C33.6548 32.5834 33.9018 32.4553 34.1171 32.2827C34.3325 32.1101 34.5121 31.8964 34.6456 31.6538C34.7791 31.4112 34.864 31.1444 34.8953 30.8687C34.9267 30.5929 34.9039 30.3137 34.8283 30.0468C34.7527 29.78 34.6258 29.5308 34.4548 29.3135C34.2838 29.0961 34.072 28.9149 33.8316 28.7801C33.5912 28.6454 33.3268 28.5597 33.0536 28.5281C32.7804 28.4965 32.5036 28.5194 32.2392 28.5957C25.2902 30.6024 19.4087 30.6024 12.4597 28.5957C11.9257 28.4417 11.3529 28.508 10.8674 28.7801C10.3818 29.0523 10.0233 29.5079 9.87062 30.0468C9.71796 30.5858 9.78369 31.1638 10.0534 31.6538C10.323 32.1438 10.7745 32.5056 11.3086 32.6597C12.8093 33.0906 14.2723 33.4412 15.7103 33.7032C14.3812 35.9738 12.3697 38.0206 10.8376 38.0206C7.09521 38.0206 3.74003 34.7508 1.56952 30.3552C-0.289127 25.6724 0.75322 15.8018 4.67772 4.57726C4.82325 4.1601 5.09486 3.79956 5.45425 3.54648C8.46617 1.43211 11.633 0.464696 15.8484 0.0126736C16.2266 -0.0280347 16.6085 0.035992 16.9533 0.197876C17.2981 0.359761 17.5927 0.613385 17.8054 0.931505L17.9373 1.15752L19.2999 3.87177L19.5866 3.83797C21.4258 3.64787 23.2794 3.64787 25.1186 3.83797L25.3991 3.87177L26.7596 1.15963C26.9118 0.855025 27.1349 0.592163 27.4097 0.393526C27.6845 0.194889 28.003 0.0663867 28.3377 0.0190104L28.5931 0ZM16.0703 14.7858C15.0699 14.7857 14.1026 15.1472 13.3436 15.8048C12.5845 16.4623 12.0838 17.3724 11.9323 18.3703L11.8946 18.6956L11.8841 19.0103L11.8946 19.3271C11.9557 20.1468 12.2524 20.9307 12.7484 21.5827C13.2443 22.2347 13.918 22.7265 14.6869 22.9979C15.4557 23.2693 16.2863 23.3084 17.0768 23.1105C17.8674 22.9127 18.5835 22.4863 19.1375 21.8838C19.6916 21.2812 20.0594 20.5287 20.1959 19.7183C20.3324 18.908 20.2317 18.0751 19.9061 17.3216C19.5805 16.5682 19.0442 15.9269 18.3629 15.4765C17.6815 15.0261 16.8848 14.7861 16.0703 14.7858ZM28.6287 14.7858C27.6283 14.7857 26.661 15.1472 25.9019 15.8048C25.1429 16.4623 24.6422 17.3724 24.4907 18.3703L24.453 18.6956L24.4425 19.0103L24.453 19.3271C24.5141 20.1468 24.8108 20.9307 25.3068 21.5827C25.8027 22.2347 26.4764 22.7265 27.2452 22.9979C28.0141 23.2693 28.8447 23.3084 29.6352 23.1105C30.4258 22.9127 31.1419 22.4863 31.6959 21.8838C32.25 21.2812 32.6178 20.5287 32.7543 19.7183C32.8908 18.908 32.7901 18.0751 32.4645 17.3216C32.1389 16.5682 31.6026 15.9269 30.9212 15.4765C30.2399 15.0261 29.4432 14.7861 28.6287 14.7858Z" fill="black"/>
</svg>
