<svg width="148" height="141" viewBox="0 0 148 141" fill="none" xmlns="http://www.w3.org/2000/svg">
<path d="M20.4273 2.12341V8.91833C20.4273 9.4815 20.6513 10.0216 21.0499 10.4198C21.4485 10.818 21.9892 11.0417 22.553 11.0417C23.1167 11.0417 23.6574 10.818 24.056 10.4198C24.4547 10.0216 24.6786 9.4815 24.6786 8.91833V2.12341C24.6786 1.56025 24.4547 1.02016 24.056 0.621948C23.6574 0.223732 23.1167 0 22.553 0C21.9892 0 21.4485 0.223732 21.0499 0.621948C20.6513 1.02016 20.4273 1.56025 20.4273 2.12341Z" fill="black"/>
<path d="M30.9875 16.1379H27.5865C27.0227 16.1379 26.4821 15.9142 26.0834 15.516C25.6848 15.1178 25.4609 14.5777 25.4609 14.0145C25.4609 13.4514 25.6848 12.9113 26.0834 12.5131C26.4821 12.1148 27.0227 11.8911 27.5865 11.8911H30.9875C31.5513 11.8911 32.0919 12.1148 32.4906 12.5131C32.8892 12.9113 33.1132 13.4514 33.1132 14.0145C33.1132 14.5777 32.8892 15.1178 32.4906 15.516C32.0919 15.9142 31.5513 16.1379 30.9875 16.1379Z" fill="black"/>
<path d="M23.988 27.3264C23.5894 27.7246 23.0487 27.9484 22.4849 27.9484C21.9219 27.9484 21.3819 27.7209 20.9834 27.3236C20.5849 26.9263 20.3604 26.3874 20.3593 25.825V19.03C20.3593 18.4669 20.5833 17.9268 20.9819 17.5286C21.3805 17.1303 21.9212 16.9066 22.4849 16.9066C23.0487 16.9066 23.5894 17.1303 23.988 17.5286C24.3866 17.9268 24.6106 18.4669 24.6106 19.03V25.825C24.6106 26.3881 24.3866 26.9282 23.988 27.3264Z" fill="black"/>
<path d="M17.4642 16.0573H14.0631C13.4994 16.0573 12.9587 15.8335 12.5601 15.4353C12.1615 15.0371 11.9375 14.497 11.9375 13.9338C11.9375 13.3707 12.1615 12.8306 12.5601 12.4324C12.9587 12.0342 13.4994 11.8104 14.0631 11.8104H17.4642C18.0279 11.8104 18.5686 12.0342 18.9672 12.4324C19.3659 12.8306 19.5898 13.3707 19.5898 13.9338C19.5898 14.497 19.3659 15.0371 18.9672 15.4353C18.5686 15.8335 18.0279 16.0573 17.4642 16.0573Z" fill="black"/>
<path d="M137.973 52.5732C138.372 52.175 138.912 51.9513 139.476 51.9513V51.9641C140.04 51.9641 140.581 52.1878 140.979 52.5861C141.378 52.9843 141.602 53.5244 141.602 54.0875V58.1346C141.602 58.6978 141.378 59.238 140.979 59.6362C140.581 60.0344 140.04 60.2581 139.476 60.2581C138.912 60.2581 138.372 60.0344 137.973 59.6362C137.574 59.238 137.35 58.6978 137.35 58.1346V54.0747C137.35 53.5115 137.574 52.9715 137.973 52.5732Z" fill="black"/>
<path d="M137.973 38.3761C138.372 37.9779 138.912 37.7543 139.476 37.7543V37.767C140.038 37.767 140.576 37.9889 140.975 38.3844C141.373 38.7799 141.598 39.3167 141.602 39.8777V43.9376C141.602 44.5008 141.378 45.0409 140.979 45.4391C140.581 45.8373 140.04 46.061 139.476 46.061C138.912 46.061 138.372 45.8373 137.973 45.4391C137.574 45.0409 137.35 44.5008 137.35 43.9376V39.8777C137.35 39.3145 137.574 38.7743 137.973 38.3761Z" fill="black"/>
<path d="M133.12 46.8679H134.438C135.002 46.8679 135.543 47.0917 135.941 47.4899C136.34 47.8881 136.564 48.4282 136.564 48.9913C136.564 49.5545 136.34 50.0946 135.941 50.4928C135.543 50.891 135.002 51.1147 134.438 51.1147H133.12C132.557 51.1147 132.016 50.891 131.617 50.4928C131.219 50.0946 130.995 49.5545 130.995 48.9913C130.995 48.4282 131.219 47.8881 131.617 47.4899C132.016 47.0917 132.557 46.8679 133.12 46.8679Z" fill="black"/>
<path d="M144.556 46.8679H145.874C146.438 46.8679 146.979 47.0917 147.377 47.4899C147.776 47.8881 148 48.4282 148 48.9913C148 49.5545 147.776 50.0946 147.377 50.4928C146.979 50.891 146.438 51.1147 145.874 51.1147H144.556C143.993 51.1147 143.452 50.891 143.053 50.4928C142.655 50.0946 142.431 49.5545 142.431 48.9913C142.431 48.4282 142.655 47.8881 143.053 47.4899C143.452 47.0917 143.993 46.8679 144.556 46.8679Z" fill="black"/>
<g filter="url(#filter0_d_236_2930)">
<path d="M11.7473 65.5628L26.1053 71.4986C24.4864 75.5734 23.1951 79.7701 22.2435 84.049L21.6989 86.5171L42.2828 107.052L44.7584 106.521C49.0501 105.572 53.2594 104.285 57.3464 102.671L63.3 116.986C63.3583 117.128 63.4511 117.253 63.57 117.35C63.6889 117.448 63.8302 117.514 63.9811 117.543C64.1321 117.573 64.288 117.564 64.4349 117.519C64.5817 117.473 64.7149 117.392 64.8224 117.282L73.821 108.311C75.2895 106.847 76.4338 105.092 77.18 103.16C77.9262 101.228 78.2577 99.1608 78.1531 97.093L77.8313 91.3299C94.4916 79.0634 111.35 57.5537 115.942 20.0136C116.072 19.0724 115.983 18.1139 115.68 17.2128C115.378 16.3118 114.871 15.4925 114.199 14.8189C113.527 14.1453 112.708 13.6355 111.806 13.3292C110.904 13.023 109.943 12.9287 108.998 13.0535C71.3578 17.6689 49.7713 34.4891 37.468 51.0502L31.7 50.754C29.6304 50.6418 27.5603 50.9626 25.6225 51.6958C23.6848 52.4291 21.9224 53.5585 20.4488 55.0115L11.4502 63.9832C11.3256 64.0888 11.2311 64.2255 11.1765 64.3793C11.1218 64.5331 11.1089 64.6985 11.1391 64.8589C11.1693 65.0192 11.2414 65.1688 11.3482 65.2924C11.455 65.416 11.5927 65.5093 11.7473 65.5628ZM9.06136 108.693C6.6787 107.86 4.12008 107.655 1.6348 108.101C1.41392 108.148 1.18453 108.139 0.968068 108.075C0.751608 108.01 0.555146 107.892 0.397038 107.731C0.201034 107.536 0.0697862 107.286 0.0210775 107.014C-0.0276313 106.743 0.00855425 106.463 0.124731 106.213C2.76116 100.561 9.7545 89.195 22.4168 98.3764C22.4829 98.4355 22.5358 98.5077 22.5721 98.5885C22.6083 98.6693 22.627 98.7569 22.627 98.8454C22.627 98.9339 22.6083 99.0214 22.5721 99.1022C22.5358 99.183 22.4829 99.2553 22.4168 99.3143C20.7216 100.645 19.3643 102.355 18.4548 104.306C17.5452 106.257 17.1089 108.394 17.1811 110.544C17.1903 110.797 17.295 111.036 17.4741 111.215C17.6532 111.393 17.8934 111.498 18.1465 111.507C20.2939 111.593 22.4317 111.176 24.3879 110.288C26.3441 109.401 28.0643 108.068 29.4101 106.398C29.4693 106.326 29.5439 106.267 29.6285 106.227C29.713 106.187 29.8055 106.167 29.899 106.167C29.9926 106.167 30.0851 106.187 30.1696 106.227C30.2542 106.267 30.3288 106.326 30.388 106.398C32.1456 108.483 36.9852 115.295 31.6257 121.873C29.286 124.677 25.9335 126.45 22.293 126.809C17.0944 127.365 7.48941 129.055 3.5657 133.522C3.4082 133.709 3.20299 133.848 2.97197 133.927C2.74095 134.006 2.49277 134.021 2.25392 133.971C2.01506 133.92 1.79447 133.806 1.61568 133.64C1.43689 133.474 1.30661 133.263 1.23871 133.029C-0.147577 128.315 -2.30129 117.776 9.06136 108.693Z" fill="black"/>
</g>
<path d="M55.9938 72.121C54.8863 71.0663 54.0052 69.7924 53.4047 68.3778C52.8043 66.9632 52.4972 65.4376 52.5022 63.8949C52.5111 61.0736 53.456 58.3311 55.1857 56.106C56.9154 53.881 59.3299 52.302 62.0431 51.6217C63.375 51.2766 64.6012 50.5978 65.6082 49.6482C66.6151 48.6986 67.3701 47.5089 67.8032 46.1894C68.3117 44.731 69.1159 43.3943 70.164 42.2654C72.0432 40.2305 74.6239 39.0042 77.366 38.8433C78.6798 38.7602 79.995 38.9484 81.2313 39.3965C82.4676 39.8446 83.5991 40.543 84.5567 41.4493C85.8456 42.7043 86.7718 44.2911 87.2368 46.0407C87.7017 47.7904 87.688 49.6376 87.1971 51.386C86.7625 52.996 85.9691 54.4862 84.8779 55.742C83.7867 56.9978 82.4267 57.9859 80.9024 58.6302C79.6242 59.1477 78.4941 59.9822 77.6168 61.0564C76.7396 62.1306 76.1436 63.4097 75.8842 64.775C75.4503 67.1749 74.3312 69.398 72.665 71.1698C70.5652 73.5291 67.6293 74.9546 64.5031 75.133C61.3768 75.3114 58.316 74.228 55.9938 72.121ZM83.7979 47.8241C83.6395 47.9413 83.5252 48.1094 83.4738 48.3006C83.4443 48.4077 83.4372 48.5197 83.4529 48.6294C83.4685 48.7392 83.5067 48.8443 83.5648 48.9381C83.6094 49.0163 83.754 49.2704 83.5697 49.4696C83.4289 49.6235 83.353 49.8267 83.3582 50.0355C83.3634 50.2444 83.4493 50.4425 83.5976 50.5872C83.6727 50.6598 83.7613 50.7166 83.8583 50.7544C83.9554 50.7921 84.059 50.8101 84.1632 50.8072C84.2674 50.8043 84.3701 50.7807 84.4654 50.7376C84.5608 50.6945 84.6469 50.6329 84.7189 50.5563C85.0236 50.2174 85.2059 49.7846 85.2358 49.3289C85.2657 48.8732 85.1414 48.4217 84.8834 48.0487C84.7686 47.8746 84.5905 47.7536 84.3875 47.7116C84.1844 47.6695 83.9727 47.7099 83.7979 47.8241ZM81.1726 50.1694C81.4743 49.8304 81.6559 49.3999 81.6885 48.9463C81.721 48.4927 81.6028 48.042 81.3524 47.6659C81.2954 47.5792 81.2218 47.505 81.1359 47.4475C81.05 47.3899 80.9536 47.3503 80.8523 47.3308C80.7509 47.3114 80.6466 47.3125 80.5454 47.3341C80.4442 47.3557 80.3481 47.3974 80.2628 47.4568C80.1799 47.5069 80.1076 47.5731 80.05 47.6516C79.9925 47.73 79.9509 47.8191 79.9275 47.9137C79.8756 48.1307 79.9082 48.359 80.0186 48.5512C80.0631 48.6294 80.2078 48.8836 80.0235 49.0827C79.9515 49.1601 79.8954 49.2511 79.8584 49.3504C79.8213 49.4496 79.8041 49.5552 79.8078 49.661C79.8114 49.7668 79.8358 49.8707 79.8795 49.9666C79.9232 50.0626 79.9854 50.1487 80.0625 50.2199C80.2161 50.3606 80.4187 50.4341 80.6264 50.4247C80.8342 50.4152 81.0304 50.3235 81.1726 50.1694ZM82.9808 54.2329C83.2925 53.8932 83.4809 53.4571 83.5151 52.9963C83.5493 52.5356 83.4272 52.0778 83.1689 51.6985C83.0564 51.526 82.8807 51.4061 82.6801 51.3647C82.4796 51.3234 82.2705 51.3641 82.0986 51.478C81.9332 51.5815 81.8132 51.7451 81.7634 51.9349C81.7325 52.0419 81.7246 52.1541 81.7403 52.2641C81.756 52.3741 81.7949 52.4793 81.8545 52.5724C81.9112 52.6578 81.9396 52.7594 81.9355 52.8625C81.9314 52.9656 81.895 53.0649 81.8317 53.1462C81.688 53.3015 81.61 53.5072 81.6144 53.7191C81.6189 53.931 81.7054 54.1321 81.8554 54.2793C81.9315 54.3516 82.0212 54.4077 82.1192 54.4446C82.2172 54.4814 82.3216 54.4981 82.4263 54.4938C82.531 54.4895 82.6339 54.4642 82.7291 54.4194C82.8243 54.3746 82.9099 54.3112 82.9808 54.2329ZM70.9856 63.8767C70.8276 63.9866 70.7139 64.1503 70.6657 64.3377C70.6347 64.4447 70.6268 64.5569 70.6425 64.6669C70.6582 64.7769 70.6972 64.882 70.7568 64.9752C70.8013 65.0534 70.9265 65.3189 70.7616 65.5067C70.618 65.662 70.54 65.8677 70.5444 66.0796C70.5488 66.2915 70.6354 66.4926 70.7854 66.6398C70.8615 66.7121 70.9512 66.7682 71.0492 66.8051C71.1472 66.8419 71.2515 66.8586 71.3562 66.8543C71.4609 66.85 71.5639 66.8247 71.6591 66.7799C71.7543 66.7351 71.8398 66.6717 71.9108 66.5934C72.2135 66.2535 72.3944 65.8209 72.4242 65.3658C72.4541 64.9107 72.3312 64.4597 72.0753 64.0858C71.9581 63.9131 71.7781 63.7944 71.5743 63.7553C71.3704 63.7162 71.1589 63.7598 70.9856 63.8767ZM68.3604 66.222C68.6652 65.8832 68.8475 65.4504 68.8774 64.9947C68.9073 64.539 68.783 64.0875 68.5249 63.7144C68.4692 63.6262 68.3963 63.5504 68.3105 63.4917C68.2247 63.4331 68.1279 63.3927 68.026 63.3732C67.924 63.3536 67.8191 63.3552 67.7176 63.3779C67.616 63.4007 67.52 63.444 67.4353 63.5053C67.2719 63.603 67.153 63.7616 67.1042 63.9468C67.0743 64.0592 67.0693 64.1768 67.0896 64.2911C67.1099 64.4054 67.155 64.5136 67.2217 64.6079C67.2217 64.6079 67.4191 64.9094 67.2154 65.1199C67.0699 65.2742 66.9906 65.4803 66.9951 65.6928C66.9995 65.9053 67.0873 66.1068 67.2392 66.253C67.391 66.3991 67.5944 66.478 67.8047 66.4722C68.015 66.4664 68.2149 66.3764 68.3604 66.222ZM70.1686 70.2855C70.4807 69.9431 70.6696 69.5047 70.7045 69.0417C70.7394 68.5787 70.6183 68.1184 70.3608 67.7356C70.3051 67.6495 70.2327 67.5758 70.148 67.5187C70.0634 67.4615 69.9681 67.4223 69.8679 67.4031C69.7677 67.384 69.6646 67.3854 69.5648 67.4073C69.4649 67.4292 69.3702 67.4711 69.2864 67.5306C69.2035 67.5807 69.1312 67.6469 69.0737 67.7254C69.0162 67.8038 68.9745 67.8929 68.9512 67.9876C68.9202 68.0945 68.9123 68.2067 68.928 68.3167C68.9438 68.4267 68.9827 68.5319 69.0423 68.625C69.1006 68.7067 69.1304 68.8058 69.1271 68.9068C69.1237 69.0078 69.0873 69.1051 69.0236 69.1834C68.8781 69.3377 68.7988 69.5438 68.8032 69.7563C68.8077 69.9688 68.8955 70.1703 69.0473 70.3165C69.1992 70.4626 69.4026 70.5415 69.6129 70.5356C69.8232 70.5298 70.0231 70.4399 70.1686 70.2855Z" fill="#F3D6A3"/>
<defs>
<filter id="filter0_d_236_2930" x="0" y="13" width="123" height="128" filterUnits="userSpaceOnUse" color-interpolation-filters="sRGB">
<feFlood flood-opacity="0" result="BackgroundImageFix"/>
<feColorMatrix in="SourceAlpha" type="matrix" values="0 0 0 0 0 0 0 0 0 0 0 0 0 0 0 0 0 0 127 0" result="hardAlpha"/>
<feOffset dx="7" dy="7"/>
<feComposite in2="hardAlpha" operator="out"/>
<feColorMatrix type="matrix" values="0 0 0 0 0.992157 0 0 0 0 0.572549 0 0 0 0 0.105882 0 0 0 1 0"/>
<feBlend mode="normal" in2="BackgroundImageFix" result="effect1_dropShadow_236_2930"/>
<feBlend mode="normal" in="SourceGraphic" in2="effect1_dropShadow_236_2930" result="shape"/>
</filter>
</defs>
</svg>
