<svg width="297" height="85" viewBox="0 0 297 85" fill="none" xmlns="http://www.w3.org/2000/svg">
<g filter="url(#filter0_d_236_2880)">
<rect x="5" y="5" width="279" height="67" rx="30" fill="#FFA614"/>
<rect x="2.5" y="2.5" width="284" height="72" rx="32.5" stroke="black" stroke-width="5"/>
</g>
<rect x="7.5" y="7.5" width="274" height="62" rx="27.5" fill="url(#paint0_linear_236_2880)" stroke="#F68A15" stroke-width="5"/>
<path d="M263.901 45.935C263.504 44.9435 263.405 43.9519 263.603 42.9604C264.198 39.5891 265.784 38.4984 268.362 39.6883C269.751 40.2832 270.445 41.7705 270.445 44.1502C270.246 45.3401 269.652 46.3316 268.66 47.1249C267.668 47.9181 266.677 48.1164 265.685 47.7198C264.892 47.3232 264.297 46.7282 263.901 45.935Z" fill="white"/>
<path d="M251.297 19.1634C251.892 18.3701 252.388 17.8744 252.785 17.6761C255.363 16.6845 258.04 16.7837 260.816 17.9735C263.593 19.1634 265.972 21.6423 267.955 25.4101C269.542 28.7814 269.74 31.5577 268.55 33.7392C267.559 35.9206 265.972 37.0113 263.791 37.0113C260.221 36.8129 258.139 35.7222 257.544 33.7392C256.949 31.7561 256.156 29.6738 255.165 27.4924L251.297 21.2456C250.901 20.4524 250.901 19.7583 251.297 19.1634Z" fill="white"/>
<path d="M45.2 42.25C45.8667 42.25 46.3667 42.3833 46.7 42.65C47.0333 42.9167 47.3 43.25 47.5 43.65C47.7333 44.05 47.95 44.5 48.15 45C48.35 45.4667 48.6167 45.9 48.95 46.3C49.2833 46.7 49.7333 47.0333 50.3 47.3C50.9 47.5667 51.7 47.7 52.7 47.7C52.8667 47.7 53.0833 47.6833 53.35 47.65C53.6167 47.6167 53.8667 47.5667 54.1 47.5C54.3667 47.4333 54.5833 47.3167 54.75 47.15C54.95 46.9833 55.05 46.7833 55.05 46.55C55.05 46.4833 54.85 46.3333 54.45 46.1C54.0833 45.8667 53.6667 45.6333 53.2 45.4C52.7333 45.1333 52.2667 44.8833 51.8 44.65C51.3667 44.4167 51.1 44.2833 51 44.25C49.8333 43.65 48.7 43.0333 47.6 42.4C46.5333 41.7333 45.5833 40.9833 44.75 40.15C43.95 39.3167 43.3 38.3667 42.8 37.3C42.3 36.2 42.05 34.9 42.05 33.4C42.05 31.9 42.3333 30.55 42.9 29.35C43.4667 28.1167 44.2333 27.0833 45.2 26.25C46.2 25.3833 47.3333 24.7167 48.6 24.25C49.9 23.7833 51.2667 23.55 52.7 23.55C53.8667 23.55 55.0333 23.75 56.2 24.15C57.3667 24.55 58.4333 25.1167 59.4 25.85C60.3667 26.5833 61.15 27.4667 61.75 28.5C62.35 29.5333 62.65 30.6833 62.65 31.95C62.65 32.6167 62.5833 33.25 62.45 33.85C62.35 34.45 62.15 34.9833 61.85 35.45C61.5833 35.9167 61.2 36.3 60.7 36.6C60.2 36.8667 59.5667 37 58.8 37C57.8333 37 57.0167 36.85 56.35 36.55C55.7167 36.2167 55.4 35.4833 55.4 34.35C55.4 33.8167 55.3833 33.3667 55.35 33C55.35 32.6333 55.2667 32.3333 55.1 32.1C54.9333 31.8333 54.6833 31.65 54.35 31.55C54.0167 31.4167 53.5167 31.35 52.85 31.35C52.2167 31.35 51.6 31.5333 51 31.9C50.4 32.2667 50.1 32.8167 50.1 33.55C50.1 34.1833 50.4167 34.7333 51.05 35.2C51.7167 35.6333 52.5333 36.0833 53.5 36.55C54.5 36.9833 55.5667 37.45 56.7 37.95C57.8667 38.45 58.9333 39.0667 59.9 39.8C60.9 40.5 61.7167 41.3833 62.35 42.45C63.0167 43.4833 63.35 44.75 63.35 46.25C63.35 47.7167 63.0333 49.0167 62.4 50.15C61.7667 51.2833 60.9333 52.2333 59.9 53C58.8667 53.7667 57.6833 54.3333 56.35 54.7C55.05 55.1 53.7333 55.3 52.4 55.3C51.0667 55.3 49.75 55.05 48.45 54.55C47.15 54.05 45.9833 53.3667 44.95 52.5C43.95 51.6333 43.1333 50.6 42.5 49.4C41.8667 48.2 41.55 46.9 41.55 45.5C41.55 44.3333 41.8833 43.5 42.55 43C43.25 42.5 44.1333 42.25 45.2 42.25ZM70.3957 32.9C69.3957 32.9 68.5124 32.9167 67.7457 32.95C67.0124 32.9833 66.3957 32.9 65.8957 32.7C65.3957 32.4667 65.0124 32.05 64.7457 31.45C64.479 30.85 64.3457 29.9 64.3457 28.6C64.3457 27.8667 64.379 27.25 64.4457 26.75C64.5124 26.25 64.6624 25.85 64.8957 25.55C65.1624 25.2167 65.5124 24.9833 65.9457 24.85C66.4124 24.6833 67.0124 24.6 67.7457 24.6C68.1457 24.6 68.5457 24.6 68.9457 24.6C69.3457 24.6 69.7457 24.5833 70.1457 24.55L74.9457 24.45H77.3457H81.0457C81.6457 24.45 82.1124 24.5833 82.4457 24.85C82.779 25.1167 83.0124 25.45 83.1457 25.85C83.3124 26.25 83.4124 26.7 83.4457 27.2C83.479 27.7 83.4957 28.1833 83.4957 28.65C83.4957 29.9833 83.2457 31.0333 82.7457 31.8C82.279 32.5333 81.3124 32.9 79.8457 32.9H77.8957V34.35C77.8957 37.2167 77.979 40.0667 78.1457 42.9C78.3124 45.7333 78.3957 48.5833 78.3957 51.45C78.3957 53.05 78.029 54.0833 77.2957 54.55C76.5624 55.0167 75.4457 55.25 73.9457 55.25C72.7457 55.25 71.729 55.0167 70.8957 54.55C70.0624 54.0833 69.6457 53.1833 69.6457 51.85V51.45C69.8124 48.3167 69.9124 45.2167 69.9457 42.15C70.0124 39.0833 70.1624 36 70.3957 32.9ZM86.6703 54.95C85.137 54.95 83.987 54.6333 83.2203 54C82.4536 53.4 82.0703 52.3 82.0703 50.7C82.0703 50.1 82.137 49.3167 82.2703 48.35C82.437 47.35 82.637 46.2833 82.8703 45.15C83.1036 43.9833 83.3703 42.7833 83.6703 41.55C83.9703 40.2833 84.2703 39.0833 84.5703 37.95C84.9036 36.7833 85.2036 35.7167 85.4703 34.75C85.7703 33.75 86.037 32.95 86.2703 32.35C86.637 31.3167 87.0203 30.3167 87.4203 29.35C87.8203 28.3833 88.3036 27.5333 88.8703 26.8C89.4703 26.0667 90.187 25.4833 91.0203 25.05C91.8536 24.5833 92.9036 24.35 94.1703 24.35C94.9036 24.35 95.637 24.4167 96.3703 24.55C97.1036 24.6833 97.787 24.95 98.4203 25.35C99.287 25.9167 100.004 26.7667 100.57 27.9C101.17 29 101.654 30.2 102.02 31.5C102.387 32.8 102.687 34.1 102.92 35.4C103.154 36.7 103.337 37.8 103.47 38.7C103.637 39.6 103.82 40.65 104.02 41.85C104.22 43.05 104.404 44.2833 104.57 45.55C104.77 46.7833 104.937 48 105.07 49.2C105.204 50.3667 105.27 51.3833 105.27 52.25C105.27 52.9167 105.137 53.4667 104.87 53.9C104.637 54.3 104.304 54.6 103.87 54.8C103.47 55.0333 103.004 55.1833 102.47 55.25C101.97 55.35 101.437 55.4 100.87 55.4C99.8036 55.4 98.987 55.2167 98.4203 54.85C97.8536 54.4833 97.4203 54 97.1203 53.4C96.8203 52.8 96.6036 52.1167 96.4703 51.35C96.337 50.5833 96.1703 49.7833 95.9703 48.95H90.6203C90.5203 49.5833 90.4203 50.2667 90.3203 51C90.2536 51.7 90.087 52.35 89.8203 52.95C89.587 53.5167 89.2203 53.9833 88.7203 54.35C88.2203 54.75 87.537 54.95 86.6703 54.95ZM95.1203 41.65V40.9C95.1203 40.7 95.1036 40.2667 95.0703 39.6C95.037 38.9 94.987 38.2 94.9203 37.5C94.8536 36.7667 94.7536 36.1167 94.6203 35.55C94.487 34.95 94.3203 34.65 94.1203 34.65C93.8536 34.65 93.587 34.9833 93.3203 35.65C93.087 36.2833 92.8703 37.0167 92.6703 37.85C92.4703 38.65 92.3036 39.4333 92.1703 40.2C92.037 40.9333 91.9703 41.4167 91.9703 41.65H95.1203ZM111.102 55.2C109.602 55.2 108.519 54.8667 107.852 54.2C107.219 53.5333 106.902 52.45 106.902 50.95V28.4C106.902 27.1333 107.302 26.1833 108.102 25.55C108.902 24.8833 109.902 24.55 111.102 24.55C112.169 24.55 112.985 24.7333 113.552 25.1C114.152 25.4667 114.585 25.9667 114.852 26.6C115.119 27.2 115.285 27.9 115.352 28.7C115.419 29.5 115.452 30.3167 115.452 31.15C115.452 31.8833 115.402 32.6167 115.302 33.35C115.235 34.05 115.135 34.75 115.002 35.45C115.702 34.85 116.285 34.2 116.752 33.5C117.252 32.7667 117.685 32 118.052 31.2C118.452 30.4 118.819 29.6 119.152 28.8C119.485 27.9667 119.852 27.15 120.252 26.35C120.652 25.55 121.119 25.0333 121.652 24.8C122.185 24.5333 122.885 24.4 123.752 24.4C124.219 24.4 124.702 24.5 125.202 24.7C125.702 24.9 126.152 25.1667 126.552 25.5C126.985 25.8 127.335 26.1833 127.602 26.65C127.869 27.0833 128.002 27.55 128.002 28.05C128.002 28.25 127.969 28.45 127.902 28.65C127.869 28.8167 127.819 28.9833 127.752 29.15C127.452 30.15 127.085 31.2333 126.652 32.4C126.219 33.5333 125.719 34.65 125.152 35.75C124.585 36.8167 123.935 37.8333 123.202 38.8C122.502 39.7333 121.702 40.5167 120.802 41.15C121.002 41.55 121.285 42.05 121.652 42.65C122.019 43.2167 122.419 43.7833 122.852 44.35C123.285 44.8833 123.735 45.3667 124.202 45.8C124.702 46.2 125.185 46.4333 125.652 46.5C126.319 46.6 126.852 46.75 127.252 46.95C127.685 47.1167 128.019 47.35 128.252 47.65C128.519 47.95 128.685 48.3333 128.752 48.8C128.852 49.2333 128.902 49.8 128.902 50.5C128.902 52.1 128.519 53.3167 127.752 54.15C127.019 54.9833 125.835 55.4 124.202 55.4C123.635 55.4 123.102 55.35 122.602 55.25C122.135 55.1833 121.669 55 121.202 54.7C120.735 54.4 120.202 53.85 119.602 53.05C119.002 52.25 118.402 51.3667 117.802 50.4C117.235 49.4 116.702 48.4333 116.202 47.5C115.702 46.5667 115.302 45.8333 115.002 45.3C115.069 46.4 115.185 47.5 115.352 48.6C115.519 49.7 115.602 50.8 115.602 51.9C115.602 52.6333 115.485 53.2167 115.252 53.65C115.019 54.0833 114.685 54.4167 114.252 54.65C113.852 54.8833 113.369 55.0333 112.802 55.1C112.269 55.1667 111.702 55.2 111.102 55.2ZM135.221 55.7C133.687 55.7 132.637 55.3167 132.071 54.55C131.504 53.7833 131.221 52.6833 131.221 51.25C131.221 47.7833 131.204 44.3333 131.171 40.9C131.171 37.4667 131.171 34.0167 131.171 30.55C131.171 30.0167 131.187 29.45 131.221 28.85C131.287 28.2167 131.404 27.6333 131.571 27.1C131.771 26.5333 132.054 26.0667 132.421 25.7C132.821 25.3 133.354 25.05 134.021 24.95C135.887 24.6833 137.771 24.4833 139.671 24.35C141.571 24.2167 143.471 24.15 145.371 24.15C145.737 24.15 146.087 24.3167 146.421 24.65C146.754 24.95 147.037 25.3167 147.271 25.75C147.537 26.1833 147.737 26.6333 147.871 27.1C148.037 27.5667 148.121 27.95 148.121 28.25C148.121 28.6833 148.087 29.1167 148.021 29.55C147.987 29.9833 147.887 30.3833 147.721 30.75C147.554 31.0833 147.304 31.3667 146.971 31.6C146.671 31.8 146.254 31.9333 145.721 32L138.921 32.55L139.171 35.65H144.071C145.104 35.65 145.804 36 146.171 36.7C146.537 37.3667 146.721 38.15 146.721 39.05C146.721 39.3833 146.687 39.7833 146.621 40.25C146.587 40.6833 146.487 41.1167 146.321 41.55C146.187 41.95 145.987 42.3 145.721 42.6C145.454 42.9 145.087 43.05 144.621 43.05H139.171L139.471 47.5H142.171C142.537 47.5 142.821 47.4 143.021 47.2C143.254 46.9667 143.471 46.7167 143.671 46.45C143.904 46.15 144.154 45.9 144.421 45.7C144.721 45.4667 145.087 45.35 145.521 45.35C146.587 45.35 147.454 45.6333 148.121 46.2C148.787 46.7667 149.121 47.6 149.121 48.7C149.121 49.9667 149.054 51.0333 148.921 51.9C148.821 52.7667 148.554 53.4667 148.121 54C147.687 54.5333 147.071 54.9333 146.271 55.2C145.504 55.4667 144.437 55.6167 143.071 55.65C142.304 55.6833 141.521 55.7 140.721 55.7C139.921 55.7 139.137 55.7 138.371 55.7H135.221ZM168.188 55.5C166.988 55.5 166.005 55.2667 165.238 54.8C164.471 54.3333 164.005 53.4667 163.838 52.2C163.671 50.8333 163.571 49.4667 163.538 48.1C163.538 46.7333 163.538 45.3833 163.538 44.05C163.538 42.2167 163.571 40.4 163.638 38.6C163.705 36.8 163.771 35 163.838 33.2C163.871 32.4 163.905 31.5 163.938 30.5C164.005 29.5 164.171 28.55 164.438 27.65C164.705 26.75 165.121 26 165.688 25.4C166.288 24.8 167.138 24.5 168.238 24.5C168.938 24.5 169.621 24.65 170.288 24.95C170.955 25.2167 171.521 25.6167 171.988 26.15C172.455 26.6833 172.955 27.5667 173.488 28.8C174.055 30.0333 174.605 31.3833 175.138 32.85C175.705 34.2833 176.255 35.7 176.788 37.1C177.355 38.5 177.871 39.6 178.338 40.4C178.338 38.4333 178.305 36.4833 178.238 34.55C178.171 32.5833 178.138 30.6167 178.138 28.65C178.138 27.4167 178.421 26.4167 178.988 25.65C179.588 24.85 180.538 24.45 181.838 24.45C182.405 24.45 182.955 24.5333 183.488 24.7C184.055 24.8667 184.538 25.1167 184.938 25.45C185.371 25.7833 185.705 26.2 185.938 26.7C186.205 27.1667 186.338 27.7167 186.338 28.35V31.15L186.388 36.75C186.421 37.2167 186.438 37.7 186.438 38.2C186.438 38.6667 186.438 39.1333 186.438 39.6C186.438 41.6333 186.405 43.7 186.338 45.8C186.305 47.8667 186.121 49.9167 185.788 51.95C185.688 52.6167 185.555 53.1667 185.388 53.6C185.221 54.0333 184.988 54.3667 184.688 54.6C184.421 54.8667 184.071 55.0333 183.638 55.1C183.205 55.2 182.638 55.25 181.938 55.25C181.105 55.25 180.305 54.9333 179.538 54.3C178.805 53.7 178.121 52.9667 177.488 52.1C176.888 51.2333 176.338 50.3333 175.838 49.4C175.371 48.4667 174.955 47.6833 174.588 47.05C174.021 46.05 173.488 45.0167 172.988 43.95C172.521 42.8833 172.105 41.8 171.738 40.7C171.838 44.4 171.888 48.0833 171.888 51.75C171.888 54.25 170.655 55.5 168.188 55.5ZM200.326 55.55C197.76 55.55 195.71 55.1667 194.176 54.4C192.676 53.6333 191.526 52.5667 190.726 51.2C189.926 49.8333 189.41 48.2167 189.176 46.35C188.943 44.45 188.826 42.3833 188.826 40.15C188.826 37.7833 188.96 35.6 189.226 33.6C189.493 31.6 190.06 29.8833 190.926 28.45C191.793 26.9833 193.026 25.85 194.626 25.05C196.26 24.2167 198.426 23.8 201.126 23.8C203.46 23.8 205.343 24.2333 206.776 25.1C208.243 25.9333 209.376 27.0667 210.176 28.5C210.976 29.9 211.51 31.5333 211.776 33.4C212.043 35.2333 212.176 37.1333 212.176 39.1C212.176 41.3667 212.06 43.5 211.826 45.5C211.593 47.5 211.06 49.25 210.226 50.75C209.426 52.2167 208.243 53.3833 206.676 54.25C205.11 55.1167 202.993 55.55 200.326 55.55ZM197.226 41.2C197.226 41.8 197.226 42.4667 197.226 43.2C197.26 43.9 197.376 44.5667 197.576 45.2C197.776 45.8333 198.093 46.3667 198.526 46.8C198.96 47.2 199.593 47.4 200.426 47.4C201.226 47.4 201.86 47.2 202.326 46.8C202.793 46.4 203.143 45.9 203.376 45.3C203.61 44.7 203.76 44.05 203.826 43.35C203.893 42.65 203.926 42 203.926 41.4C203.926 40.8 203.91 40 203.876 39C203.876 37.9667 203.76 36.9667 203.526 36C203.326 35 202.976 34.1333 202.476 33.4C202.01 32.6667 201.326 32.3 200.426 32.3C199.626 32.3 199.01 32.6333 198.576 33.3C198.143 33.9333 197.826 34.7 197.626 35.6C197.426 36.5 197.31 37.4167 197.276 38.35C197.243 39.25 197.226 39.9667 197.226 40.5V41.2ZM220.168 55.25C219.001 55.25 218.101 54.9167 217.468 54.25C216.868 53.5833 216.401 52.7167 216.068 51.65C215.635 50.15 215.268 48.4833 214.968 46.65C214.701 44.7833 214.485 42.8833 214.318 40.95C214.151 39.0167 214.035 37.1 213.968 35.2C213.935 33.3 213.918 31.55 213.918 29.95C213.918 29.35 213.935 28.7167 213.968 28.05C214.001 27.35 214.118 26.7167 214.318 26.15C214.551 25.55 214.885 25.0667 215.318 24.7C215.785 24.3333 216.418 24.15 217.218 24.15C217.885 24.15 218.501 24.25 219.068 24.45C219.668 24.6167 220.168 25 220.568 25.6C220.735 25.8333 220.885 26.3333 221.018 27.1C221.185 27.8667 221.318 28.7667 221.418 29.8C221.551 30.8333 221.668 31.9333 221.768 33.1C221.868 34.2667 221.935 35.4 221.968 36.5C222.035 37.5667 222.085 38.5333 222.118 39.4C222.151 40.2667 222.168 40.9 222.168 41.3C222.268 40.9667 222.418 40.4333 222.618 39.7C222.818 38.9333 223.051 38.0833 223.318 37.15C223.618 36.1833 223.918 35.2 224.218 34.2C224.551 33.1667 224.868 32.2167 225.168 31.35C225.468 30.45 225.735 29.7 225.968 29.1C226.235 28.4667 226.451 28.0833 226.618 27.95C226.885 27.7167 227.151 27.5667 227.418 27.5C227.685 27.4333 228.001 27.4 228.368 27.4C228.735 27.4 229.035 27.4333 229.268 27.5C229.535 27.5667 229.801 27.7 230.068 27.9C230.301 28.0667 230.551 28.45 230.818 29.05C231.118 29.65 231.418 30.3833 231.718 31.25C232.018 32.0833 232.318 33 232.618 34C232.918 34.9667 233.201 35.9167 233.468 36.85C233.735 37.75 233.968 38.5667 234.168 39.3C234.368 40.0333 234.518 40.5833 234.618 40.95C234.651 40.05 234.668 39.0833 234.668 38.05C234.668 36.9833 234.668 35.9333 234.668 34.9C234.701 33.8333 234.735 32.7833 234.768 31.75C234.801 30.7167 234.868 29.7667 234.968 28.9C235.035 28.2333 235.135 27.6167 235.268 27.05C235.401 26.4833 235.601 25.9833 235.868 25.55C236.168 25.1167 236.551 24.7833 237.018 24.55C237.518 24.3167 238.151 24.2 238.918 24.2C240.285 24.2 241.218 24.5 241.718 25.1C242.251 25.6667 242.518 26.6167 242.518 27.95C242.518 31.7167 242.235 35.4667 241.668 39.2C241.101 42.9333 240.501 46.6667 239.868 50.4C239.768 51.0333 239.651 51.65 239.518 52.25C239.418 52.8167 239.235 53.3333 238.968 53.8C238.701 54.2333 238.335 54.5833 237.868 54.85C237.401 55.1167 236.785 55.25 236.018 55.25C235.318 55.25 234.635 55.15 233.968 54.95C233.335 54.7833 232.735 54.4667 232.168 54C231.935 53.8 231.668 53.4167 231.368 52.85C231.101 52.25 230.818 51.5667 230.518 50.8C230.218 50 229.918 49.15 229.618 48.25C229.351 47.35 229.101 46.4833 228.868 45.65C228.635 44.7833 228.418 44 228.218 43.3C228.018 42.5667 227.851 42.0167 227.718 41.65C227.551 42.2167 227.301 43.1333 226.968 44.4C226.635 45.6333 226.268 46.9167 225.868 48.25C225.501 49.5833 225.118 50.8167 224.718 51.95C224.318 53.05 223.935 53.7333 223.568 54C223.001 54.4667 222.468 54.7833 221.968 54.95C221.501 55.15 220.901 55.25 220.168 55.25Z" fill="black"/>
<defs>
<filter id="filter0_d_236_2880" x="0" y="0" width="297" height="85" filterUnits="userSpaceOnUse" color-interpolation-filters="sRGB">
<feFlood flood-opacity="0" result="BackgroundImageFix"/>
<feColorMatrix in="SourceAlpha" type="matrix" values="0 0 0 0 0 0 0 0 0 0 0 0 0 0 0 0 0 0 127 0" result="hardAlpha"/>
<feOffset dx="4" dy="4"/>
<feGaussianBlur stdDeviation="2"/>
<feComposite in2="hardAlpha" operator="out"/>
<feColorMatrix type="matrix" values="0 0 0 0 0.633333 0 0 0 0 0.4522 0 0 0 0 0.255972 0 0 0 0.6 0"/>
<feBlend mode="normal" in2="BackgroundImageFix" result="effect1_dropShadow_236_2880"/>
<feBlend mode="normal" in="SourceGraphic" in2="effect1_dropShadow_236_2880" result="shape"/>
</filter>
<linearGradient id="paint0_linear_236_2880" x1="144.5" y1="5" x2="144.5" y2="72" gradientUnits="userSpaceOnUse">
<stop stop-color="#FFEED1"/>
<stop offset="0.703125" stop-color="#FFA614"/>
</linearGradient>
</defs>
</svg>
