<svg width="44" height="37" viewBox="0 0 44 37" fill="none" xmlns="http://www.w3.org/2000/svg">
<path d="M25.716 1.03018C22.1579 2.57216 19.8186 5.96168 19.6985 9.83572L19.6946 10.2016L19.2161 10.1554C14.5061 9.61457 10.3593 7.11565 7.51203 3.05666C7.31923 2.78157 7.06156 2.5606 6.76288 2.4142C6.46421 2.26781 6.13418 2.20072 5.80336 2.21917C5.47254 2.23761 5.15163 2.34098 4.87034 2.5197C4.58905 2.69843 4.35648 2.94673 4.19416 3.24162L4.00316 3.61555L3.90668 3.81458C2.49093 6.80002 1.5635 10.4288 1.90415 14.2747L1.96322 14.8235C2.52046 19.373 4.91681 23.2973 9.40429 26.2405L9.74494 26.4557L9.58545 26.5421C6.99613 27.875 4.62735 28.456 2.04986 28.3515C-0.0294706 28.271 -0.797404 31.1097 1.02988 32.127C8.11456 36.0694 15.721 37.2857 22.28 35.3436C30.2744 32.9714 36.3627 26.8537 38.6921 18.3899L38.9422 17.3948C39.4108 15.3985 39.6746 13.3619 39.7317 11.3154L39.7377 10.6479L40.5115 9.08182L41.3779 7.34886L41.7993 6.47634L42.0316 5.97978C42.5534 4.8439 42.9295 3.90304 43.1618 3.10491L43.1894 2.99233L43.2052 2.95614C43.6384 1.76398 42.8783 0.226024 41.3523 0.226024L41.1121 0.240097C40.9565 0.25962 40.8038 0.298091 40.6572 0.354689L40.4879 0.431084C39.9259 0.709705 39.3472 0.951443 38.7551 1.15483L38.0541 1.38602L37.5205 1.54685L36.0004 1.97708C33.3697 -0.270544 29.8097 -0.543958 26.1315 0.863319L25.716 1.03018Z" fill="black"/>
</svg>
