<svg class="BuyBtnSm" width="154" height="68" viewBox="0 0 154 68" fill="none" xmlns="http://www.w3.org/2000/svg">
    <g filter="url(#filter0_d_236_2886)">
        <rect x="4" y="4" width="139.2" height="53.6" rx="24" fill="#FFA614"/>
        <rect x="2" y="2" width="143.2" height="57.6" rx="26" stroke="black" stroke-width="4"/>
    </g>
    <rect x="6" y="6" width="135.2" height="49.6" rx="22" fill="url(#paint0_linear_236_2886)" stroke="#F68A15" stroke-width="4"/>
    <path d="M127.122 36.7483C126.805 35.9551 126.725 35.1618 126.884 34.3686C127.36 31.6716 128.629 30.799 130.692 31.7509C131.802 32.2268 132.357 33.4167 132.357 35.3205C132.199 36.2724 131.723 37.0656 130.93 37.7002C130.136 38.3348 129.343 38.4934 128.55 38.1761C127.915 37.8588 127.439 37.3829 127.122 36.7483Z" fill="white"/>
    <path d="M117.039 15.3313C117.515 14.6967 117.911 14.3001 118.229 14.1414C120.291 13.3482 122.433 13.4275 124.654 14.3794C126.875 15.3313 128.779 17.3144 130.365 20.3287C131.634 23.0257 131.793 25.2468 130.841 26.9919C130.048 28.737 128.779 29.6096 127.034 29.6096C124.178 29.4509 122.512 28.5784 122.036 26.9919C121.56 25.4054 120.926 23.7396 120.132 21.9945L117.039 16.9971C116.721 16.3625 116.721 15.8072 117.039 15.3313Z" fill="white"/>
    <path d="M51.7592 45.0398C50.1859 45.0398 48.9059 44.8531 47.9192 44.4798C46.9592 44.1065 46.1992 43.5598 45.6392 42.8398C45.1059 42.1198 44.7459 41.2131 44.5592 40.1198C44.3726 39.0265 44.2792 37.7598 44.2792 36.3198V27.0798C44.2792 25.9331 44.3326 24.9065 44.4392 23.9998C44.5726 23.0931 44.8392 22.3331 45.2392 21.7198C45.6659 21.0798 46.2792 20.5998 47.0792 20.2798C47.8792 19.9331 48.9459 19.7598 50.2792 19.7598C51.5859 19.7598 52.8526 19.8131 54.0792 19.9198C55.3059 19.9998 56.3992 20.2531 57.3592 20.6798C58.3192 21.1065 59.0792 21.7731 59.6392 22.6798C60.2259 23.5865 60.5192 24.8531 60.5192 26.4798C60.5192 27.0131 60.4392 27.5731 60.2792 28.1598C60.1192 28.7465 59.8792 29.3065 59.5592 29.8398C59.2392 30.3731 58.8526 30.8398 58.3992 31.2398C57.9726 31.6398 57.4792 31.9065 56.9192 32.0398C57.6659 32.0665 58.3059 32.2398 58.8392 32.5598C59.3726 32.8798 59.7992 33.3065 60.1192 33.8398C60.4659 34.3465 60.7059 34.9198 60.8392 35.5598C60.9992 36.1998 61.0792 36.8531 61.0792 37.5198C61.0792 38.8798 60.8126 40.0398 60.2792 40.9998C59.7726 41.9331 59.0792 42.7065 58.1992 43.3198C57.3459 43.9065 56.3592 44.3331 55.2392 44.5998C54.1192 44.8931 52.9592 45.0398 51.7592 45.0398ZM50.6392 29.0398C50.7192 29.0398 50.7992 29.0531 50.8792 29.0798C50.9592 29.0798 51.0392 29.0798 51.1192 29.0798C51.4126 29.0798 51.7326 29.0531 52.0792 28.9998C52.4526 28.9198 52.7992 28.8131 53.1192 28.6798C53.4392 28.5198 53.7059 28.3198 53.9192 28.0798C54.1326 27.8131 54.2392 27.4931 54.2392 27.1198C54.2392 26.8798 54.1592 26.6931 53.9992 26.5598C53.8392 26.3998 53.6392 26.2798 53.3992 26.1998C53.1592 26.1198 52.9059 26.0665 52.6392 26.0398C52.3992 26.0131 52.1992 25.9998 52.0392 25.9998C51.8259 25.9998 51.5992 25.9998 51.3592 25.9998C51.1459 25.9998 50.9326 26.0265 50.7192 26.0798C50.6659 26.3731 50.6392 26.6665 50.6392 26.9598C50.6392 27.2531 50.6392 27.5465 50.6392 27.8398V29.0398ZM50.7592 38.1198C50.7859 38.5731 50.9326 38.8131 51.1992 38.8398C51.4926 38.8665 51.8259 38.8798 52.1992 38.8798C52.5726 38.8798 52.9592 38.8398 53.3592 38.7598C53.7592 38.6798 54.0792 38.5198 54.3192 38.2798C54.5859 38.0131 54.7192 37.6531 54.7192 37.1998C54.7192 36.6931 54.5859 36.2798 54.3192 35.9598C54.0526 35.6131 53.7059 35.3465 53.2792 35.1598C52.8792 34.9465 52.4392 34.7998 51.9592 34.7198C51.5059 34.6131 51.0792 34.5598 50.6792 34.5598L50.7592 38.1198ZM71.0739 45.0398C69.5806 45.0398 68.3272 44.8131 67.3139 44.3598C66.3272 43.9331 65.5139 43.3198 64.8739 42.5198C64.2606 41.7198 63.8206 40.7598 63.5539 39.6398C63.2872 38.5198 63.1272 37.2798 63.0739 35.9198C63.0206 34.1065 62.9672 32.3198 62.9139 30.5598C62.8606 28.7731 62.8339 26.9731 62.8339 25.1598C62.8339 24.4931 62.8472 23.8665 62.8739 23.2798C62.9272 22.6665 63.0606 22.1465 63.2739 21.7198C63.5139 21.2665 63.8606 20.9065 64.3139 20.6398C64.7939 20.3731 65.4472 20.2398 66.2739 20.2398C67.4739 20.2398 68.3139 20.5598 68.7939 21.1998C69.2739 21.8398 69.5139 22.7198 69.5139 23.8398V35.2798C69.5139 35.5198 69.5406 35.7865 69.5939 36.0798C69.6472 36.3465 69.7272 36.5998 69.8339 36.8398C69.9672 37.0798 70.1272 37.2798 70.3139 37.4398C70.5272 37.5998 70.7939 37.6798 71.1139 37.6798C71.7806 37.6798 72.2872 37.4398 72.6339 36.9598C73.0072 36.4531 73.2739 35.8665 73.4339 35.1998C73.5939 34.5065 73.6872 33.7998 73.7139 33.0798C73.7406 32.3598 73.7539 31.7731 73.7539 31.3198C73.7539 30.7865 73.7406 30.2531 73.7139 29.7198C73.7139 29.1598 73.7139 28.6131 73.7139 28.0798L73.6339 25.8798C73.6339 25.3465 73.6206 24.8131 73.5939 24.2798C73.5939 23.7198 73.5939 23.1731 73.5939 22.6398C73.5939 21.7865 73.8872 21.1731 74.4739 20.7998C75.0606 20.4265 75.7406 20.2398 76.5139 20.2398C77.3139 20.2398 77.9272 20.4931 78.3539 20.9998C78.7806 21.4798 79.0872 22.0798 79.2739 22.7998C79.4872 23.4931 79.6072 24.2265 79.6339 24.9998C79.6872 25.7731 79.7139 26.4398 79.7139 26.9998C79.7139 28.1465 79.7139 29.2931 79.7139 30.4398C79.7139 31.5598 79.6872 32.6931 79.6339 33.8398C79.6072 35.4131 79.4872 36.8931 79.2739 38.2798C79.0872 39.6398 78.7006 40.8265 78.1139 41.8398C77.5272 42.8265 76.6739 43.5998 75.5539 44.1598C74.4606 44.7465 72.9672 45.0398 71.0739 45.0398ZM88.1764 35.9198C86.5497 35.9198 85.2964 35.6798 84.4164 35.1998C83.5364 34.6931 82.8964 34.0131 82.4964 33.1598C82.0964 32.2798 81.8564 31.2665 81.7764 30.1198C81.7231 28.9731 81.6964 27.7598 81.6964 26.4798C81.6964 26.1065 81.6831 25.7331 81.6564 25.3598C81.6297 24.9865 81.6164 24.6131 81.6164 24.2398C81.6164 23.6265 81.6564 23.0665 81.7364 22.5598C81.8164 22.0531 81.9631 21.6265 82.1764 21.2798C82.4164 20.9065 82.7497 20.6265 83.1764 20.4398C83.6031 20.2265 84.1764 20.1198 84.8964 20.1198C86.0164 20.1198 86.8697 20.3998 87.4564 20.9598C88.0697 21.5198 88.3764 22.3865 88.3764 23.5598C88.3764 24.4665 88.3231 25.3598 88.2164 26.2398C88.1097 27.1198 88.0564 28.0131 88.0564 28.9198C88.0564 29.4531 88.1897 29.7865 88.4564 29.9198C88.7497 30.0265 89.1231 30.0798 89.5764 30.0798C90.0297 30.0798 90.3897 29.9998 90.6564 29.8398C90.9497 29.6798 91.1764 29.4665 91.3364 29.1998C91.4964 28.9331 91.6031 28.6265 91.6564 28.2798C91.7097 27.9065 91.7364 27.5331 91.7364 27.1598C91.7364 26.4398 91.6831 25.7198 91.5764 24.9998C91.4964 24.2798 91.4564 23.5598 91.4564 22.8398C91.4564 22.3065 91.5631 21.8665 91.7764 21.5198C92.0164 21.1731 92.3097 20.9065 92.6564 20.7198C93.0297 20.5065 93.4431 20.3598 93.8964 20.2798C94.3497 20.1731 94.7897 20.1198 95.2164 20.1198C96.0697 20.1198 96.7897 20.3198 97.3764 20.7198C97.9631 21.0931 98.2564 21.7465 98.2564 22.6798C98.2564 24.3598 98.1897 26.0398 98.0564 27.7198C97.9497 29.3731 97.8964 31.0398 97.8964 32.7198C97.8964 33.0131 97.8964 33.3065 97.8964 33.5998C97.9231 33.8931 97.9364 34.1865 97.9364 34.4798L98.0164 35.6398C98.0164 35.9331 98.0164 36.2265 98.0164 36.5198C98.0431 36.8131 98.0564 37.1065 98.0564 37.3998C98.0564 38.8665 97.8431 40.1065 97.4164 41.1198C96.9897 42.1065 96.3897 42.9065 95.6164 43.5198C94.8431 44.1065 93.9097 44.5331 92.8164 44.7998C91.7231 45.0665 90.4964 45.1998 89.1364 45.1998C88.3631 45.1998 87.5364 45.0798 86.6564 44.8398C85.7764 44.5998 84.9497 44.2398 84.1764 43.7598C83.4297 43.2798 82.8031 42.6931 82.2964 41.9998C81.8164 41.3065 81.5764 40.5065 81.5764 39.5998C81.5764 39.2265 81.6697 38.8665 81.8564 38.5198C82.0697 38.1465 82.3364 37.8265 82.6564 37.5598C82.9764 37.2665 83.3231 37.0398 83.6964 36.8798C84.0964 36.7198 84.4697 36.6398 84.8164 36.6398C85.1631 36.6398 85.4564 36.7865 85.6964 37.0798C85.9631 37.3731 86.2564 37.6931 86.5764 38.0398C86.8964 38.3598 87.2964 38.6665 87.7764 38.9598C88.2564 39.2531 88.8964 39.3998 89.6964 39.3998C90.2297 39.3998 90.6431 39.2531 90.9364 38.9598C91.2297 38.6665 91.4431 38.3065 91.5764 37.8798C91.7097 37.4531 91.7897 36.9998 91.8164 36.5198C91.8697 36.0131 91.8964 35.5731 91.8964 35.1998C91.8964 35.0665 91.8964 34.9331 91.8964 34.7998C91.8964 34.6665 91.8831 34.5331 91.8564 34.3998C91.3497 34.8531 90.7764 35.2265 90.1364 35.5198C89.5231 35.7865 88.8697 35.9198 88.1764 35.9198Z" fill="black"/>
    <defs>
        <filter id="filter0_d_236_2886" x="0" y="0" width="153.599" height="68.0001" filterUnits="userSpaceOnUse" color-interpolation-filters="sRGB">
            <feFlood flood-opacity="0" result="BackgroundImageFix"/>
            <feColorMatrix in="SourceAlpha" type="matrix" values="0 0 0 0 0 0 0 0 0 0 0 0 0 0 0 0 0 0 127 0" result="hardAlpha"/>
            <feOffset dx="3.2" dy="3.2"/>
            <feGaussianBlur stdDeviation="1.6"/>
            <feComposite in2="hardAlpha" operator="out"/>
            <feColorMatrix type="matrix" values="0 0 0 0 0.633333 0 0 0 0 0.4522 0 0 0 0 0.255972 0 0 0 0.6 0"/>
            <feBlend mode="normal" in2="BackgroundImageFix" result="effect1_dropShadow_236_2886"/>
            <feBlend mode="normal" in="SourceGraphic" in2="effect1_dropShadow_236_2886" result="shape"/>
        </filter>
        <linearGradient id="paint0_linear_236_2886" x1="73.6" y1="4" x2="73.6" y2="57.6" gradientUnits="userSpaceOnUse">
            <stop stop-color="#FFEED1"/>
            <stop offset="0.703125" stop-color="#FFA614"/>
        </linearGradient>
    </defs>
</svg>