<svg class="PnzLogoSm" width="82" height="82" viewBox="0 0 82 82" fill="none" xmlns="http://www.w3.org/2000/svg">
    <circle cx="41" cy="41" r="41" fill="#FD921B"/>
    <path fill-rule="evenodd" clip-rule="evenodd" d="M55.2721 9.47719C54.6274 9.57838 53.5823 9.79515 53.1813 9.91089C53.0023 9.96257 52.7062 9.96855 51.8907 9.93704C43.9505 9.63037 37.8163 12.6794 33.9792 18.8401C33.8555 19.0387 33.6766 19.3226 33.5816 19.4711C33.4865 19.6196 33.4088 19.749 33.4088 19.7587C33.4088 19.7683 33.2743 20.0182 33.11 20.3139C31.3563 23.47 29.9846 27.4882 28.6053 33.5099C27.7022 37.4524 25.9936 40.7384 23.3801 43.5589C18.4397 48.8908 17.0794 55.8335 19.7357 62.1594C22.8664 69.6155 30.5016 73.9053 37.8227 72.3216C41.4839 71.5296 44.9767 69.7343 47.3303 67.4347L48.01 66.7706L48.6004 67.3555C55.7736 74.4614 66.7276 72.4352 67.1544 63.9233C67.43 58.4246 60.6505 53.267 53.147 53.267H52.5598L52.5849 53.1509C52.5987 53.0871 52.6358 52.768 52.6673 52.4417C52.9656 49.3496 53.681 47.1156 54.8063 45.7627C63.9546 34.764 66.3544 22.1571 60.8665 13.9281L60.6174 13.5547L60.6496 12.9223C60.7875 10.2016 58.794 8.9244 55.2721 9.47719ZM57.8261 10.9783C58.9469 11.2226 59.2817 11.9362 59.0469 13.5816L59.0025 13.8934L59.3356 14.3811C64.2688 21.6033 62.9217 31.8851 55.7113 42.0437C55.0193 43.0185 53.9634 44.4097 53.8281 44.5249C53.7948 44.5532 53.6191 44.7505 53.4379 44.9633C51.964 46.6931 49.9087 48.4718 48.6397 49.116C48.3916 49.2419 46.5657 49.1484 45.0761 48.9335C43.599 48.7203 43.5721 48.7669 43.2993 52.0093C43.2276 52.8604 43.1333 53.7944 43.0897 54.0846C42.8089 55.9518 43.3229 56.8189 44.7348 56.8603L45.142 56.8723L45.1639 57.2487C45.1759 57.4557 45.2332 57.8305 45.2913 58.0816C45.3836 58.4805 45.3897 58.5863 45.3398 58.9218C45.3083 59.1328 45.2826 59.4438 45.2826 59.6129C45.2826 59.7819 45.2652 59.9207 45.2439 59.9213C45.2226 59.9218 45.0426 59.9466 44.8438 59.9764C44.645 60.0061 43.8857 60.0462 43.1564 60.0656L41.8304 60.1008L41.6756 60.249C41.5904 60.3305 41.4688 60.5278 41.4053 60.6874C41.3418 60.847 41.1207 61.3175 40.9138 61.733C40.1884 63.1902 40.1421 63.868 40.7265 64.4749C41.308 65.0788 41.8474 65.169 43.9585 65.0155L44.8284 64.9522L45.1717 64.5602C45.3605 64.3446 45.6079 64.0489 45.7214 63.903C45.9823 63.5679 45.9453 63.5524 46.2144 64.1098C46.3408 64.3716 46.5805 64.8033 46.747 65.069L47.0499 65.5521L46.7986 65.8156C42.7674 70.0432 36.1598 72.068 31.1114 70.6226C19.761 67.3729 16.3162 53.5059 24.6156 44.4733C25.7254 43.2653 26.6944 41.9533 27.4439 40.6438C27.5778 40.4097 27.6911 40.2184 27.6958 40.2186C27.7004 40.2187 27.707 40.7235 27.7106 41.3404C27.7141 41.9572 27.7424 42.6799 27.7733 42.9464L27.8297 43.431L27.5255 43.7974C27.3582 43.9989 27.0828 44.3379 26.9136 44.5506C26.7443 44.7634 26.4378 45.1231 26.2325 45.3501C25.3842 46.2879 25.363 46.969 26.1554 47.8407C27.3616 49.1678 28.2325 49.8432 28.6724 49.7928C29.185 49.734 29.2577 49.6305 30.0006 47.9031C30.2629 47.2932 30.5446 46.6475 30.6267 46.4682C30.7087 46.289 30.7759 46.1323 30.7759 46.1202C30.7759 46.108 30.8696 45.89 30.9842 45.6358C31.3029 44.9288 31.2778 44.4342 30.9006 43.9872C30.5843 43.6125 29.5574 43.0404 29.0901 42.9786C28.7587 42.9348 28.764 42.9522 28.7634 41.9203C28.7622 39.9397 29.147 37.2408 29.6877 35.438C29.7998 35.0641 30.0109 34.2401 30.1567 33.6071C33.1074 20.7957 36.9525 15.0008 44.1985 12.4452C46.1612 11.753 49.0309 11.3785 51.71 11.465C53.1763 11.5123 53.0767 11.5185 53.7969 11.337C55.4616 10.9174 56.9422 10.7856 57.8261 10.9783ZM54.2396 13.2113C53.5652 13.4365 53.1625 13.6591 52.2699 14.3004C51.9532 14.5279 51.6422 14.7489 51.5789 14.7914C48.9102 16.5844 49.0538 17.6406 52.1746 19.1755C52.8104 19.4882 54.155 20.0006 54.3398 20.0006C54.4663 20.0006 54.8431 18.1589 55.1365 16.1066C55.5118 13.4813 55.3167 12.8517 54.2396 13.2113ZM48.8706 13.3859C47.9363 13.4507 46.3151 13.6986 46.3151 13.7765C46.3151 13.8348 47.1428 14.9977 47.1842 14.9977C47.208 14.9977 47.4155 14.8308 47.8381 14.4719C47.8949 14.4236 48.2145 14.164 48.5484 13.8949C48.8824 13.6257 49.1379 13.3979 49.1163 13.3885C49.0947 13.3792 48.9842 13.378 48.8706 13.3859ZM44.0436 14.4278C42.7756 14.8221 40.6389 16.1997 39.3993 17.4221C37.8207 18.9789 37.7037 19.4382 38.5856 20.6195C39.7945 22.239 40.5988 22.3865 41.5285 21.1591C42.8226 19.4503 43.7872 18.3188 45.1106 16.9571C45.9123 16.1322 45.9383 15.8596 45.3003 14.9602C44.9426 14.4557 44.524 14.2784 44.0436 14.4278ZM58.1715 16.2367C58.1587 16.2786 58.1219 16.6842 58.0898 17.1381C58.0576 17.592 57.9826 18.3664 57.9231 18.859C57.7925 19.9396 57.8164 20.0948 58.1386 20.2591C58.3547 20.3692 58.3165 20.3701 59.4925 20.2284C59.8406 20.1865 59.8311 20.2298 59.6315 19.5979C59.1813 18.1721 58.2413 16.0082 58.1715 16.2367ZM47.3903 18.4032C46.8173 18.7056 44.0528 21.9866 43.6812 22.8053C43.0252 24.2508 43.2751 25.2418 44.4566 25.8805C46.366 26.9126 47.7719 27.5216 49.281 27.9702C50.7003 28.3922 51.3247 28.0587 52.0703 26.4808C52.7283 25.0882 53.6982 22.6159 53.6973 22.3335C53.6957 21.8241 53.4879 21.6269 52.388 21.0911C50.9515 20.3914 49.922 19.7397 48.8448 18.8486C48.1473 18.2715 47.8262 18.1732 47.3903 18.4032ZM19.7022 21.1687C14.2819 21.5926 8.79261 27.4612 8.54125 33.1008L8.51022 33.7971L8.36954 33.9776C7.17095 35.5155 7.68994 36.9352 9.66105 37.5104C10.016 37.614 10.5155 37.799 10.771 37.9216C14.2335 39.583 17.6798 39.2729 21.3867 36.9665C25.9953 34.0991 28.1174 30.4453 27.1349 27.0693C26.0006 23.1714 23.1393 20.8999 19.7022 21.1687ZM36.49 21.8804C36.1163 22.0136 35.9618 22.1938 35.582 22.9404C34.1835 25.6888 32.8327 29.9433 33.1505 30.5991C33.4291 31.1742 35.3107 32.4831 35.8553 32.4808C36.6639 32.4773 36.8333 32.2008 37.663 29.5313C38.281 27.5427 38.5903 26.6863 39.2426 25.1581C39.5128 24.525 39.4648 23.9764 39.105 23.5851C39.0528 23.5283 38.7804 23.2194 38.4996 22.8986C37.6328 21.9082 37.1288 21.6528 36.49 21.8804ZM59.428 22.3757C57.8848 22.5128 57.1631 23.1979 56.4752 25.1786C56.3067 25.6637 56.0733 26.3276 55.9565 26.6538C55.45 28.0691 55.8607 28.8037 57.0964 28.6926C57.6593 28.642 59.9612 28.2547 60.0154 28.2014C60.2648 27.9566 60.451 22.7333 60.2234 22.3654C60.1934 22.3168 60.0734 22.3183 59.428 22.3757ZM42.1466 27.036C41.2993 27.3105 41.0412 27.7195 40.4028 29.8C40.2418 30.3248 39.9003 31.3782 39.6439 32.1411L39.1779 33.5281L39.2033 33.8441C39.2329 34.2134 39.4105 34.5968 39.6638 34.8383C39.8548 35.0204 40.1021 35.1491 41.2042 35.6395C44.6703 37.1819 44.8354 37.1764 46.2897 35.4703C48.9235 32.3806 49.4866 31.2896 48.9648 30.2878C48.6521 29.6874 48.5216 29.5974 46.9863 28.923C46.461 28.6923 45.5317 28.2457 44.9212 27.9305C42.9892 26.9331 43.1285 26.9936 42.7272 26.9786C42.5223 26.9709 42.2708 26.9958 42.1466 27.036ZM59.4753 30.3875C59.4352 30.4251 57.7561 30.5752 56.5628 30.6477L55.3754 30.72L54.9522 30.8705C54.2628 31.1158 53.6728 31.6607 53.2353 32.4561C52.8106 33.2283 51.4664 35.3129 51.0364 35.8661C50.1607 36.9927 50.3949 38.0726 51.5857 38.3985C52.082 38.5343 54.5517 38.5331 55.0398 38.3968C56.4899 37.9919 57.6476 36.1445 59.1183 31.8888C59.2851 31.4062 59.3633 31.1552 59.5639 30.4576C59.587 30.3772 59.5323 30.334 59.4753 30.3875ZM32.42 33.5659C32.1584 33.704 32.0304 33.9384 31.882 34.5502C31.5641 35.8622 31.199 36.9641 30.4937 38.7409C29.8884 40.2656 30.0698 40.8855 31.3392 41.6307C32.3062 42.1984 32.6726 42.0721 33.1522 41.0058C33.3023 40.6719 33.5061 40.2247 33.6049 40.012C33.7039 39.7992 33.8486 39.4743 33.9266 39.2899C34.0046 39.1055 34.1775 38.6994 34.3108 38.3873C35.5659 35.4491 35.5524 35.1576 34.1131 34.1376C33.0967 33.4173 32.8558 33.3359 32.42 33.5659ZM38.1304 36.9177C37.829 37.0111 37.571 37.2947 37.329 37.7986C37.203 38.061 36.6408 39.192 36.0796 40.312C34.584 43.2967 34.5767 43.4348 35.8868 44.0052C36.0713 44.0855 36.3183 44.1941 36.4355 44.2463C39.7736 45.7333 40.2424 45.7133 40.818 44.0586C41.277 42.7393 41.6448 41.8672 42.2438 40.6777C43.1343 38.9092 43.0829 38.762 41.3173 38.0242C40.7866 37.8025 40.0047 37.4606 39.5798 37.2644C38.7757 36.8932 38.4564 36.8168 38.1304 36.9177ZM47.5799 40.2236C47.1545 40.3545 47.0706 40.457 46.0437 42.1008C43.9157 45.5073 44.6466 46.9434 48.5426 47.0107L50.1247 47.0379L50.1631 46.9161C50.3268 46.3957 51.4657 44.387 51.7382 44.138C51.7537 44.1239 51.8801 43.9614 52.019 43.777C52.1579 43.5926 52.4037 43.2909 52.5652 43.1065C52.94 42.6786 54.4708 40.7697 54.4714 40.7294C54.4717 40.7126 53.9318 40.6839 53.2717 40.6653C51.7222 40.622 49.3314 40.3944 48.5608 40.2168C48.3021 40.1572 47.7843 40.1608 47.5799 40.2236ZM33.6351 45.784C33.2446 45.9611 32.7363 46.9626 31.4436 50.1022C30.6779 51.9617 30.6662 51.9198 32.2457 52.9621C32.8144 53.3374 33.3378 53.6833 33.4088 53.7309C33.4797 53.7784 33.654 53.883 33.796 53.9632C34.668 54.4557 34.9532 54.6088 35.6028 54.9328C39.0801 56.6669 39.2214 56.5618 39.4723 52.0549C39.515 51.289 39.564 50.4999 39.5814 50.3014C39.7331 48.5634 39.0527 47.6531 36.9643 46.8005C36.3858 46.5643 35.5489 46.2168 35.1045 46.0282C34.2162 45.6513 34.0049 45.6162 33.6351 45.784ZM51.7592 48.6791C51.4751 49.7302 51.2917 50.8207 51.1189 52.4852C51.0034 53.5975 51.0948 53.4525 50.3799 53.6578C50.0603 53.7496 49.6695 53.8818 49.5115 53.9516L49.2243 54.0785L49.2432 52.8346C49.2685 51.1651 49.3428 49.9616 49.4253 49.8824C49.4609 49.8482 49.7805 49.6525 50.1354 49.4477C50.4903 49.2429 51.0113 48.9162 51.2932 48.7218C51.8857 48.3132 51.8574 48.3157 51.7592 48.6791ZM23.6257 49.9599C22.8615 50.1615 22.4324 50.8718 21.9727 52.6957C21.0815 56.2325 21.6287 57.6141 24.749 59.7055C25.888 60.469 26.5027 60.2269 26.6917 58.9403C26.8218 58.0549 27.2207 56.164 27.553 54.857C27.9588 53.2612 27.9736 53.2983 26.2246 51.5182C24.7058 49.9725 24.3612 49.7659 23.6257 49.9599ZM29.777 55.1476C29.6029 55.2794 28.9727 57.9827 28.7912 59.3765C28.4639 61.8893 29.3557 62.7327 33.5969 63.9217C34.945 64.2997 35.4528 64.1766 36.0611 63.3242C38.1008 60.4664 38.0744 59.4536 35.9351 58.5052C34.1148 57.6982 31.8098 56.34 30.3554 55.2174C30.1502 55.0589 29.9294 55.0323 29.777 55.1476ZM22.9895 61.4718C23.8285 63.0523 25.0463 64.6101 26.3841 65.8143C26.8309 66.2164 26.8132 66.216 26.7468 65.8225C26.6418 65.2007 26.5456 64.4031 26.511 63.8688L26.4755 63.3195L26.238 63.1841C25.2841 62.6399 24.2606 61.9975 23.4154 61.4123C23.1052 61.1975 22.8183 61.0021 22.7778 60.9782C22.7373 60.9541 22.8326 61.1763 22.9895 61.4718ZM29.1371 64.8214C28.9898 64.8806 28.8146 65.165 28.8143 65.3453C28.8139 65.6027 29.2644 67.3271 29.4411 67.7445L29.511 67.9099L30.1047 67.6768C30.6599 67.4589 31.8241 66.9097 32.2125 66.6826C32.7612 66.3619 32.7227 65.9359 32.1278 65.7445C31.9119 65.675 30.6269 65.2113 29.9134 64.9455C29.4149 64.7597 29.3261 64.7455 29.1371 64.8214ZM36.8677 67.0272C36.1848 67.5861 35.1621 68.2649 34.2381 68.7724C33.5018 69.1769 33.4943 69.1736 35.0768 69.1364C37.4175 69.0813 39.1461 68.6422 41.1714 67.5885L41.7839 67.2698L40.9391 67.2341C39.7253 67.1829 38.0856 67.0383 37.229 66.9071C37.0824 66.8846 37.0143 66.9073 36.8677 67.0272Z" fill="#D89C54"/>
    <path fill-rule="evenodd" clip-rule="evenodd" d="M57.8261 10.9783C58.9469 11.2226 59.2817 11.9362 59.0469 13.5816L59.0025 13.8934L59.3356 14.3811C64.2688 21.6033 62.9217 31.8851 55.7113 42.0437C55.0193 43.0185 53.9634 44.4097 53.8281 44.5249C53.7948 44.5532 53.6191 44.7505 53.4379 44.9633C51.964 46.6931 49.9087 48.4718 48.6397 49.116C48.3916 49.2419 46.5657 49.1484 45.0761 48.9335C43.599 48.7203 43.5721 48.7669 43.2993 52.0093C43.2276 52.8604 43.1333 53.7944 43.0897 54.0846C42.8089 55.9518 43.3229 56.8189 44.7348 56.8603L45.142 56.8723L45.1639 57.2487C45.1759 57.4557 45.2332 57.8305 45.2913 58.0816C45.3836 58.4805 45.3897 58.5863 45.3398 58.9218C45.3083 59.1328 45.2826 59.4438 45.2826 59.6129C45.2826 59.7819 45.2652 59.9207 45.2439 59.9213C45.2226 59.9218 45.0426 59.9466 44.8438 59.9764C44.645 60.0061 43.8857 60.0462 43.1564 60.0656L41.8304 60.1008L41.6756 60.249C41.5904 60.3305 41.4688 60.5278 41.4053 60.6874C41.3418 60.847 41.1207 61.3175 40.9138 61.733C40.1884 63.1902 40.1421 63.868 40.7265 64.4749C41.308 65.0788 41.8474 65.169 43.9585 65.0155L44.8284 64.9522L45.1717 64.5602C45.3605 64.3446 45.6079 64.0489 45.7214 63.903C45.9823 63.5679 45.9453 63.5524 46.2144 64.1098C46.3408 64.3716 46.5805 64.8033 46.747 65.069L47.0499 65.5521L46.7986 65.8156C42.7674 70.0432 36.1598 72.068 31.1114 70.6226C19.761 67.3729 16.3162 53.5059 24.6156 44.4733C25.7254 43.2653 26.6944 41.9533 27.4439 40.6438C27.5778 40.4097 27.6911 40.2184 27.6958 40.2186C27.7004 40.2187 27.707 40.7235 27.7106 41.3404C27.7141 41.9572 27.7424 42.6799 27.7733 42.9464L27.8297 43.431L27.5255 43.7974C27.3582 43.9989 27.0828 44.3379 26.9136 44.5506C26.7443 44.7634 26.4378 45.1231 26.2325 45.3501C25.3842 46.2879 25.363 46.969 26.1554 47.8407C27.3616 49.1678 28.2325 49.8432 28.6724 49.7928C29.185 49.734 29.2577 49.6305 30.0006 47.9031C30.2629 47.2932 30.5446 46.6475 30.6267 46.4682C30.7087 46.289 30.7759 46.1323 30.7759 46.1202C30.7759 46.108 30.8696 45.89 30.9842 45.6358C31.3029 44.9288 31.2778 44.4342 30.9006 43.9872C30.5843 43.6125 29.5574 43.0404 29.0901 42.9786C28.7587 42.9348 28.764 42.9522 28.7634 41.9203C28.7622 39.9397 29.147 37.2408 29.6877 35.438C29.7998 35.0641 30.0109 34.2401 30.1567 33.6071C33.1074 20.7957 36.9525 15.0008 44.1985 12.4452C46.1612 11.753 49.0309 11.3785 51.71 11.465C53.1763 11.5123 53.0767 11.5185 53.7969 11.337C55.4616 10.9174 56.9422 10.7856 57.8261 10.9783ZM52.2699 14.3004C53.1625 13.6591 53.5652 13.4365 54.2396 13.2113C55.3167 12.8517 55.5118 13.4813 55.1365 16.1066C54.8431 18.1589 54.4663 20.0006 54.3398 20.0006C54.155 20.0006 52.8104 19.4882 52.1746 19.1755C49.0538 17.6406 48.9102 16.5844 51.5789 14.7914C51.6422 14.7489 51.9532 14.5279 52.2699 14.3004ZM46.3151 13.7765C46.3151 13.6986 47.9363 13.4507 48.8706 13.3859C48.9842 13.378 49.0947 13.3792 49.1163 13.3885C49.1379 13.3979 48.8824 13.6257 48.5484 13.8949C48.2145 14.164 47.8949 14.4236 47.8381 14.4719C47.4155 14.8308 47.208 14.9977 47.1842 14.9977C47.1428 14.9977 46.3151 13.8348 46.3151 13.7765ZM39.3993 17.4221C40.6389 16.1997 42.7756 14.8221 44.0436 14.4278C44.524 14.2784 44.9426 14.4557 45.3003 14.9602C45.9383 15.8596 45.9123 16.1322 45.1106 16.9571C43.7872 18.3188 42.8226 19.4503 41.5285 21.1591C40.5988 22.3865 39.7945 22.239 38.5856 20.6195C37.7037 19.4382 37.8207 18.9789 39.3993 17.4221ZM58.0898 17.1381C58.1219 16.6842 58.1587 16.2786 58.1715 16.2367C58.2413 16.0082 59.1813 18.1721 59.6315 19.5979C59.8311 20.2298 59.8406 20.1865 59.4925 20.2284C58.3165 20.3701 58.3547 20.3692 58.1386 20.2591C57.8164 20.0948 57.7925 19.9396 57.9231 18.859C57.9826 18.3664 58.0576 17.592 58.0898 17.1381ZM43.6812 22.8053C44.0528 21.9866 46.8173 18.7056 47.3903 18.4032C47.8262 18.1732 48.1473 18.2715 48.8448 18.8486C49.922 19.7397 50.9515 20.3914 52.388 21.0911C53.4879 21.6269 53.6957 21.8241 53.6973 22.3335C53.6982 22.6159 52.7283 25.0882 52.0703 26.4808C51.3247 28.0587 50.7003 28.3922 49.281 27.9702C47.7719 27.5216 46.366 26.9126 44.4566 25.8805C43.2751 25.2418 43.0252 24.2508 43.6812 22.8053ZM35.582 22.9404C35.9618 22.1938 36.1163 22.0136 36.49 21.8804C37.1288 21.6528 37.6328 21.9082 38.4996 22.8986C38.7804 23.2194 39.0528 23.5283 39.105 23.5851C39.4648 23.9764 39.5128 24.525 39.2426 25.1581C38.5903 26.6863 38.281 27.5427 37.663 29.5313C36.8333 32.2008 36.6639 32.4773 35.8553 32.4808C35.3107 32.4831 33.4291 31.1742 33.1505 30.5991C32.8327 29.9433 34.1835 25.6888 35.582 22.9404ZM56.4752 25.1786C57.1631 23.1979 57.8848 22.5128 59.428 22.3757C60.0734 22.3183 60.1934 22.3168 60.2234 22.3654C60.451 22.7333 60.2648 27.9566 60.0154 28.2014C59.9612 28.2547 57.6593 28.642 57.0964 28.6926C55.8607 28.8037 55.45 28.0691 55.9565 26.6538C56.0733 26.3276 56.3067 25.6637 56.4752 25.1786ZM40.4028 29.8C41.0412 27.7195 41.2993 27.3105 42.1466 27.036C42.2708 26.9958 42.5223 26.9709 42.7272 26.9786C43.1285 26.9936 42.9892 26.9331 44.9212 27.9305C45.5317 28.2457 46.461 28.6923 46.9863 28.923C48.5216 29.5974 48.6521 29.6874 48.9648 30.2878C49.4866 31.2896 48.9235 32.3806 46.2897 35.4703C44.8354 37.1764 44.6703 37.1819 41.2042 35.6395C40.1021 35.1491 39.8548 35.0204 39.6638 34.8383C39.4105 34.5968 39.2329 34.2134 39.2033 33.8441L39.1779 33.5281L39.6439 32.1411C39.9003 31.3782 40.2418 30.3248 40.4028 29.8ZM56.5628 30.6477C57.7561 30.5752 59.4352 30.4251 59.4753 30.3875C59.5323 30.334 59.587 30.3772 59.5639 30.4576C59.3633 31.1552 59.2851 31.4062 59.1183 31.8888C57.6476 36.1445 56.4899 37.9919 55.0398 38.3968C54.5517 38.5331 52.082 38.5343 51.5857 38.3985C50.3949 38.0726 50.1607 36.9927 51.0364 35.8661C51.4664 35.3129 52.8106 33.2283 53.2353 32.4561C53.6728 31.6607 54.2628 31.1158 54.9522 30.8705L55.3754 30.72L56.5628 30.6477ZM31.882 34.5502C32.0304 33.9384 32.1584 33.704 32.42 33.5659C32.8558 33.3359 33.0967 33.4173 34.1131 34.1376C35.5524 35.1576 35.5659 35.4491 34.3108 38.3873C34.1775 38.6994 34.0046 39.1055 33.9266 39.2899C33.8486 39.4743 33.7039 39.7992 33.6049 40.012C33.5061 40.2247 33.3023 40.6719 33.1522 41.0058C32.6726 42.0721 32.3062 42.1984 31.3392 41.6307C30.0698 40.8855 29.8884 40.2656 30.4937 38.7409C31.199 36.9641 31.5641 35.8622 31.882 34.5502ZM37.329 37.7986C37.571 37.2947 37.829 37.0111 38.1304 36.9177C38.4564 36.8168 38.7757 36.8932 39.5798 37.2644C40.0047 37.4606 40.7866 37.8025 41.3173 38.0242C43.0829 38.762 43.1343 38.9092 42.2438 40.6777C41.6448 41.8672 41.277 42.7393 40.818 44.0586C40.2424 45.7133 39.7736 45.7333 36.4355 44.2463C36.3183 44.1941 36.0713 44.0855 35.8868 44.0052C34.5767 43.4348 34.584 43.2967 36.0796 40.312C36.6408 39.192 37.203 38.061 37.329 37.7986ZM46.0437 42.1008C47.0706 40.457 47.1545 40.3545 47.5799 40.2236C47.7843 40.1608 48.3021 40.1572 48.5608 40.2168C49.3314 40.3944 51.7222 40.622 53.2717 40.6653C53.9318 40.6839 54.4717 40.7126 54.4714 40.7294C54.4708 40.7697 52.94 42.6786 52.5652 43.1065C52.4037 43.2909 52.1579 43.5926 52.019 43.777C51.8801 43.9614 51.7537 44.1239 51.7382 44.138C51.4657 44.387 50.3268 46.3957 50.1631 46.9161L50.1247 47.0379L48.5426 47.0107C44.6466 46.9434 43.9157 45.5073 46.0437 42.1008ZM31.4436 50.1022C32.7363 46.9626 33.2446 45.9611 33.6351 45.784C34.0049 45.6162 34.2162 45.6513 35.1045 46.0282C35.5489 46.2168 36.3858 46.5643 36.9643 46.8005C39.0527 47.6531 39.7331 48.5634 39.5814 50.3014C39.564 50.4999 39.515 51.289 39.4723 52.0549C39.2214 56.5618 39.0801 56.6669 35.6028 54.9328C34.9532 54.6088 34.668 54.4557 33.796 53.9632C33.654 53.883 33.4797 53.7784 33.4088 53.7309C33.3378 53.6833 32.8144 53.3374 32.2457 52.9621C30.6662 51.9198 30.6779 51.9617 31.4436 50.1022ZM21.9727 52.6957C22.4324 50.8718 22.8615 50.1615 23.6257 49.9599C24.3612 49.7659 24.7058 49.9725 26.2246 51.5182C27.9736 53.2983 27.9588 53.2612 27.553 54.857C27.2207 56.164 26.8218 58.0549 26.6917 58.9403C26.5027 60.2269 25.888 60.469 24.749 59.7055C21.6287 57.6141 21.0815 56.2325 21.9727 52.6957ZM28.7912 59.3765C28.9727 57.9827 29.6029 55.2794 29.777 55.1476C29.9294 55.0323 30.1502 55.0589 30.3554 55.2174C31.8098 56.34 34.1148 57.6982 35.9351 58.5052C38.0744 59.4536 38.1008 60.4664 36.0611 63.3242C35.4528 64.1766 34.945 64.2997 33.5969 63.9217C29.3557 62.7327 28.4639 61.8893 28.7912 59.3765ZM26.3841 65.8143C25.0463 64.6101 23.8285 63.0523 22.9895 61.4718C22.8326 61.1763 22.7373 60.9541 22.7778 60.9782C22.8183 61.0021 23.1052 61.1975 23.4154 61.4123C24.2606 61.9975 25.2841 62.6399 26.238 63.1841L26.4755 63.3195L26.511 63.8688C26.5456 64.4031 26.6418 65.2007 26.7468 65.8225C26.8132 66.216 26.8309 66.2164 26.3841 65.8143ZM28.8143 65.3453C28.8146 65.165 28.9898 64.8806 29.1371 64.8214C29.3261 64.7455 29.4149 64.7597 29.9134 64.9455C30.6269 65.2113 31.9119 65.675 32.1278 65.7445C32.7227 65.9359 32.7612 66.3619 32.2125 66.6826C31.8241 66.9097 30.6599 67.4589 30.1047 67.6768L29.511 67.9099L29.4411 67.7445C29.2644 67.3271 28.8139 65.6027 28.8143 65.3453ZM34.2381 68.7724C35.1621 68.2649 36.1848 67.5861 36.8677 67.0272C37.0143 66.9073 37.0824 66.8846 37.229 66.9071C38.0856 67.0383 39.7253 67.1829 40.9391 67.2341L41.7839 67.2698L41.1714 67.5885C39.1461 68.6422 37.4175 69.0813 35.0768 69.1364C33.4943 69.1736 33.5018 69.1769 34.2381 68.7724Z" fill="#F3D6A3"/>
    <path fill-rule="evenodd" clip-rule="evenodd" d="M55.5605 9.43634C54.8909 9.52824 54.2393 9.65405 53.6235 9.81035L53.107 9.94146L50.9891 9.95204C44.9478 9.98223 40.7841 11.4882 37.1254 14.9664C33.3191 18.585 30.8125 23.9727 28.7251 33.0221C27.7067 37.4376 26.0666 40.6957 23.4651 43.4713C17.1687 50.189 16.7081 59.4211 22.3168 66.4852C26.3075 71.5114 32.9309 73.7766 38.7472 72.1043C42.4705 71.0338 45.7294 69.2157 47.6139 67.1577L47.9867 66.7505L48.6833 67.4226C55.8624 74.3483 66.2843 72.5554 67.1301 64.249C67.6882 58.7685 60.9462 53.3746 53.4557 53.309C52.9657 53.3047 52.5647 53.2984 52.5647 53.295C52.5592 52.9256 52.8515 50.7667 53.0111 49.9988C53.4408 47.9302 53.9384 46.8334 55.118 45.3547C64.0982 34.0975 66.2848 22.2247 60.8976 13.9729L60.5896 13.5011L60.6339 13.1221C60.9484 10.425 58.9475 8.97137 55.5605 9.43634ZM57.7683 10.9412C58.8868 11.172 59.2804 11.7872 59.1181 13.0504C59.0133 13.8659 59.0175 13.8869 59.3951 14.4309C63.5016 20.3475 63.2816 28.2953 58.769 37.047C56.0004 42.4165 52.2703 46.9298 48.8972 48.9916L48.4581 49.26L47.8124 49.2257C47.1613 49.1911 46.1259 49.099 45.1264 48.9867C43.708 48.8275 43.6389 48.896 43.4539 50.6438C43.4103 51.0553 43.3608 51.6126 43.3438 51.8822C43.2939 52.676 43.214 53.5383 43.162 53.843C43.039 54.5653 42.9992 55.4425 43.0813 55.6232C43.1071 55.68 43.123 55.7578 43.1166 55.7961C43.1102 55.8344 43.1295 55.8507 43.1595 55.8321C43.1907 55.8129 43.2028 55.8279 43.1876 55.8672C43.1732 55.9049 43.1928 55.9789 43.2313 56.0315L43.3013 56.1271L43.3045 55.9784C43.3062 55.8966 43.347 55.5394 43.3953 55.1846C43.4808 54.5559 43.5126 54.2433 43.6266 52.9142C43.7076 51.9676 43.8327 50.8124 43.888 50.4984C44.008 49.8174 44.3814 49.6685 45.5397 49.8397C45.8095 49.8796 46.2803 49.9287 46.5856 49.9488C47.0853 49.9816 47.1409 49.9952 47.1409 50.084C47.1409 50.7029 47.7164 50.7264 48.8283 50.1532C48.8898 50.1214 49.0119 50.1004 49.0995 50.1065C49.2097 50.1141 49.2587 50.0943 49.2587 50.0422C49.2587 50.0008 49.282 49.9812 49.3104 49.9988C49.3388 50.0163 49.362 49.9956 49.362 49.9527C49.362 49.9099 49.5188 49.7887 49.7107 49.6833C50.2647 49.3791 50.9538 48.951 51.4159 48.6238C51.6506 48.4577 51.85 48.3217 51.859 48.3217C51.868 48.3217 51.8094 48.5714 51.7286 48.8765C51.5003 49.7395 51.3373 50.6946 51.1957 51.9994C51.0189 53.6286 51.0434 53.5195 50.8454 53.5598C49.7565 53.7818 48.5229 54.3795 47.8529 55.0096L47.6276 55.2215L47.1592 55.2319C45.4626 55.2691 44.8701 56.1647 45.2959 58.0485C45.3757 58.4018 45.4011 58.6296 45.3765 58.7709C45.3567 58.8844 45.3239 59.2037 45.3035 59.4804C45.2733 59.8923 45.2516 59.9837 45.1836 59.9843C45.1156 59.985 45.1136 59.9933 45.1727 60.0307C45.3025 60.1128 45.198 60.2202 44.9757 60.2333C44.8582 60.2402 44.7338 60.2284 44.6993 60.2071C44.6335 60.1665 44.5667 60.1641 42.9828 60.1437C41.8683 60.1293 41.5107 60.2293 41.5107 60.5551C41.5107 60.578 41.3823 60.8685 41.2255 61.2007C41.0686 61.5328 40.9505 61.8148 40.9629 61.8272C40.9754 61.8396 40.9392 61.896 40.8825 61.9527C40.8259 62.0092 40.7927 62.0898 40.8087 62.1316C40.8248 62.1735 40.8191 62.196 40.796 62.1818C40.7375 62.1457 40.5193 62.609 40.5621 62.6781C40.582 62.7103 40.573 62.7196 40.5411 62.6999C40.3404 62.576 40.3323 63.7347 40.531 64.1374L40.6584 64.3954L40.6905 64.06C40.7275 63.6748 40.7491 63.6199 41.3344 62.4241C41.5734 61.9359 41.7689 61.5003 41.7689 61.4561C41.7689 61.3619 42.0374 61.0671 42.1232 61.0671C42.1556 61.0671 42.1822 61.0473 42.1822 61.0231C42.1822 60.9988 42.7923 60.9639 43.5381 60.9455C45.0359 60.9085 45.2155 60.8895 45.2431 60.765C45.2534 60.7183 45.2795 60.8427 45.3011 61.0413C45.4473 62.3891 46.0026 63.9097 46.7959 65.1347C47.1044 65.6111 47.1443 65.5064 46.3532 66.2958C44.3932 68.2515 41.2388 69.9344 38.024 70.7393C26.7343 73.566 16.5456 61.2592 20.9386 50.102C21.6888 48.1965 22.7534 46.5174 24.3028 44.7958C25.8461 43.081 26.7053 41.9192 27.5932 40.3465L27.6999 40.1576L27.7061 41.2178C27.7096 41.8009 27.7394 42.5577 27.7724 42.8996L27.8324 43.5213L27.5468 43.8366C27.3603 44.0425 27.272 44.18 27.2923 44.2328C27.311 44.2815 27.302 44.3006 27.2699 44.2808C27.1953 44.2348 27.0284 44.4307 27.0763 44.508C27.1003 44.5469 27.0936 44.5575 27.0586 44.5359C27.0275 44.5167 26.9783 44.5305 26.9493 44.5667C26.6956 44.8821 26.2631 45.3804 26.2194 45.4073C26.1896 45.4258 26.1793 45.4911 26.1966 45.5525C26.2197 45.6349 26.2146 45.6452 26.1775 45.5914C26.1053 45.4869 25.853 45.7781 25.8908 45.9223C25.9095 45.9932 25.9034 46.0047 25.8716 45.9591C25.7855 45.8358 25.6271 46.2966 25.6271 46.6705C25.6271 47.164 25.8599 47.6565 25.9259 47.3026C25.9405 47.2246 25.9646 47.1109 25.9795 47.0499C26.0114 46.9191 26.2196 46.5854 26.3622 46.4365C26.4649 46.3292 26.8691 45.8712 27.0669 45.6381C27.1273 45.567 27.2686 45.387 27.381 45.2382C27.4934 45.0894 27.6038 44.9677 27.6263 44.9677C27.6489 44.9677 27.6674 44.9213 27.6674 44.8645C27.6674 44.8077 27.6972 44.7613 27.7335 44.7613C27.7698 44.7613 27.8331 44.7149 27.874 44.6581C27.9653 44.5316 28.029 44.5254 28.029 44.6432C28.029 45.2956 28.4037 46.0513 28.7271 46.0513C29.1328 46.0513 29.2178 45.8027 29.064 45.0662C28.9497 44.519 28.8387 43.6256 28.8799 43.5844C28.8949 43.5695 28.9071 43.6192 28.9071 43.6949V43.8325H29.1112C29.6235 43.8325 30.1329 44.0283 30.7907 44.4782L31.1413 44.7179L31.1045 44.5221C31.0501 44.2327 30.9489 44.0679 30.7029 43.8685C30.3477 43.5806 29.8909 43.3089 29.8277 43.3479C29.7943 43.3686 29.7834 43.3611 29.8024 43.3305C29.8506 43.2526 29.3825 43.0667 29.0355 43.0259L28.7386 42.9911L28.7681 41.5154C28.8129 39.2762 29.0988 37.3676 29.6964 35.3184C29.8247 34.8785 30.0263 34.089 30.1444 33.5639C33.4445 18.8948 38.4981 12.7589 48.2773 11.5475C48.814 11.481 49.4742 11.4589 51.1441 11.4517L53.3136 11.4423L53.8301 11.31C55.4561 10.8934 56.8873 10.7594 57.7683 10.9412ZM54.1917 13.2612C53.466 13.5184 52.655 13.9828 52.7799 14.0695C52.8274 14.1024 52.8141 14.1075 52.7369 14.0859C52.6602 14.0645 52.6033 14.0857 52.5561 14.153C52.5182 14.2071 52.4639 14.2568 52.4355 14.2635C52.407 14.2701 52.3893 14.2956 52.3961 14.3201C52.4029 14.3447 52.3796 14.3538 52.3444 14.3405C52.3093 14.3272 52.2176 14.3687 52.1409 14.4327C52.0641 14.4967 51.7851 14.6986 51.521 14.8813C50.6144 15.5086 50.3228 15.7683 50.412 15.8689C50.4523 15.9143 50.44 15.9124 50.3754 15.8634L50.2783 15.7894L50.1016 15.9936C49.9664 16.1499 49.9319 16.2284 49.955 16.328C49.9747 16.4133 49.9691 16.4345 49.939 16.3894C49.8822 16.3044 49.8056 16.4595 49.8606 16.5483C49.8818 16.5826 49.8697 16.5879 49.8284 16.5624C49.7781 16.5313 49.7675 16.5663 49.7843 16.7093C49.7963 16.8125 49.7928 16.8969 49.7765 16.8969C49.7601 16.8969 49.7556 16.9896 49.7664 17.103C49.7785 17.23 49.8069 17.2963 49.8403 17.2756C49.8714 17.2564 49.8793 17.2668 49.8588 17.2999C49.8169 17.3676 50.0119 17.7741 50.0862 17.7741C50.1141 17.7741 50.1322 17.7567 50.1264 17.7354C50.0678 17.5186 50.4172 16.8519 50.705 16.6316C50.7923 16.5646 50.9439 16.4439 51.0419 16.3633C51.4167 16.0549 51.9733 15.6605 52.0351 15.6595C52.0707 15.6589 52.0997 15.6403 52.0997 15.618C52.0997 15.5957 52.1636 15.5398 52.2417 15.4937C52.3199 15.4475 52.6279 15.2313 52.9262 15.0131C53.7084 14.441 54.675 14.0072 55.1676 14.0072C55.2874 14.0072 55.3022 13.987 55.3022 13.8241C55.3022 13.2464 54.8625 13.0235 54.1917 13.2612ZM48.2257 13.4736C47.5636 13.5473 46.5943 13.6957 46.4587 13.7442L46.3705 13.7757L46.489 13.9818C46.5541 14.0951 46.6337 14.1823 46.6657 14.1756C46.6978 14.1688 46.7118 14.195 46.697 14.2336C46.6487 14.3592 46.899 14.5972 47.0151 14.5361C47.0701 14.5071 47.2662 14.467 47.4509 14.4469C47.8057 14.4082 48.0461 14.299 47.9869 14.2034C47.9654 14.1686 47.975 14.1607 48.0112 14.183C48.0619 14.2143 48.7876 13.6781 48.8659 13.5516C48.9416 13.4293 48.7903 13.4108 48.2257 13.4736ZM43.6801 14.6194C42.705 15.0265 41.6946 15.58 41.7533 15.675C41.7708 15.7033 41.7587 15.7099 41.7261 15.6897C41.6422 15.6379 40.4947 16.4354 40.5163 16.5305C40.5234 16.5617 40.5118 16.5845 40.4905 16.5812C40.3881 16.565 40.3562 16.594 40.4259 16.6398C40.4882 16.6808 40.4817 16.6883 40.3924 16.6777C40.2593 16.6621 39.2178 17.5967 39.2716 17.6836C39.2904 17.714 39.2813 17.7235 39.2512 17.705C39.1753 17.6581 38.3415 18.58 38.3895 18.6576C38.4127 18.6952 38.4053 18.7052 38.3704 18.6837C38.2987 18.6394 38.1868 18.8396 38.2261 18.9418C38.2421 18.9837 38.2334 19.0044 38.2067 18.9879C38.18 18.9714 38.1308 19.0492 38.0974 19.1607C38.0268 19.396 38.0751 19.8605 38.1645 19.8054C38.1984 19.7844 38.2059 19.7945 38.1833 19.8311C38.1628 19.8644 38.1981 19.976 38.2619 20.0791L38.3778 20.2665L38.462 19.9593C38.5511 19.634 38.7044 19.3781 38.8117 19.3753C38.8473 19.3744 38.8764 19.3447 38.8765 19.3092C38.8767 19.2738 38.9816 19.1292 39.1097 18.9881C39.2378 18.8469 39.3846 18.6843 39.4358 18.6269C39.5996 18.4429 40.507 17.5981 40.6843 17.4645C40.7785 17.3935 40.8809 17.3123 40.9119 17.2839C41.3099 16.9196 42.5249 16.1616 43.3702 15.7501C44.292 15.3013 44.4215 15.2505 44.7377 15.2134L45.0059 15.1819L45.2718 15.3557C45.4181 15.4512 45.5382 15.5486 45.5387 15.5718C45.5398 15.6204 45.6946 15.7853 45.6946 15.7379C45.6946 15.6193 45.5327 15.3471 45.4811 15.3789C45.4435 15.4021 45.4342 15.3942 45.4565 15.3579C45.5077 15.2752 45.2765 14.9785 45.1874 15.0126C45.138 15.0316 45.1248 15.0147 45.1459 14.9597C45.3313 14.4772 44.4891 14.2817 43.6801 14.6194ZM58.1236 17.3503C58.0739 17.9098 58 18.6214 57.9591 18.9318C57.8351 19.875 57.9104 20.2458 58.2265 20.2502C58.3201 20.2514 58.5314 18.5423 58.5661 17.5032C58.5725 17.3117 58.5953 17.1549 58.6169 17.1549C58.6702 17.1549 58.4849 16.7317 58.3353 16.5117L58.2138 16.3331L58.1236 17.3503ZM47.4244 18.438C47.2524 18.5161 46.9463 18.8001 46.3631 19.4228C45.9565 19.8569 45.084 20.9465 45.1097 20.9881C45.1277 21.0172 45.1207 21.0275 45.0943 21.0112C44.9812 20.9414 43.6971 22.6663 43.7533 22.8127C43.7692 22.854 43.7639 22.8766 43.7416 22.8629C43.6823 22.8262 43.4369 23.5231 43.3685 23.9221C43.3017 24.3124 43.3778 24.727 43.5787 25.0672C43.717 25.3014 43.7041 25.3139 43.7161 24.9332C43.7369 24.2722 44.2866 23.046 44.7394 22.6504C44.7718 22.622 44.9244 22.4362 45.0784 22.2376C45.2324 22.0389 45.3759 21.8686 45.3974 21.8592C45.4188 21.8497 45.4363 21.811 45.4363 21.7732C45.4363 21.7353 45.4544 21.6966 45.4765 21.6871C45.4985 21.6777 45.6639 21.4958 45.8439 21.2829C46.0239 21.0701 46.1997 20.8727 46.2345 20.8443C46.2693 20.816 46.3073 20.7644 46.319 20.7297C46.3734 20.5689 47.5692 19.3757 47.7765 19.2754C48.2489 19.0469 48.5828 19.1393 49.2341 19.6788C49.4941 19.8942 49.773 20.1168 49.8539 20.1735C49.9349 20.2303 50.0607 20.3248 50.1335 20.3837C50.2784 20.5006 50.863 20.8959 51.3507 21.2068C51.8241 21.5086 53.2493 22.2177 53.3245 22.1889C53.3611 22.1749 53.3913 22.1801 53.3915 22.2005C53.3917 22.2209 53.4493 22.2642 53.5196 22.2967L53.6473 22.3559L53.6262 22.1935C53.5969 21.9685 53.5436 21.846 53.4896 21.8793C53.4645 21.8948 53.4566 21.8745 53.4721 21.8341C53.5092 21.7373 53.107 21.4168 53 21.4578C52.9564 21.4745 52.9327 21.469 52.9472 21.4455C52.9832 21.3873 51.9964 20.9443 51.8673 20.9606C51.7959 20.9696 51.7845 20.9603 51.8304 20.9306C51.8769 20.9004 51.8309 20.8578 51.6771 20.7885C51.5563 20.7341 51.4492 20.7011 51.4392 20.7153C51.4291 20.7295 51.3979 20.7 51.3697 20.6498C51.3416 20.5995 51.2967 20.5718 51.2701 20.5883C51.2434 20.6048 51.2216 20.5944 51.2216 20.5652C51.2216 20.536 51.1829 20.527 51.1356 20.5451C51.0819 20.5657 51.0624 20.5575 51.0836 20.5233C51.103 20.4918 50.9587 20.3752 50.7434 20.2485C50.5376 20.1275 50.1299 19.8572 49.8374 19.6479C49.5449 19.4386 49.2829 19.2815 49.2551 19.2986C49.2273 19.3158 49.2109 19.3082 49.2187 19.2819C49.2335 19.232 48.3835 18.5053 48.1886 18.4011C48.0244 18.3133 47.6604 18.3309 47.4244 18.438ZM19.0154 21.2629C13.6906 22.2156 8.95061 27.5048 8.54663 32.9447L8.4834 33.7961L8.23944 34.1706C7.21902 35.7367 7.74837 36.9577 9.68885 37.5136C10.0172 37.6077 10.5588 37.8147 10.8922 37.9737C14.5732 39.7285 18.3748 39.147 22.4979 36.1985C26.1574 33.5816 27.9392 30.2422 27.1981 27.3896C26.0743 23.064 22.7713 20.5909 19.0154 21.2629ZM36.4501 21.9322C36.2241 22.0302 36.08 22.1587 36.1212 22.2253C36.1387 22.2536 36.1207 22.2656 36.0813 22.2521C35.9422 22.2043 34.9499 24.1427 35.0363 24.2935C35.0551 24.3263 35.0513 24.3359 35.028 24.3147C34.9559 24.2494 34.5133 25.3254 34.561 25.4498C34.5758 25.4882 34.5649 25.5054 34.5368 25.488C34.5087 25.4707 34.4857 25.4668 34.4857 25.4795C34.4857 25.4921 34.4149 25.6966 34.3284 25.934C33.2551 28.8783 32.9456 30.1694 33.2032 30.6273L33.3211 30.8369L33.3663 30.7169C33.3912 30.6509 33.4324 30.5566 33.458 30.5073C33.4834 30.458 33.5043 30.3911 33.5043 30.3584C33.5043 30.3259 33.6001 29.9947 33.7172 29.6225C34.2917 27.796 34.6251 26.847 34.7042 26.8128C34.7261 26.8034 34.744 26.7503 34.744 26.6949C34.744 26.5685 35.1521 25.5226 35.4199 24.9625C35.5311 24.7301 35.6221 24.5227 35.6221 24.5017C35.6221 24.3937 36.2787 23.1743 36.4079 23.0422C37.1083 22.3266 38.1347 22.6893 39.1142 23.9986C39.3424 24.3036 39.3928 24.3504 39.3928 24.2574C39.3928 24.2148 39.3619 24.1491 39.3241 24.1113C39.2863 24.0736 39.2653 24.0131 39.2773 23.977C39.3137 23.8679 38.5915 23.0158 38.5069 23.068C38.4835 23.0825 38.4761 23.0635 38.4906 23.0258C38.5051 22.9881 38.42 22.865 38.3016 22.7522C38.1788 22.6352 38.1004 22.5871 38.1191 22.6402C38.1394 22.6975 38.1316 22.7205 38.0988 22.7003C38.0696 22.6823 38.0583 22.6277 38.0738 22.579C38.1078 22.4719 37.7776 22.1308 37.6915 22.184C37.6599 22.2035 37.6404 22.1916 37.6482 22.1576C37.6994 21.9346 36.8245 21.7701 36.4501 21.9322ZM59.4087 22.3998C58.7588 22.4747 58.1829 22.6916 57.8 23.0059C57.66 23.1208 57.634 23.166 57.687 23.2028C57.7339 23.2354 57.7188 23.2402 57.6396 23.2179C57.5328 23.1878 57.4725 23.2583 57.5621 23.3084C57.5834 23.3203 57.5742 23.3239 57.5417 23.3164C57.3867 23.2807 56.9607 23.9526 56.7209 24.6112C56.2898 25.7952 56.1282 26.2974 56.1613 26.3508C56.1806 26.3819 56.174 26.3936 56.1466 26.3767C56.1028 26.3496 55.8326 27.0986 55.744 27.4929C55.7033 27.6741 55.8328 28.126 55.9756 28.3007C56.0386 28.3778 56.077 28.3985 56.0711 28.3523C56.0656 28.3097 56.0996 28.1885 56.1466 28.083C56.1936 27.9775 56.232 27.8692 56.232 27.8423C56.232 27.7983 56.4865 27.0856 56.5934 26.83C56.6172 26.7733 56.6482 26.6804 56.6624 26.6236C56.7291 26.3565 57.2104 25.107 57.3084 24.9466C57.3691 24.8473 57.4398 24.7196 57.4655 24.6628C57.5564 24.4622 57.8376 24.1548 58.1563 23.9077C58.6351 23.5366 59.0944 23.3784 60.0157 23.2671L60.261 23.2374V23.0414C60.261 22.9336 60.2462 22.7376 60.2282 22.606L60.1953 22.3666L59.8795 22.3743C59.7058 22.3785 59.494 22.39 59.4087 22.3998ZM20.6705 23.5006C21.3017 23.5826 21.7746 23.8629 21.9885 24.2817C22.2992 24.8901 22.0221 25.1548 20.1776 26.0123C19.0734 26.5255 17.8931 27.1688 17.5595 27.4391C17.4795 27.5038 17.3444 27.6 17.2591 27.6528C17.038 27.7896 16.2614 28.4034 15.6579 28.9183C13.8351 30.4734 13.1861 30.6878 12.7894 29.8657C11.6749 27.5563 17.2472 23.056 20.6705 23.5006ZM42.2616 27.0654C42.2892 27.1101 42.2787 27.1223 42.2289 27.1032C41.9826 27.0088 41.3286 27.5179 41.0735 28.0027C40.9217 28.2911 40.5678 29.2811 40.6165 29.2811C40.6323 29.2811 40.6184 29.3134 40.5856 29.3528C40.5528 29.3923 40.5209 29.4968 40.5147 29.5849C40.5085 29.6731 40.4892 29.7453 40.4718 29.7454C40.4545 29.7454 40.3877 29.937 40.3234 30.1712C40.2592 30.4053 40.1274 30.828 40.0306 31.1104C39.9338 31.3928 39.8682 31.6591 39.8847 31.7022C39.9013 31.7453 39.8979 31.7636 39.8772 31.7429C39.8168 31.6827 39.5318 32.516 39.584 32.6003C39.6028 32.6306 39.5884 32.6344 39.5483 32.6096C39.4978 32.5785 39.4876 32.6016 39.507 32.7033C39.5213 32.7776 39.5153 32.8275 39.4937 32.8142C39.424 32.7711 39.2379 33.4936 39.2387 33.8041C39.2393 34.0297 39.2531 34.0862 39.2937 34.0283C39.3362 33.9678 39.3409 33.9762 39.3153 34.067C39.2709 34.2247 39.335 34.4307 39.3977 34.3319C39.4298 34.2812 39.4432 34.3025 39.4437 34.4055C39.4448 34.6098 39.5317 34.5325 39.5627 34.2995C39.5859 34.1255 39.7579 33.5949 40.0519 32.7899C40.1089 32.6338 40.2776 32.123 40.4267 31.6547C41.37 28.6932 41.4802 28.4439 41.9654 28.1748C42.8896 27.6621 43.3095 27.6899 44.4074 28.3358C44.8329 28.5862 46.7857 29.5639 47.5542 29.9113C47.8714 30.0547 47.9743 30.0793 48.1224 30.0467C48.2218 30.0249 48.3303 30.0163 48.3634 30.0278C48.3966 30.0392 48.4366 30.0152 48.4522 29.9744C48.4679 29.9337 48.4633 29.9003 48.4419 29.9003C48.4206 29.9003 48.3981 29.839 48.3919 29.764C48.3769 29.5827 48.3225 29.5486 47.4509 29.1733C47.0389 28.9959 46.6731 28.8289 46.638 28.8022C46.6028 28.7754 46.5377 28.7674 46.4932 28.7845C46.4488 28.8015 46.4223 28.7983 46.4345 28.7774C46.4466 28.7564 46.1168 28.5767 45.7016 28.3781C45.2863 28.1794 44.7413 27.9063 44.4903 27.7711C44.2393 27.6359 44.0088 27.5408 43.9782 27.5598C43.9473 27.5788 43.9372 27.5703 43.9555 27.5407C43.9744 27.5101 43.7983 27.3909 43.5436 27.2619L43.0986 27.0364L42.6597 27.018C42.3132 27.0034 42.2294 27.0134 42.2616 27.0654ZM48.4971 29.7901C48.5424 29.8572 48.5671 29.9443 48.552 29.9836C48.5369 30.0229 48.5503 30.0551 48.5817 30.0551C48.6132 30.0551 48.6389 30.0926 48.6389 30.1385C48.6389 30.2016 48.6106 30.2129 48.5227 30.1847C48.1185 30.0553 48.0595 30.1096 48.4178 30.2813C48.6228 30.3795 48.8494 30.5187 48.9214 30.5906C49.027 30.6961 49.0517 30.7043 49.0498 30.6333C49.0466 30.5132 48.9071 30.2163 48.8993 30.3131C48.8959 30.3557 48.8603 30.315 48.8201 30.2228C48.78 30.1305 48.7204 30.0551 48.6875 30.0551C48.6547 30.0551 48.6403 30.0227 48.6555 29.9831C48.6707 29.9436 48.6227 29.8566 48.5489 29.7896L48.4148 29.6681L48.4971 29.7901ZM58.8922 30.4972C58.5797 30.5342 57.7313 30.6013 57.0068 30.6463C55.3028 30.7523 54.4805 30.9309 54.5599 31.1779C54.582 31.2463 54.577 31.2511 54.5388 31.1978C54.393 30.9939 53.1829 32.3208 53.317 32.5375C53.3336 32.5642 53.3163 32.5797 53.2786 32.5719C53.2408 32.5641 53.2134 32.5978 53.2173 32.6474C53.2212 32.6968 53.205 32.7252 53.1812 32.7105C53.1205 32.673 53.0169 32.8826 53.0609 32.9537C53.0825 32.9887 53.0741 32.9981 53.0401 32.9771C53.0084 32.9575 52.9557 32.9942 52.9217 33.0594C52.8228 33.2492 52.2107 34.2233 51.8845 34.7101C51.5851 35.1566 51.5364 35.2501 51.6343 35.1897C51.6641 35.1713 51.6718 35.1933 51.6528 35.2426C51.6321 35.2965 51.608 35.3068 51.5858 35.2711C51.5661 35.2391 51.4582 35.3499 51.3344 35.5291C51.2151 35.7017 51.1329 35.8678 51.1517 35.8982C51.1716 35.9303 51.1616 35.9385 51.128 35.9177C51.0484 35.8686 50.7842 36.2452 50.6536 36.5939C50.5133 36.9686 50.5408 37.4449 50.7203 37.7456L50.8453 37.955L50.8758 37.7332C50.9047 37.5236 51.0422 37.1808 51.1199 37.1244C51.1395 37.1102 51.1962 37.0194 51.2459 36.9226C51.2955 36.8258 51.3924 36.6864 51.4612 36.613C51.5299 36.5395 51.6726 36.3469 51.7784 36.1849C51.884 36.023 51.9996 35.8894 52.0351 35.8882C52.0707 35.8869 52.0997 35.8474 52.0997 35.8002C52.0997 35.7244 52.3814 35.2311 52.4633 35.1636C52.4805 35.1494 52.6878 34.8243 52.9241 34.4411C53.1603 34.058 53.4318 33.623 53.5273 33.4744C53.6228 33.3258 53.701 33.1897 53.701 33.1717C53.701 33.1049 54.0925 32.6023 54.2934 32.4113C54.9644 31.7732 55.5328 31.5898 57.0326 31.5277C57.4304 31.5111 58.0231 31.4738 58.3498 31.4446C58.6765 31.4154 59.0131 31.3853 59.0978 31.3779L59.2517 31.3643L59.3629 31.0322C59.5074 30.6003 59.5493 30.4146 59.5001 30.4232C59.4783 30.427 59.2047 30.4603 58.8922 30.4972ZM32.6778 33.513C32.6778 33.5444 32.6546 33.5557 32.6263 33.5382C32.5652 33.5005 32.26 33.6695 32.293 33.7228C32.3055 33.743 32.2809 33.7728 32.2385 33.7891C32.196 33.8054 32.1613 33.8556 32.1613 33.9008C32.1613 33.9459 32.1397 33.9695 32.1134 33.9532C32.0566 33.9182 32.0563 33.9193 31.8535 34.7677C31.7665 35.1318 31.7108 35.4546 31.7297 35.4852C31.7491 35.5167 31.74 35.5259 31.7086 35.5065C31.6754 35.486 31.639 35.5397 31.6178 35.6404C31.5801 35.8201 31.1483 37.1841 31.0745 37.3566C30.9769 37.5851 30.7041 38.2887 30.6945 38.337C30.6888 38.3654 30.6587 38.435 30.6275 38.4918C30.4883 38.745 30.2467 39.4507 30.2804 39.5053C30.3022 39.5405 30.2954 39.5518 30.2639 39.5324C30.1947 39.4896 30.1272 40.0087 30.1726 40.2345C30.2306 40.5222 30.2561 40.584 30.3049 40.5539C30.3309 40.5378 30.3403 40.5556 30.3258 40.5933C30.3114 40.6311 30.3363 40.7077 30.3814 40.7637C30.4334 40.8284 30.4556 40.8373 30.4423 40.788C30.4084 40.6625 30.706 39.7628 30.9459 39.2658C31.1964 38.7468 31.8173 36.792 32.3226 34.9313C32.5608 34.054 33.5906 34.1382 34.6756 35.1239C34.7374 35.18 34.8127 35.2107 34.8429 35.1921C34.8776 35.1706 34.8852 35.1908 34.8636 35.2472C34.8374 35.3155 34.8496 35.3285 34.9158 35.3031C34.9702 35.2823 35.0023 35.2957 35.0023 35.3395C35.0023 35.3776 35.0371 35.4378 35.0797 35.4732C35.299 35.6549 35.0516 35.0445 34.783 34.7407C34.2827 34.1751 32.6778 33.2392 32.6778 33.513ZM38.0881 36.9886C37.7794 37.1036 37.3189 37.6574 37.4098 37.8043C37.4336 37.8428 37.4226 37.8483 37.3776 37.8205C37.3275 37.7896 37.3182 37.802 37.3432 37.8668C37.3619 37.9155 37.3561 37.9423 37.3302 37.9264C37.2686 37.8883 37.1534 38.2398 37.2018 38.3182C37.227 38.3588 37.2169 38.3649 37.1709 38.3365C37.1208 38.3056 37.1116 38.318 37.1365 38.3828C37.1559 38.4332 37.1495 38.4584 37.1217 38.4412C37.0948 38.4246 37.0363 38.4814 36.9918 38.5675C36.9472 38.6536 36.9266 38.724 36.9459 38.724C36.9653 38.724 36.9469 38.7647 36.9052 38.8143C36.7585 38.9887 36.1872 40.1737 36.2224 40.2305C36.2427 40.2633 36.2347 40.2736 36.2037 40.2545C36.1566 40.2254 36.0791 40.328 36.0656 40.4371C36.0632 40.457 36.0321 40.5023 35.9966 40.5378C35.9611 40.5732 35.932 40.6186 35.932 40.6386C35.932 40.6587 35.7199 41.1112 35.4607 41.6443C34.9458 42.703 34.8816 42.9486 35.0284 43.2993C35.0945 43.4574 35.1206 43.4806 35.163 43.4188C35.2033 43.3602 35.208 43.3695 35.1829 43.4584C35.165 43.5222 35.1726 43.5745 35.1999 43.5745C35.2667 43.5745 35.3209 43.4238 35.2786 43.3554C35.2585 43.3231 35.2691 43.3156 35.3042 43.3374C35.3381 43.3583 35.3638 43.3439 35.3638 43.304C35.3638 43.2067 35.4846 42.9561 35.5317 42.9557C35.553 42.9555 35.5705 42.9269 35.5705 42.8922C35.5705 42.8098 37.131 39.6839 37.1833 39.6614C37.2053 39.6519 37.2234 39.611 37.2234 39.5705C37.2234 39.5299 37.3512 39.2439 37.5075 38.9349C37.6637 38.626 37.7922 38.3534 37.7931 38.3293C37.7954 38.2615 38.0606 37.9872 38.2319 37.8756C38.6332 37.6139 38.9577 37.6628 39.9869 38.1403C41.1503 38.6801 42.6772 39.3432 42.7567 39.3432C42.7827 39.3432 42.794 39.2909 42.7818 39.2271C42.7448 39.0338 42.6904 38.9294 42.6422 38.9592C42.6171 38.9747 42.61 38.9525 42.6263 38.91C42.701 38.7156 40.3305 37.4944 39.8233 37.466C39.7618 37.4626 39.7218 37.4494 39.7345 37.4367C39.9145 37.2568 38.443 36.8563 38.0881 36.9886ZM47.7389 40.2045C47.6249 40.223 47.6059 40.2404 47.6614 40.2755C47.7159 40.31 47.6998 40.3222 47.5988 40.3229C47.3233 40.3245 46.9193 40.65 46.8499 40.9265C46.8301 41.0049 46.7723 41.1045 46.7214 41.1478C46.6705 41.1912 46.622 41.2615 46.6136 41.304C46.6054 41.3466 46.5563 41.4129 46.5047 41.4513C46.4531 41.4897 46.4238 41.5548 46.4395 41.5959C46.4553 41.637 46.4464 41.6571 46.4198 41.6407C46.3612 41.6045 46.2563 41.7852 46.2804 41.8808C46.2898 41.9183 46.287 41.9294 46.2742 41.9053C46.2614 41.8812 46.2084 41.9262 46.1565 42.0053C46.1045 42.0844 46.0738 42.1679 46.088 42.191C46.1023 42.214 46.0915 42.2329 46.0642 42.2329C45.9802 42.2329 45.6937 42.7884 45.7261 42.8886C45.7475 42.9548 45.7423 42.9621 45.708 42.9144C45.6511 42.8353 45.3158 43.5244 45.0976 44.169C44.8893 44.7842 44.9235 45.5599 45.1734 45.8901L45.2556 45.9986L45.2623 45.7133C45.2699 45.3958 45.3736 44.9677 45.4431 44.9677C45.4678 44.9677 45.488 44.9122 45.488 44.8444C45.488 44.7143 46.1557 43.3257 46.4008 42.9461C46.48 42.8234 46.5685 42.683 46.5975 42.6341C47.5599 41.0099 47.7344 40.9067 49.1404 41.1298C50.0447 41.2733 51.5559 41.4435 52.2805 41.4835C52.5646 41.4991 53.0207 41.5248 53.2941 41.5406L53.7913 41.5694L54.0317 41.2536C54.1639 41.0799 54.2581 40.9151 54.241 40.8874C54.2239 40.8598 54.2377 40.8435 54.2718 40.8512C54.3058 40.859 54.343 40.8406 54.3543 40.8102C54.3683 40.7727 53.9149 40.735 52.9403 40.6928C51.4955 40.6303 50.5354 40.5483 49.4945 40.3986C49.1838 40.3538 48.87 40.331 48.7972 40.3478C48.7109 40.3677 48.6887 40.3623 48.7336 40.3324C48.8331 40.266 48.0112 40.1603 47.7389 40.2045ZM34.2487 45.8541L34.3275 45.9665L34.2277 46.0363C34.1276 46.1064 33.9175 46.0383 33.9175 45.9357C33.9175 45.9142 33.8846 45.8965 33.8443 45.8965C33.8041 45.8965 33.7619 45.8686 33.7505 45.8346C33.7037 45.6944 33.3769 45.9742 33.2007 46.3053C33.1048 46.4856 33.0493 46.6189 33.0775 46.6015C33.1471 46.5585 33.1261 47.0488 33.0463 47.3284C33.0119 47.4491 32.965 47.5477 32.942 47.5477C32.9191 47.5477 32.8171 47.6284 32.7154 47.727C32.6052 47.8341 32.5223 47.8815 32.5101 47.8447C32.4765 47.7441 31.7927 49.2355 31.7808 49.4354C31.777 49.4986 31.7598 49.5416 31.7427 49.531C31.706 49.5084 31.4209 50.1978 31.4209 50.3094C31.4209 50.3514 31.3991 50.3858 31.3723 50.3858C31.3456 50.3858 31.3376 50.4218 31.3546 50.4659C31.3722 50.5118 31.3635 50.5325 31.3343 50.5144C31.3062 50.4971 31.2832 50.5094 31.2832 50.5418C31.2832 50.5743 31.2134 50.7747 31.1282 50.9874C30.9549 51.4199 30.9335 51.7056 31.0555 51.9623C31.1474 52.1558 31.3293 52.3407 31.2687 52.1789C31.25 52.1292 31.2556 52.0886 31.2811 52.0886C31.3066 52.0886 31.377 51.9551 31.4375 51.7919C31.6262 51.2835 32.0641 50.2138 32.161 50.0246C32.2119 49.9252 32.3648 49.5769 32.5007 49.2506C32.7514 48.6484 33.1955 47.6819 33.4371 47.2123C33.7935 46.5196 34.3168 46.3933 35.1666 46.7948C35.4313 46.9199 35.892 47.1199 36.1903 47.2393C37.7485 47.8631 38.2885 48.0989 38.6309 48.3051C38.7943 48.4035 38.928 48.5055 38.928 48.5319C38.928 48.6032 39.0697 48.5898 39.1039 48.5152C39.1203 48.4798 39.1214 48.5006 39.1064 48.5617C39.0879 48.6373 39.1169 48.7029 39.1979 48.7681C39.2631 48.8206 39.3454 48.9216 39.3808 48.9926L39.4451 49.1216L39.4134 48.9926C39.3186 48.6063 38.8364 47.8573 38.6826 47.8573C38.6376 47.8573 38.6165 47.8416 38.6357 47.8225C38.6549 47.8033 38.6199 47.7336 38.5579 47.6677C38.4414 47.5438 38.3254 47.502 38.3905 47.6073C38.4135 47.6445 38.4046 47.6528 38.3669 47.6295C38.3336 47.609 38.3185 47.5727 38.3333 47.5487C38.3769 47.4783 37.9406 47.2613 36.9176 46.8449C35.7979 46.389 35.9465 46.451 35.0204 46.0546C34.2089 45.7071 34.1316 45.6871 34.2487 45.8541ZM23.6039 50.0193C23.0417 50.1639 22.2928 51.1148 22.4334 51.5055C22.4518 51.5566 22.4472 51.5806 22.4233 51.5588C22.3667 51.5074 22.2773 51.7251 22.0914 52.367C21.6205 53.9935 21.5028 55.9173 21.8256 56.7121L21.9282 56.9649L21.9311 56.2941C21.9377 54.7724 22.3886 52.744 22.9749 51.5984C23.4139 50.7405 24.6046 50.5418 25.3533 51.2015C25.5176 51.3462 26.2887 52.1259 27.221 53.0899C27.7357 53.6221 27.8076 53.6593 27.6802 53.327C27.6638 53.2844 27.6474 53.238 27.6435 53.2238C27.5893 53.024 27.5452 52.962 27.4762 52.9885C27.4204 53.0098 27.4067 52.9951 27.4288 52.9376C27.4779 52.8096 26.8582 52.1922 26.7839 52.295C26.7377 52.3588 26.7335 52.3553 26.7598 52.2748C26.7929 52.1735 26.2021 51.5305 26.104 51.561C26.079 51.5688 26.0706 51.5555 26.0856 51.5314C26.1243 51.4688 25.3207 50.6841 25.2674 50.7325C25.243 50.7547 25.2411 50.7418 25.263 50.7038C25.2888 50.6593 25.2423 50.5724 25.132 50.4587C24.9427 50.2635 24.8052 50.2154 24.9605 50.3987L25.0589 50.5148L24.9447 50.4183C24.8819 50.3653 24.8354 50.2956 24.8414 50.2635C24.848 50.228 24.7878 50.2101 24.6873 50.2179C24.5966 50.2248 24.5094 50.2096 24.4935 50.184C24.4777 50.1584 24.517 50.1482 24.581 50.1614C24.6809 50.1819 24.6772 50.1737 24.5546 50.103C24.388 50.0068 23.84 49.9586 23.6039 50.0193ZM29.8369 55.1846C29.7714 55.2414 29.7346 55.2878 29.7552 55.2878C29.7758 55.2878 29.7601 55.3204 29.7203 55.36C29.6371 55.4432 29.2383 57.0274 29.0164 58.1563C28.7169 59.6803 28.6795 60.6926 28.9021 61.2477L29.0056 61.5057L29.009 61.1187C29.0178 60.0999 29.8372 56.217 30.0843 56.0232C30.2061 55.9276 30.4683 55.9449 30.6134 56.058C30.9577 56.3264 31.2357 56.5263 31.2646 56.5263C31.2824 56.5263 31.5204 56.685 31.7936 56.8791C32.9345 57.6892 35.4283 59.1052 36.0353 59.2876C36.2259 59.3448 37.0742 59.7755 37.1547 59.8559C37.1928 59.894 37.2679 59.939 37.3214 59.9561C37.375 59.973 37.4321 60.0374 37.4482 60.099C37.4643 60.1608 37.4909 60.1979 37.5072 60.1816C37.5541 60.1347 37.3525 59.6656 37.3049 59.7108C37.2814 59.7331 37.2758 59.7049 37.2923 59.6481C37.3273 59.5284 37.2044 59.338 37.1241 59.3876C37.0922 59.4073 37.0811 59.3912 37.0974 59.3488C37.1624 59.1795 36.6388 58.8528 35.5802 58.4022C35.2765 58.2729 34.9993 58.1436 34.9642 58.1149C34.929 58.0863 34.86 58.0782 34.8108 58.097C34.7616 58.1159 34.7382 58.1145 34.7588 58.0939C34.8089 58.0439 34.0135 57.606 33.9278 57.6365C33.8908 57.6496 33.874 57.6385 33.8905 57.6119C33.9303 57.5475 33.725 57.4403 33.6502 57.4865C33.6116 57.5103 33.6061 57.4993 33.6339 57.4543C33.6646 57.4048 33.6527 57.395 33.5909 57.4186C33.5439 57.4367 33.5111 57.4307 33.5178 57.4055C33.5246 57.3803 33.2744 57.2046 32.9619 57.0152C32.6494 56.8258 32.3571 56.6383 32.3122 56.5986C32.2673 56.5588 32.2142 56.5263 32.1943 56.5263C32.1568 56.5263 31.0712 55.8114 31.0249 55.7563C30.9295 55.6425 30.55 55.4489 30.4719 55.4741C30.4067 55.4951 30.3988 55.4899 30.445 55.4566C30.5415 55.3871 30.3478 55.2236 30.2189 55.2657C30.1406 55.2912 30.1362 55.2869 30.1967 55.2441C30.2588 55.2002 30.2467 55.1808 30.1288 55.136C29.9495 55.0679 29.9769 55.0634 29.8369 55.1846ZM55.5605 55.4765C59.4431 55.9953 63.4239 58.5498 62.8906 60.1804C62.7506 60.6084 62.397 60.7096 61.78 60.4982C61.4888 60.3984 59.9003 59.6362 59.652 59.4771C58.5312 58.7589 56.0394 58.0031 53.8559 57.7192C53.0124 57.6095 52.3307 57.5048 52.1514 57.4575C51.6328 57.3205 51.5285 57.2784 51.3567 57.137C51.1995 57.0075 51.1699 56.9508 51.1699 56.7789C51.1699 55.6524 52.9422 55.1266 55.5605 55.4765ZM22.8738 61.1978C22.9049 61.2661 22.9538 61.3074 22.9824 61.2897C23.0114 61.2718 23.0187 61.2832 22.9988 61.3154C22.961 61.3764 23.1345 61.7594 23.2253 61.8154C23.2546 61.8335 23.2627 61.8739 23.2434 61.9051C23.221 61.9412 23.2384 61.9503 23.2915 61.9299C23.3529 61.9064 23.3664 61.92 23.3429 61.9812C23.3225 62.0343 23.3315 62.0517 23.3678 62.0293C23.3991 62.01 23.4553 62.0377 23.4928 62.091C23.5303 62.1442 23.7701 62.3266 24.0258 62.4964C24.7054 62.9477 26.0575 63.802 26.0921 63.802C26.1085 63.802 26.1905 63.8526 26.2742 63.9144C26.4706 64.0595 26.4861 64.0367 26.4469 63.6614L26.4142 63.349L26.2014 63.2311C25.6787 62.9415 24.4939 62.2077 23.9083 61.8108C23.247 61.3625 23.1934 61.3322 23.2562 61.4412C23.2778 61.4787 23.2737 61.4877 23.2463 61.4628C23.2205 61.4391 23.1993 61.4002 23.1993 61.3763C23.1993 61.3524 23.1133 61.2746 23.0083 61.2034L22.8172 61.0738L22.8738 61.1978ZM29.1423 64.8812C29.1262 64.9072 29.1423 64.9405 29.178 64.9553C29.2137 64.9701 29.1858 64.9779 29.1161 64.9726C28.7964 64.9483 28.8068 65.5527 29.1467 66.7548C29.3221 67.375 29.3595 67.3806 29.2131 66.7647C28.9457 65.6399 29.3247 65.4348 30.6375 65.9937C30.7227 66.03 31.1377 66.1814 31.5597 66.3301L32.327 66.6006L32.4335 66.4942C32.7653 66.1628 32.5539 65.9551 31.5156 65.5922C30.7474 65.3236 30.4746 65.224 29.7343 64.942C29.4346 64.8278 29.1908 64.8028 29.1423 64.8812ZM36.7214 67.2038C36.5447 67.3402 36.415 67.4665 36.433 67.4845C36.451 67.5025 36.427 67.5172 36.3797 67.5172C36.3323 67.5172 36.2936 67.5418 36.2936 67.5719C36.2936 67.6019 36.2704 67.6122 36.242 67.5946C36.2135 67.5771 36.1903 67.5831 36.1903 67.6079C36.1903 67.6327 36.0978 67.7049 35.9847 67.7684C35.8716 67.8319 35.7595 67.9189 35.7355 67.9618C35.7115 68.0046 35.6587 68.0448 35.6182 68.051C35.4796 68.0722 34.957 68.4147 34.9876 68.4641C35.0045 68.4913 34.9914 68.497 34.9585 68.4767C34.8869 68.4325 34.2694 68.8014 34.3087 68.8649C34.3238 68.8893 34.2967 68.8941 34.2485 68.8757C34.197 68.856 34.1373 68.874 34.1037 68.9193C34.0723 68.9618 33.9769 69.016 33.8917 69.0399C33.7569 69.0775 33.7872 69.0891 34.1241 69.1289C34.622 69.1877 35.5329 69.1519 35.5594 69.0726C35.5702 69.0402 35.6038 69.0136 35.634 69.0136C35.7122 69.0136 36.4569 68.5029 37.046 68.0454C37.2493 67.8875 37.4299 67.7843 37.4774 67.799C37.5382 67.8177 40.039 68.0848 40.154 68.0848C40.1649 68.0848 40.1572 68.058 40.1369 68.0252C40.1143 67.9887 40.1227 67.9797 40.1586 68.0019C40.2528 68.06 40.4573 67.931 40.3683 67.8695C40.316 67.8334 40.3258 67.8281 40.4046 67.85C40.5576 67.8926 41.0325 67.6783 40.9366 67.6101C40.8827 67.5717 40.8895 67.5671 40.9641 67.5915C41.0506 67.6198 41.6439 67.3752 41.5986 67.3299C41.5901 67.3213 41.3285 67.3019 41.0174 67.2868C39.7657 67.2256 39.376 67.1982 38.3856 67.1015C37.8174 67.0461 37.2828 66.9906 37.1975 66.9783C37.0729 66.9602 36.9797 67.0044 36.7214 67.2038Z" fill="#CF743D"/>
    <path fill-rule="evenodd" clip-rule="evenodd" d="M55.6659 9.43116C54.9578 9.52187 54.3153 9.64273 53.6762 9.80556L53.1594 9.93726L51.0405 9.94878C39.044 10.0139 32.5763 16.4948 28.9488 32.0854C28.4443 34.2536 28.2816 34.8859 28.043 35.6066C27.0926 38.4775 25.4627 41.3421 23.708 43.2253C23.0633 43.9172 22.9295 44.0693 22.4814 44.6192C11.8069 57.7193 24.0384 76.9402 39.7742 71.7935C43.0425 70.7246 45.6932 69.1679 47.5529 67.225L47.993 66.7651L48.5866 67.3472C55.4366 74.0641 65.3394 72.8649 67.0158 65.1155C68.2662 59.3351 61.3336 53.3443 53.3939 53.3443H52.565L52.5659 53.254C52.592 50.3912 53.5939 47.254 55.068 45.4195C64.0491 34.2424 66.2707 22.3177 60.9196 14.0099L60.6075 13.5254L60.6214 12.7963C60.6705 10.2141 58.9065 9.01617 55.6659 9.43116ZM57.7915 10.929C58.9677 11.178 59.2697 11.7586 59.1092 13.4618L59.0654 13.9265L59.4024 14.4205C62.7394 19.3121 63.2369 25.1845 60.9026 32.1253C59.5148 36.2516 56.5069 41.5218 53.7302 44.692C53.5583 44.8882 53.3045 45.1786 53.1661 45.3373C51.6284 47.1014 49.9481 48.4664 48.1367 49.423C47.2326 49.9004 47.1943 49.9321 47.192 50.2042C47.1852 50.9851 49.1354 50.2475 51.474 48.5846C51.8419 48.323 51.9023 48.2946 51.8736 48.3968C51.5228 49.6448 51.3644 50.5221 51.1768 52.2559L51.0405 53.5165L50.9113 53.554C49.3678 54.0016 48.5973 54.3731 47.8796 55.0157L47.6296 55.2395L47.0611 55.2673C45.4624 55.3455 44.8363 56.3785 45.3163 58.1457C45.3986 58.4486 45.4119 58.5892 45.3776 58.7911C45.0304 60.8297 45.5453 63.1524 46.7809 65.1219C47.1067 65.6413 47.1485 65.5327 46.2988 66.374C42.5231 70.1123 36.2303 71.9927 31.4937 70.7981C19.8453 67.8603 16.1332 53.7045 24.5862 44.4573C25.7945 43.1356 26.5604 42.0938 27.4276 40.5923L27.681 40.1534L27.7138 41.4958C27.7577 43.294 27.8077 43.7401 28.1066 45.0044C28.3183 45.8997 28.446 46.1056 28.752 46.0444C29.0694 45.981 29.2022 45.7344 29.1024 45.3937C28.9543 44.888 28.7899 43.5584 28.7226 42.3218C28.6622 41.211 28.8494 39.1864 29.1762 37.417C29.3656 36.3916 29.3863 36.3051 29.6835 35.3004C29.7842 34.9597 29.9645 34.2511 30.0842 33.7258C33.8048 17.3889 39.6975 11.2475 51.4719 11.4356L53.1077 11.4617L53.7028 11.3154C55.4199 10.8931 56.9423 10.7492 57.7915 10.929ZM19.226 21.2339C13.7972 21.9885 8.78268 27.6386 8.51343 33.3043L8.49053 33.7863L8.31063 34.0569C7.19656 35.7332 7.7022 36.9956 9.69629 37.5165C9.98053 37.5908 10.4573 37.7702 10.7557 37.9153C14.0328 39.508 17.1486 39.3074 20.7935 37.2691C25.2278 34.7895 27.9113 30.8488 27.2672 27.7628C26.3591 23.4128 23.0251 20.7058 19.226 21.2339ZM21.0918 22.4966C22.8761 22.8099 24.2787 23.9302 25.2418 25.8113C25.5508 26.4148 25.953 27.5443 25.9669 27.8478C25.9717 27.9514 25.9898 28.0275 26.0073 28.0169C26.0503 27.9908 26.1038 28.4623 26.1042 28.8728C26.1049 29.4536 25.6294 31.0531 25.4829 30.9626C25.4607 30.9489 25.4533 30.9787 25.4664 31.0288C25.4797 31.0798 25.4014 31.2559 25.2884 31.429C25.1774 31.599 25.0008 31.8712 24.896 32.0338C24.2647 33.0133 21.8982 35.2925 21.6632 35.1473C21.6328 35.1285 21.6215 35.1449 21.637 35.1853C21.6534 35.2281 21.6085 35.2816 21.5235 35.3203C21.446 35.3556 21.2997 35.4485 21.1984 35.527C20.7616 35.8651 19.4361 36.5757 18.5594 36.9418C16.0401 37.9939 13.8155 37.9565 11.4271 36.8218C10.9792 36.609 10.4744 36.4129 10.1734 36.3348C8.86842 35.9961 8.71235 35.6549 9.41943 34.6868C9.75706 34.2245 9.76125 34.2085 9.792 33.2611C9.91169 29.5688 12.1751 26.074 15.9025 23.8263C17.7618 22.705 19.5987 22.2343 21.0918 22.4966ZM54.6625 54.6622C60.9553 55.3224 66.1735 59.6273 65.8777 63.9148C65.7874 65.2245 65.0934 67.1722 64.4899 67.8096C64.4546 67.847 64.3586 67.9705 64.2767 68.0841C64.01 68.4539 63.1601 69.2274 63.34 68.9365C63.3585 68.9067 63.3364 68.899 63.287 68.9179C63.2283 68.9404 63.2208 68.9616 63.2624 68.9873C63.4174 69.083 62.0192 69.9005 61.8042 69.84C61.7192 69.816 61.7068 69.8207 61.7594 69.857C61.8131 69.8941 61.7186 69.9433 61.3976 70.0454C59.8376 70.5417 57.9557 70.5592 56.0535 70.0954C55.248 69.8989 54.1063 69.5089 54.1465 69.4438C54.1608 69.4207 54.1365 69.4156 54.0925 69.4325C53.8406 69.529 51.372 68.0967 50.4515 67.3199C49.5021 66.5187 48.3951 65.3697 48.4644 65.2575C48.483 65.2274 48.4767 65.2161 48.4503 65.2324C48.3826 65.2742 47.7933 64.3766 47.4433 63.6984C46.7763 62.4062 46.4429 60.8332 46.5702 59.579C46.6933 58.3665 46.6933 58.3518 46.5657 57.9392C46.3973 57.3943 46.3941 56.8016 46.5587 56.6371L46.6764 56.5195L47.4069 56.5299L48.1374 56.5404L48.5295 56.1627C49.8578 54.8832 51.932 54.3757 54.6625 54.6622Z" fill="#814B26"/>
    <path fill-rule="evenodd" clip-rule="evenodd" d="M56.2886 9.37736C55.5173 9.43836 54.3003 9.64807 53.455 9.86563L53.0336 9.97415L51.8194 9.93898C48.4873 9.84249 45.3003 10.338 42.855 11.3329C42.5993 11.437 42.2541 11.5773 42.0879 11.6448C40.8036 12.1666 38.9971 13.3376 37.6534 14.5192C36.833 15.2408 35.5096 16.6841 35.5736 16.7876C35.5955 16.8232 35.5897 16.8357 35.5598 16.8172C35.4262 16.7346 34.0013 18.7951 33.2448 20.1648C31.4613 23.3944 30.033 27.4957 28.8018 32.9229C28.1353 35.8614 27.3821 37.8469 26.1202 39.9928C25.9051 40.3587 25.744 40.6841 25.7622 40.716C25.7804 40.7479 25.7769 40.7574 25.7544 40.737C25.706 40.6934 25.6552 40.757 25.1683 41.4713C24.7833 42.0361 24.0297 42.9623 23.5397 43.473C17.6306 49.6315 16.8026 58.3413 21.4661 65.2853C25.5801 71.4112 32.7055 74.048 39.402 71.9226C42.8557 70.8264 45.3612 69.4083 47.3853 67.4039L48.0407 66.755L48.7287 67.4285C55.742 74.2927 66.0896 72.6322 67.1163 64.4779C67.8213 58.8783 60.9724 53.3569 53.3154 53.3518L52.5639 53.3513L52.6284 52.7186C52.9995 49.0783 53.6088 47.2251 54.9932 45.526C55.5283 44.8693 56.4757 43.6269 56.8248 43.1242C64.4174 32.1898 65.916 21.6908 60.9719 14.0699L60.6368 13.5533L60.6308 12.6752C60.6146 10.3131 59.0909 9.15588 56.2886 9.37736ZM57.9383 10.9275C58.9196 11.1731 59.2608 11.6948 59.1816 12.8281C59.1597 13.1418 59.1392 13.5266 59.1361 13.6834L59.1304 13.9684L59.3945 14.3314C64.6044 21.4906 62.8928 32.561 54.9235 43.2481C54.4808 43.8417 54.125 44.349 54.1328 44.3753C54.1406 44.4016 54.1266 44.4105 54.1015 44.3951C54.0573 44.3678 53.9493 44.4834 53.2623 45.2936C51.7925 47.0269 49.791 48.6442 47.996 49.5493C47.1332 49.9843 46.9427 50.4292 47.5536 50.5825C47.9038 50.6704 50.1926 49.5095 51.4727 48.5947C51.9865 48.2275 51.9598 48.1808 51.7444 49.0695C51.4991 50.0809 51.3849 50.7817 51.2225 52.2689C51.1466 52.9637 51.0785 53.5388 51.0711 53.547C51.0637 53.5551 50.8397 53.6197 50.5731 53.6906C49.9075 53.8674 49.9025 53.8692 49.9354 53.9226C49.9515 53.9487 49.9302 53.9567 49.8881 53.9406C49.6996 53.8682 48.4236 54.5912 47.9299 55.0499L47.6831 55.2793L47.3874 55.2692C45.6176 55.2087 44.8992 56.2301 45.3674 58.1413C45.4563 58.5044 45.4639 58.6214 45.4194 58.9419C45.12 61.098 45.6556 63.365 46.9153 65.2741L47.131 65.6011L46.92 65.8165C46.8039 65.935 46.609 66.1386 46.487 66.2689C46.365 66.3992 46.114 66.6405 45.9292 66.8051C45.7445 66.9697 45.6012 67.1304 45.6106 67.1622C45.6201 67.1939 45.6118 67.2039 45.5922 67.1843C45.5473 67.1394 45.0201 67.5535 45.0393 67.6186C45.0471 67.645 45.0279 67.6508 44.9967 67.6316C44.9654 67.6123 44.8893 67.6412 44.8275 67.696C43.5739 68.8054 39.8801 70.4421 37.5279 70.9303C26.2009 73.2813 16.456 60.775 21.0583 49.7935C21.7837 48.0625 23.0174 46.1663 24.3388 44.7512C25.6468 43.3505 26.5963 42.078 27.439 40.5963L27.7163 40.1086L27.7501 41.3969C27.7974 43.204 27.9164 44.0922 28.3154 45.6162C28.4137 45.9918 28.7264 46.1256 29.0011 45.9096C29.1703 45.7766 29.1707 45.713 29.0091 44.8595C28.4948 42.1441 28.7584 38.3668 29.6674 35.4274C29.7685 35.1004 29.9365 34.4496 30.0406 33.9811C31.7784 26.1631 33.8376 21.0926 36.6713 17.655C36.8793 17.4027 37.0367 17.1758 37.0212 17.1508C37.0058 17.1258 37.0449 17.0615 37.1082 17.008L37.2232 16.9107L37.1202 17.0399L37.0173 17.169L37.1574 17.0453C37.2345 16.9772 37.283 16.8981 37.2653 16.8694C37.2476 16.8407 37.2584 16.8329 37.2892 16.8519C37.3521 16.8908 37.507 16.6987 37.4861 16.6078C37.4787 16.5756 37.4825 16.5669 37.4945 16.5886C37.5066 16.6102 37.7876 16.3773 38.119 16.071C38.4504 15.7646 38.8378 15.4098 38.9799 15.2826C39.122 15.1553 39.2319 15.0321 39.2241 15.0087C39.2163 14.9852 39.2315 14.9795 39.2579 14.9958C39.2844 15.0121 39.407 14.941 39.5304 14.8379C39.6539 14.7347 39.8944 14.5572 40.0649 14.4434C40.2355 14.3296 40.4177 14.1874 40.4699 14.1273C40.5221 14.0673 40.5506 14.0458 40.5333 14.0797C40.516 14.1135 40.7231 14.0123 40.9936 13.8548C41.2768 13.69 41.4711 13.5455 41.4518 13.5142C41.4326 13.4832 41.4428 13.4751 41.4756 13.4953C41.5072 13.5149 41.7394 13.4271 41.9917 13.3005C44.7927 11.8942 48.4794 11.1996 52.1036 11.3955L53.0852 11.4485L53.7828 11.2768C55.6313 10.8218 57.0422 10.7032 57.9383 10.9275ZM19.3087 21.2512C16.8658 21.5842 14.2346 23.0833 11.9713 25.4318C11.7515 25.6599 11.5821 25.8753 11.5949 25.9105C11.6076 25.9457 11.5924 25.9689 11.5609 25.9621C11.4806 25.9448 11.0658 26.462 10.5812 27.1835C9.35353 29.0115 8.57578 31.4002 8.57382 33.3489L8.5734 33.7749L8.39453 34.0239C8.2961 34.1608 8.12756 34.4572 8.01994 34.6825L7.82422 35.0923V35.583C7.82422 36.5719 8.41592 37.1726 9.70302 37.4902C9.94064 37.5488 10.487 37.7571 10.9172 37.9529C14.0699 39.3888 16.7173 39.293 20.1212 37.6202C21.0012 37.1877 22.0399 36.5541 22.0187 36.4628C22.0109 36.4292 22.0289 36.4168 22.0588 36.4353C22.1072 36.4652 22.7854 36.0042 23.1706 35.6796C24.2055 34.8076 24.2335 34.7808 25.0608 33.8713C26.8722 31.8801 27.7146 29.4969 27.2634 27.6403C26.8237 25.8314 25.6823 23.7256 24.7092 22.9282C24.2862 22.5815 24.0568 22.4057 23.7896 22.2233C22.543 21.3722 20.9523 21.0271 19.3087 21.2512ZM21.6407 22.5594C23.7478 23.1345 25.2996 25.0008 26.0704 27.8868C26.795 30.6 23.7148 34.5842 19.2686 36.6844C16.3452 38.0654 14.0935 38.0972 11.3118 36.7969C10.9282 36.6176 10.3879 36.4112 10.1112 36.3382C8.90682 36.0207 8.67922 35.4033 9.46741 34.5913C9.50332 34.5543 9.5893 34.4437 9.65848 34.3453L9.78429 34.1666L9.77029 33.6965C9.74306 32.7834 9.9409 31.5907 10.301 30.4967C11.9081 25.6144 17.7788 21.5052 21.6407 22.5594ZM54.921 54.6687C61.0084 55.4026 65.9259 59.4043 65.9245 63.6229C65.9229 68.2507 62.0217 71.2129 57.0637 70.351C50.6714 69.2399 45.9212 64.1152 46.6205 59.0847L46.703 58.4907L46.5745 57.9743C46.4523 57.4835 46.4121 56.969 46.4771 56.727C46.5238 56.5528 46.8723 56.481 47.4892 56.5186C48.0957 56.5555 48.1154 56.5483 48.5298 56.1374C49.2741 55.3995 50.4123 54.8769 51.6644 54.6982C51.8775 54.6678 52.11 54.6344 52.1811 54.624C52.5512 54.5697 54.3423 54.5989 54.921 54.6687Z" fill="black"/>
</svg>