<svg width="155" height="136" viewBox="0 0 155 136" fill="none" xmlns="http://www.w3.org/2000/svg">
<g filter="url(#filter0_d_236_2913)">
<path d="M53.0113 113.417C54.8329 116.796 57.327 119.767 60.3402 122.148C63.3533 124.528 66.822 126.268 70.5331 127.261C77.3193 129.077 84.519 128.566 90.9805 125.811C97.4419 123.056 102.792 118.216 106.174 112.065C107.861 109.052 110.282 106.514 113.213 104.685C116.144 102.856 119.489 101.796 122.939 101.603C126.772 101.317 130.502 100.232 133.89 98.4201C139.991 95.1779 144.6 89.7042 146.753 83.1444C147.798 80.0052 148.193 76.6861 147.912 73.3895C147.632 70.0929 146.681 66.888 145.12 63.9703C142.934 60.0202 139.717 56.7357 135.811 54.4662C131.906 52.1967 127.457 51.027 122.939 51.0815C118.79 51.0893 114.697 52.0472 110.977 53.8816C107.256 55.7159 104.005 58.3779 101.475 61.6631C99.4082 64.4326 96.6747 66.6359 93.5281 68.0685C90.3814 69.5011 86.9236 70.1165 83.4753 69.8578C77.4282 69.3495 71.3645 70.6218 66.0331 73.5176C59.0107 77.0847 53.694 83.2918 51.2521 90.774C48.8101 98.2563 49.4429 106.401 53.0113 113.417ZM129.311 61.6631C128.927 61.9716 128.449 62.14 127.957 62.1404C127.68 62.1423 127.407 62.0867 127.153 61.9771C126.899 61.8675 126.671 61.7064 126.483 61.5039C126.324 61.3448 125.806 60.8277 125.209 61.1459C124.748 61.3879 124.211 61.4402 123.713 61.2915C123.214 61.1428 122.793 60.8049 122.541 60.3503C122.415 60.1206 122.335 59.8683 122.307 59.6078C122.279 59.3473 122.302 59.0838 122.376 58.8325C122.45 58.5811 122.573 58.3468 122.738 58.1431C122.903 57.9394 123.107 57.7702 123.337 57.6453C124.348 57.1252 125.506 56.964 126.62 57.1881C127.734 57.4122 128.739 58.0083 129.47 58.8785C129.814 59.2707 129.991 59.7824 129.961 60.3033C129.931 60.8242 129.697 61.3125 129.311 61.6631ZM121.983 66.5163C122.992 66.0038 124.144 65.8429 125.255 66.0591C126.366 66.2753 127.373 66.8563 128.116 67.7097C128.288 67.9048 128.419 68.1321 128.502 68.3782C128.584 68.6244 128.618 68.8845 128.599 69.1436C128.581 69.4026 128.511 69.6554 128.394 69.8873C128.276 70.1192 128.114 70.3255 127.917 70.4943C127.743 70.6631 127.537 70.7957 127.312 70.8845C127.086 70.9733 126.845 71.0164 126.603 71.0115C126.048 70.9964 125.52 70.7685 125.129 70.375C124.97 70.2159 124.452 69.6987 123.855 70.0169C123.623 70.1414 123.368 70.2186 123.105 70.244C122.843 70.2693 122.578 70.2424 122.326 70.1646C122.074 70.0869 121.84 69.96 121.638 69.7913C121.436 69.6225 121.269 69.4152 121.147 69.1816C120.908 68.7166 120.862 68.1764 121.018 67.6776C121.175 67.1788 121.521 66.7616 121.983 66.5163ZM113.382 59.4752C114.399 58.9389 115.568 58.7649 116.698 58.9818C117.827 59.1987 118.849 59.7937 119.594 60.6686C119.936 61.0542 120.111 61.5595 120.081 62.0738C120.051 62.5882 119.819 63.0698 119.435 63.4134C119.079 63.7481 118.609 63.9333 118.121 63.9305C117.844 63.9362 117.569 63.8823 117.315 63.7725C117.06 63.6626 116.833 63.4995 116.647 63.2941C116.478 63.1006 116.253 62.9656 116.002 62.9084C115.752 62.8512 115.49 62.8748 115.253 62.9758C114.788 63.2239 114.243 63.2796 113.737 63.1308C113.23 62.982 112.803 62.6407 112.545 62.1802C112.421 61.9481 112.344 61.6936 112.318 61.4315C112.293 61.1693 112.32 60.9047 112.398 60.6531C112.475 60.4014 112.602 60.1677 112.771 59.9655C112.94 59.7633 113.148 59.5966 113.382 59.4752ZM82.4797 82.3488C82.1138 82.6614 81.647 82.831 81.1656 82.8262C80.8887 82.8319 80.6138 82.778 80.3595 82.6681C80.1053 82.5583 79.8777 82.3951 79.6922 82.1897C79.5329 82.0306 78.9754 81.5532 78.4178 81.8317C77.9521 82.0798 77.4075 82.1354 76.9011 81.9867C76.3948 81.8379 75.967 81.4966 75.7099 81.0361C75.5853 80.804 75.5081 80.5495 75.4827 80.2873C75.4573 80.0252 75.4843 79.7606 75.5621 79.509C75.6399 79.2573 75.7669 79.0236 75.9359 78.8214C76.1048 78.6192 76.3123 78.4525 76.5462 78.331C77.5581 77.8168 78.7141 77.6588 79.8271 77.8826C80.9401 78.1064 81.9449 78.6989 82.6788 79.5642C83.0183 79.9615 83.1877 80.4763 83.1505 80.9973C83.1132 81.5183 82.8723 82.0038 82.4797 82.3488ZM75.1524 87.202C76.163 86.682 77.3206 86.5208 78.4351 86.7449C79.5496 86.969 80.5546 87.5651 81.285 88.4352C81.4613 88.6281 81.5964 88.8548 81.6821 89.1015C81.7678 89.3482 81.8025 89.6098 81.7838 89.8702C81.7652 90.1307 81.6937 90.3847 81.5738 90.6167C81.4538 90.8487 81.2878 91.0539 81.0859 91.2198C80.7459 91.5532 80.288 91.7391 79.8116 91.737C79.5221 91.7365 79.2364 91.672 78.9747 91.5482C78.7131 91.4244 78.4822 91.2444 78.2984 91.021C78.2984 91.021 77.701 90.3447 77.0639 90.7027C76.5992 90.9559 76.0528 91.0144 75.545 90.8652C75.0372 90.716 74.6095 90.3713 74.356 89.9071C74.1025 89.4429 74.044 88.8971 74.1934 88.3898C74.3427 87.8825 74.6877 87.4553 75.1524 87.202ZM66.5508 80.1609C67.5747 79.6253 68.75 79.4517 69.8852 79.6684C71.0205 79.8851 72.0489 80.4793 72.8029 81.3543C72.9739 81.5459 73.1046 81.7698 73.1873 82.0128C73.2701 82.2558 73.3031 82.5129 73.2846 82.7688C73.266 83.0248 73.1962 83.2745 73.0792 83.503C72.9623 83.7315 72.8006 83.9342 72.6038 84.0992C72.4299 84.268 72.2242 84.4006 71.9986 84.4894C71.7731 84.5781 71.5321 84.6213 71.2897 84.6163C71.0127 84.622 70.7379 84.5681 70.4836 84.4582C70.2294 84.3484 70.0018 84.1853 69.8162 83.9798C69.6575 83.7848 69.4385 83.6478 69.1936 83.5903C68.9486 83.5327 68.6915 83.5578 68.4623 83.6616C67.9976 83.9148 67.4512 83.9732 66.9434 83.824C66.4356 83.6748 66.0079 83.3302 65.7544 82.866C65.5009 82.4018 65.4424 81.856 65.5918 81.3487C65.7411 80.8414 66.0861 80.4141 66.5508 80.1609ZM20.7155 68.3462C18.2494 75.8165 18.8417 83.958 22.3632 90.9936C25.8847 98.0292 32.0494 103.387 39.5116 105.899C41.7742 106.598 44.1152 107.012 46.4804 107.132C44.9917 99.8656 45.9072 92.3127 49.089 85.6113C52.2709 78.9099 57.5467 73.4229 64.1217 69.9772C67.8666 67.9889 71.9412 66.695 76.148 66.1583C75.5299 63.0241 75.6507 59.7892 76.5009 56.7098C77.351 53.6303 78.9072 50.7908 81.0461 48.4162C83.5814 45.5495 85.4692 42.1712 86.5814 38.5109C88.7333 32.0724 88.2394 25.0439 85.208 18.9689C82.1767 12.8939 76.8557 8.26903 70.4136 6.10984C63.8764 4.26099 56.8723 5.07269 50.9324 8.36748C44.9926 11.6623 40.6001 17.1722 38.7151 23.6927C37.5625 27.3545 37.2095 31.2205 37.6797 35.0301C38.1506 38.4505 37.7517 41.9343 36.5198 45.1602C35.288 48.386 33.2629 51.2501 30.6312 53.4882C25.9547 57.3766 22.5099 62.5384 20.7155 68.3462ZM55.6794 24.1104C56.0494 23.0371 56.7674 22.1178 57.7195 21.4981C58.6716 20.8784 59.8035 20.5938 60.9359 20.6893C61.1977 20.7094 61.4529 20.781 61.6869 20.9C61.9208 21.019 62.1289 21.1831 62.2992 21.3827C62.4694 21.5824 62.5985 21.8137 62.6789 22.0633C62.7593 22.313 62.7895 22.5761 62.7677 22.8375C62.7476 23.099 62.6759 23.3539 62.5568 23.5876C62.4377 23.8214 62.2735 24.0292 62.0736 24.1993C61.8738 24.3694 61.6422 24.4983 61.3923 24.5786C61.1423 24.659 60.879 24.6891 60.6173 24.6674C60.6173 24.6674 59.7014 24.5878 59.5023 25.3039C59.3746 25.7096 59.12 26.0637 58.776 26.3143C58.432 26.5649 58.0166 26.6987 57.5908 26.6962C57.3896 26.6892 57.1895 26.6626 56.9935 26.6166C56.4885 26.4555 56.0673 26.1022 55.8213 25.6331C55.5754 25.1639 55.5243 24.6169 55.6794 24.1104ZM51.7768 19.3368C51.527 19.2632 51.2944 19.1406 51.0926 18.9762C50.8908 18.8117 50.7239 18.6088 50.6015 18.3791C50.4792 18.1495 50.4039 17.8978 50.38 17.6387C50.3562 17.3797 50.3843 17.1185 50.4627 16.8704C50.8155 15.7913 51.5224 14.8626 52.4691 14.2346C53.4157 13.6065 54.5468 13.3158 55.6794 13.4095C56.2045 13.4591 56.6895 13.7112 57.0316 14.1123C57.3736 14.5134 57.5457 15.0319 57.5112 15.5577C57.4972 15.8178 57.431 16.0724 57.3165 16.3065C57.2019 16.5405 57.0414 16.7491 56.8445 16.9198C56.6475 17.0906 56.4182 17.22 56.1701 17.3003C55.9221 17.3807 55.6604 17.4104 55.4006 17.3876C55.3608 17.3876 54.4847 17.3478 54.2458 18.0241C54.128 18.4357 53.8759 18.7962 53.5296 19.0485C53.1833 19.3007 52.7626 19.4302 52.3343 19.4164C52.145 19.4265 51.9556 19.3995 51.7768 19.3368ZM44.6486 25.1447C45.0002 24.0511 45.7097 23.1073 46.6631 22.4652C47.6165 21.823 48.7584 21.5198 49.9052 21.6043C50.1669 21.6244 50.4221 21.696 50.6561 21.815C50.8901 21.934 51.0982 22.098 51.2684 22.2976C51.4387 22.4973 51.5677 22.7286 51.6481 22.9783C51.7286 23.228 51.7587 23.491 51.737 23.7524C51.7169 24.0139 51.6452 24.2689 51.5261 24.5026C51.407 24.7363 51.2427 24.9442 51.0429 25.1143C50.843 25.2843 50.6114 25.4133 50.3615 25.4936C50.1116 25.5739 49.8482 25.6041 49.5866 25.5823C49.3362 25.5552 49.0842 25.6157 48.8736 25.7536C48.663 25.8914 48.5068 26.098 48.4317 26.3381C48.304 26.7439 48.0495 27.098 47.7054 27.3486C47.3614 27.5992 46.946 27.733 46.5203 27.7304C46.3324 27.7208 46.1458 27.6941 45.9627 27.6509C45.4577 27.4898 45.0366 27.1365 44.7906 26.6673C44.5446 26.1982 44.4936 25.6512 44.6486 25.1447ZM36.8833 71.6877C37.2461 70.6097 37.9624 69.6854 38.9163 69.0646C39.8703 68.4437 41.006 68.1626 42.1398 68.2666C42.6166 68.3599 43.0428 68.6241 43.3382 69.0094C43.6335 69.3948 43.7776 69.8747 43.7433 70.3588C43.7091 70.843 43.4988 71.2979 43.1521 71.6379C42.8054 71.9779 42.3463 72.1795 41.8611 72.2049C41.6221 72.2446 40.8655 72.2446 40.7062 72.8413C40.58 73.2512 40.327 73.6106 39.9836 73.8679C39.6402 74.1252 39.224 74.2672 38.7947 74.2734C38.5898 74.2724 38.387 74.2319 38.1974 74.1541C37.6978 73.9981 37.2798 73.6518 37.0339 73.1902C36.7879 72.7286 36.7338 72.1889 36.8833 71.6877ZM32.9409 66.9141C32.4359 66.753 32.0147 66.3996 31.7687 65.9305C31.5228 65.4614 31.4717 64.9143 31.6268 64.4079C31.9895 63.3298 32.7059 62.4056 33.6598 61.7847C34.6138 61.1639 35.7495 60.8827 36.8833 60.9868C37.1448 61.0077 37.3996 61.0798 37.6331 61.1991C37.8667 61.3184 38.0745 61.4824 38.2446 61.6819C38.4147 61.8814 38.5438 62.1124 38.6245 62.3617C38.7052 62.611 38.736 62.8737 38.7151 63.1349C38.6942 63.3961 38.622 63.6507 38.5026 63.884C38.3832 64.1173 38.219 64.3249 38.0193 64.4948C37.8196 64.6647 37.5884 64.7937 37.3388 64.8743C37.0892 64.955 36.8262 64.9857 36.5647 64.9648C36.5647 64.9648 35.6488 64.8853 35.4497 65.6013C35.322 66.0071 35.0674 66.3612 34.7234 66.6118C34.3794 66.8624 33.964 66.9962 33.5382 66.9936C33.337 66.9867 33.1369 66.9601 32.9409 66.9141ZM25.8127 72.722C26.1652 71.6209 26.8807 70.6715 27.8425 70.0285C28.8042 69.3856 29.9557 69.0871 31.1091 69.1816C31.3633 69.1982 31.6117 69.2651 31.8398 69.3783C32.068 69.4916 32.2713 69.6491 32.438 69.8415C32.6048 70.034 32.7316 70.2576 32.811 70.4994C32.8905 70.7412 32.9211 70.9964 32.9011 71.2501C32.9032 71.5152 32.8498 71.7778 32.7444 72.0211C32.6389 72.2643 32.4837 72.4829 32.2887 72.6627C32.0938 72.8425 31.8633 72.9796 31.6121 73.0651C31.361 73.1507 31.0947 73.1829 30.8303 73.1596C30.5789 73.1211 30.3218 73.1716 30.1037 73.3024C29.8855 73.4331 29.72 73.6359 29.6357 73.8756C29.5079 74.2814 29.2534 74.6355 28.9093 74.8861C28.5653 75.1367 28.15 75.2705 27.7242 75.2679C27.5218 75.2807 27.3188 75.2537 27.1268 75.1884C26.6272 75.0324 26.2092 74.6861 25.9633 74.2245C25.7173 73.7629 25.6633 73.2231 25.8127 72.722Z" fill="black"/>
<path d="M113.382 59.4752C114.399 58.9389 115.568 58.7649 116.698 58.9818C117.827 59.1987 118.849 59.7937 119.594 60.6686C119.936 61.0542 120.111 61.5595 120.081 62.0738C120.051 62.5882 119.819 63.0698 119.435 63.4134C119.079 63.7481 118.609 63.9333 118.121 63.9305C117.844 63.9362 117.569 63.8823 117.315 63.7725C117.06 63.6626 116.833 63.4995 116.647 63.2941C116.478 63.1006 116.253 62.9656 116.002 62.9084C115.752 62.8512 115.49 62.8748 115.253 62.9758C114.788 63.2239 114.243 63.2796 113.737 63.1308C113.23 62.982 112.803 62.6407 112.545 62.1802C112.421 61.9481 112.344 61.6936 112.318 61.4315C112.293 61.1693 112.32 60.9047 112.398 60.6531C112.475 60.4014 112.602 60.1677 112.771 59.9655C112.94 59.7633 113.148 59.5966 113.382 59.4752Z" fill="#F3D6A3"/>
<path d="M129.311 61.6631C128.927 61.9716 128.449 62.14 127.957 62.1404C127.68 62.1423 127.407 62.0867 127.153 61.9771C126.899 61.8675 126.671 61.7064 126.483 61.5039C126.324 61.3448 125.806 60.8277 125.209 61.1459C124.748 61.3879 124.211 61.4402 123.713 61.2915C123.214 61.1428 122.793 60.8049 122.541 60.3503C122.415 60.1206 122.335 59.8683 122.307 59.6078C122.279 59.3473 122.302 59.0838 122.376 58.8325C122.45 58.5811 122.573 58.3468 122.738 58.1431C122.903 57.9394 123.107 57.7702 123.337 57.6453C124.348 57.1252 125.506 56.964 126.62 57.1881C127.734 57.4122 128.739 58.0083 129.47 58.8785C129.814 59.2707 129.991 59.7824 129.961 60.3033C129.931 60.8242 129.697 61.3125 129.311 61.6631Z" fill="#F3D6A3"/>
<path d="M121.983 66.5163C122.992 66.0038 124.144 65.8429 125.255 66.0591C126.366 66.2753 127.373 66.8563 128.116 67.7097C128.288 67.9048 128.419 68.1321 128.502 68.3782C128.584 68.6244 128.618 68.8845 128.599 69.1436C128.581 69.4026 128.511 69.6554 128.394 69.8873C128.276 70.1192 128.114 70.3255 127.917 70.4943C127.743 70.6631 127.537 70.7957 127.312 70.8845C127.086 70.9733 126.845 71.0164 126.603 71.0115C126.048 70.9964 125.52 70.7685 125.129 70.375C124.97 70.2159 124.452 69.6987 123.855 70.0169C123.623 70.1414 123.368 70.2186 123.105 70.244C122.843 70.2693 122.578 70.2424 122.326 70.1646C122.074 70.0869 121.84 69.96 121.638 69.7913C121.436 69.6225 121.269 69.4152 121.147 69.1816C120.908 68.7166 120.862 68.1764 121.018 67.6776C121.175 67.1788 121.521 66.7616 121.983 66.5163Z" fill="#F3D6A3"/>
<path d="M82.4797 82.3488C82.1138 82.6614 81.647 82.831 81.1656 82.8262C80.8887 82.8319 80.6138 82.778 80.3595 82.6681C80.1053 82.5583 79.8777 82.3951 79.6922 82.1897C79.5329 82.0306 78.9754 81.5532 78.4178 81.8317C77.9521 82.0798 77.4075 82.1354 76.9011 81.9867C76.3948 81.8379 75.967 81.4966 75.7099 81.0361C75.5853 80.804 75.5081 80.5495 75.4827 80.2873C75.4573 80.0252 75.4843 79.7606 75.5621 79.509C75.6399 79.2573 75.7669 79.0236 75.9359 78.8214C76.1048 78.6192 76.3123 78.4525 76.5462 78.331C77.5581 77.8168 78.7141 77.6588 79.8271 77.8826C80.9401 78.1064 81.9449 78.6989 82.6788 79.5642C83.0183 79.9615 83.1877 80.4763 83.1505 80.9973C83.1132 81.5183 82.8723 82.0038 82.4797 82.3488Z" fill="#F3D6A3"/>
<path d="M75.1524 87.202C76.163 86.682 77.3206 86.5208 78.4351 86.7449C79.5496 86.969 80.5546 87.5651 81.285 88.4352C81.4613 88.6281 81.5964 88.8548 81.6821 89.1015C81.7678 89.3482 81.8025 89.6098 81.7838 89.8702C81.7652 90.1307 81.6937 90.3847 81.5738 90.6167C81.4538 90.8487 81.2878 91.0539 81.0859 91.2198C80.7459 91.5532 80.288 91.7391 79.8116 91.737C79.5221 91.7365 79.2364 91.672 78.9747 91.5482C78.7131 91.4244 78.4822 91.2444 78.2984 91.021C78.2984 91.021 77.701 90.3447 77.0639 90.7027C76.5992 90.9559 76.0528 91.0144 75.545 90.8652C75.0372 90.716 74.6095 90.3713 74.356 89.9071C74.1025 89.4429 74.044 88.8971 74.1934 88.3898C74.3427 87.8825 74.6877 87.4553 75.1524 87.202Z" fill="#F3D6A3"/>
<path d="M66.5508 80.1609C67.5747 79.6253 68.75 79.4517 69.8852 79.6684C71.0205 79.8851 72.0489 80.4793 72.8029 81.3543C72.9739 81.5459 73.1046 81.7698 73.1873 82.0128C73.2701 82.2558 73.3031 82.5129 73.2846 82.7688C73.266 83.0248 73.1962 83.2745 73.0792 83.503C72.9623 83.7315 72.8006 83.9342 72.6038 84.0992C72.4299 84.268 72.2242 84.4006 71.9986 84.4894C71.7731 84.5781 71.5321 84.6213 71.2897 84.6163C71.0127 84.622 70.7379 84.5681 70.4836 84.4582C70.2294 84.3484 70.0018 84.1853 69.8162 83.9798C69.6575 83.7848 69.4385 83.6478 69.1936 83.5903C68.9486 83.5327 68.6915 83.5578 68.4623 83.6616C67.9976 83.9148 67.4512 83.9732 66.9434 83.824C66.4356 83.6748 66.0079 83.3302 65.7544 82.866C65.5009 82.4018 65.4424 81.856 65.5918 81.3487C65.7411 80.8414 66.0861 80.4141 66.5508 80.1609Z" fill="#F3D6A3"/>
<path d="M36.8833 71.6877C37.2461 70.6097 37.9624 69.6854 38.9163 69.0646C39.8703 68.4437 41.006 68.1626 42.1398 68.2666C42.6166 68.3599 43.0428 68.6241 43.3382 69.0094C43.6335 69.3948 43.7776 69.8747 43.7433 70.3588C43.7091 70.843 43.4988 71.2979 43.1521 71.6379C42.8054 71.9779 42.3463 72.1795 41.8611 72.2049C41.6221 72.2446 40.8655 72.2446 40.7062 72.8413C40.58 73.2512 40.327 73.6106 39.9836 73.8679C39.6402 74.1252 39.224 74.2672 38.7947 74.2734C38.5898 74.2724 38.387 74.2319 38.1974 74.1541C37.6978 73.9981 37.2798 73.6518 37.0339 73.1902C36.7879 72.7286 36.7338 72.1889 36.8833 71.6877Z" fill="#F3D6A3"/>
<path d="M25.8127 72.722C26.1652 71.6209 26.8807 70.6715 27.8425 70.0285C28.8042 69.3856 29.9557 69.0871 31.1091 69.1816C31.3633 69.1982 31.6117 69.2651 31.8398 69.3783C32.068 69.4916 32.2713 69.6491 32.438 69.8415C32.6048 70.034 32.7316 70.2576 32.811 70.4994C32.8905 70.7412 32.9211 70.9964 32.9011 71.2501C32.9032 71.5152 32.8498 71.7778 32.7444 72.0211C32.6389 72.2643 32.4837 72.4829 32.2887 72.6627C32.0938 72.8425 31.8633 72.9796 31.6121 73.0651C31.361 73.1507 31.0947 73.1829 30.8303 73.1596C30.5789 73.1211 30.3218 73.1716 30.1037 73.3024C29.8855 73.4331 29.72 73.6359 29.6357 73.8756C29.5079 74.2814 29.2534 74.6355 28.9093 74.8861C28.5653 75.1367 28.15 75.2705 27.7242 75.2679C27.5218 75.2807 27.3188 75.2537 27.1268 75.1884C26.6272 75.0324 26.2092 74.6861 25.9633 74.2245C25.7173 73.7629 25.6633 73.2231 25.8127 72.722Z" fill="#F3D6A3"/>
<path d="M32.9409 66.9141C32.4359 66.753 32.0147 66.3996 31.7687 65.9305C31.5228 65.4614 31.4717 64.9143 31.6268 64.4079C31.9895 63.3298 32.7059 62.4056 33.6598 61.7847C34.6138 61.1639 35.7495 60.8827 36.8833 60.9868C37.1448 61.0077 37.3996 61.0798 37.6331 61.1991C37.8667 61.3184 38.0745 61.4824 38.2446 61.6819C38.4147 61.8814 38.5438 62.1124 38.6245 62.3617C38.7052 62.611 38.736 62.8737 38.7151 63.1349C38.6942 63.3961 38.622 63.6507 38.5026 63.884C38.3832 64.1173 38.219 64.3249 38.0193 64.4948C37.8196 64.6647 37.5884 64.7937 37.3388 64.8743C37.0892 64.955 36.8262 64.9857 36.5647 64.9648C36.5647 64.9648 35.6488 64.8853 35.4497 65.6013C35.322 66.0071 35.0674 66.3612 34.7234 66.6118C34.3794 66.8624 33.964 66.9962 33.5382 66.9936C33.337 66.9867 33.1369 66.9601 32.9409 66.9141Z" fill="#F3D6A3"/>
<path d="M55.6794 24.1104C56.0494 23.0371 56.7674 22.1178 57.7195 21.4981C58.6716 20.8784 59.8035 20.5938 60.9359 20.6893C61.1977 20.7094 61.4529 20.781 61.6869 20.9C61.9208 21.019 62.1289 21.1831 62.2992 21.3827C62.4694 21.5824 62.5985 21.8137 62.6789 22.0633C62.7593 22.313 62.7895 22.5761 62.7677 22.8375C62.7476 23.099 62.6759 23.3539 62.5568 23.5876C62.4377 23.8214 62.2735 24.0292 62.0736 24.1993C61.8738 24.3694 61.6422 24.4983 61.3923 24.5786C61.1423 24.659 60.879 24.6891 60.6173 24.6674C60.6173 24.6674 59.7014 24.5878 59.5023 25.3039C59.3746 25.7096 59.12 26.0637 58.776 26.3143C58.432 26.5649 58.0166 26.6987 57.5908 26.6962C57.3896 26.6892 57.1895 26.6626 56.9935 26.6166C56.4885 26.4555 56.0673 26.1022 55.8213 25.6331C55.5754 25.1639 55.5243 24.6169 55.6794 24.1104Z" fill="#F3D6A3"/>
<path d="M44.6486 25.1447C45.0002 24.0511 45.7097 23.1073 46.6631 22.4652C47.6165 21.823 48.7584 21.5198 49.9052 21.6043C50.1669 21.6244 50.4221 21.696 50.6561 21.815C50.8901 21.934 51.0982 22.098 51.2684 22.2976C51.4387 22.4973 51.5677 22.7286 51.6481 22.9783C51.7286 23.228 51.7587 23.491 51.737 23.7524C51.7169 24.0139 51.6452 24.2689 51.5261 24.5026C51.407 24.7363 51.2427 24.9442 51.0429 25.1143C50.843 25.2843 50.6114 25.4133 50.3615 25.4936C50.1116 25.5739 49.8482 25.6041 49.5866 25.5823C49.3362 25.5552 49.0842 25.6157 48.8736 25.7536C48.663 25.8914 48.5068 26.098 48.4317 26.3381C48.304 26.7439 48.0495 27.098 47.7054 27.3486C47.3614 27.5992 46.946 27.733 46.5203 27.7304C46.3324 27.7208 46.1458 27.6941 45.9627 27.6509C45.4577 27.4898 45.0366 27.1365 44.7906 26.6673C44.5446 26.1982 44.4936 25.6512 44.6486 25.1447Z" fill="#F3D6A3"/>
<path d="M51.7768 19.3368C51.527 19.2632 51.2944 19.1406 51.0926 18.9762C50.8908 18.8117 50.7239 18.6088 50.6015 18.3791C50.4792 18.1495 50.4039 17.8978 50.38 17.6387C50.3562 17.3797 50.3843 17.1185 50.4627 16.8704C50.8155 15.7913 51.5224 14.8626 52.4691 14.2346C53.4157 13.6065 54.5468 13.3158 55.6794 13.4095C56.2045 13.4591 56.6895 13.7112 57.0316 14.1123C57.3736 14.5134 57.5457 15.0319 57.5112 15.5577C57.4972 15.8178 57.431 16.0724 57.3165 16.3065C57.2019 16.5405 57.0414 16.7491 56.8445 16.9198C56.6475 17.0906 56.4182 17.22 56.1701 17.3003C55.9221 17.3807 55.6604 17.4104 55.4006 17.3876C55.3608 17.3876 54.4847 17.3478 54.2458 18.0241C54.128 18.4357 53.8759 18.7962 53.5296 19.0485C53.1833 19.3007 52.7626 19.4302 52.3343 19.4164C52.145 19.4265 51.9556 19.3995 51.7768 19.3368Z" fill="#F3D6A3"/>
</g>
<path d="M119.497 1.98902V8.35387C119.497 8.88139 119.287 9.3873 118.914 9.76032C118.54 10.1333 118.034 10.3429 117.506 10.3429C116.978 10.3429 116.471 10.1333 116.098 9.76032C115.724 9.3873 115.515 8.88139 115.515 8.35387V1.98902C115.515 1.4615 115.724 0.955583 116.098 0.58257C116.471 0.209557 116.978 0 117.506 0C118.034 0 118.54 0.209557 118.914 0.58257C119.287 0.955583 119.497 1.4615 119.497 1.98902Z" fill="black"/>
<path d="M109.605 15.1165H112.791C113.319 15.1165 113.825 14.907 114.199 14.534C114.572 14.1609 114.782 13.655 114.782 13.1275C114.782 12.6 114.572 12.0941 114.199 11.7211C113.825 11.348 113.319 11.1385 112.791 11.1385H109.605C109.077 11.1385 108.57 11.348 108.197 11.7211C107.824 12.0941 107.614 12.6 107.614 13.1275C107.614 13.655 107.824 14.1609 108.197 14.534C108.57 14.907 109.077 15.1165 109.605 15.1165Z" fill="black"/>
<path d="M116.161 25.5969C116.535 25.9699 117.041 26.1794 117.569 26.1794C118.097 26.1794 118.603 25.9664 118.976 25.5943C119.349 25.2221 119.559 24.7172 119.56 24.1904V17.8256C119.56 17.298 119.351 16.7921 118.977 16.4191C118.604 16.0461 118.097 15.8366 117.569 15.8366C117.041 15.8366 116.535 16.0461 116.161 16.4191C115.788 16.7921 115.578 17.298 115.578 17.8256V24.1904C115.578 24.7179 115.788 25.2239 116.161 25.5969Z" fill="black"/>
<path d="M122.272 15.0409H125.458C125.986 15.0409 126.493 14.8314 126.866 14.4584C127.239 14.0854 127.449 13.5794 127.449 13.0519C127.449 12.5244 127.239 12.0185 126.866 11.6455C126.493 11.2725 125.986 11.0629 125.458 11.0629H122.272C121.744 11.0629 121.238 11.2725 120.864 11.6455C120.491 12.0185 120.281 12.5244 120.281 13.0519C120.281 13.5794 120.491 14.0854 120.864 14.4584C121.238 14.8314 121.744 15.0409 122.272 15.0409Z" fill="black"/>
<path d="M9.39056 49.2458C9.01715 48.8728 8.5107 48.6633 7.98264 48.6633V48.6752C7.45456 48.6752 6.9481 48.8848 6.57469 49.2578C6.20129 49.6308 5.99152 50.1367 5.99152 50.6642V54.4553C5.99152 54.9828 6.20129 55.4887 6.57469 55.8617C6.9481 56.2347 7.45456 56.4443 7.98264 56.4443C8.5107 56.4443 9.01715 56.2347 9.39056 55.8617C9.76396 55.4887 9.97372 54.9828 9.97372 54.4553V50.6523C9.97372 50.1248 9.76396 49.6189 9.39056 49.2458Z" fill="black"/>
<path d="M9.39056 35.9473C9.01715 35.5743 8.5107 35.3647 7.98264 35.3647V35.3766C7.45662 35.3766 6.95197 35.5846 6.5789 35.955C6.20584 36.3254 5.99467 36.8283 5.99152 37.3537V41.1567C5.99152 41.6842 6.20129 42.1902 6.57469 42.5632C6.9481 42.9362 7.45456 43.1457 7.98264 43.1457C8.5107 43.1457 9.01715 42.9362 9.39056 42.5632C9.76396 42.1902 9.97372 41.6842 9.97372 41.1567V37.3537C9.97372 36.8262 9.76396 36.3203 9.39056 35.9473Z" fill="black"/>
<path d="M13.936 43.9016H12.7016C12.1735 43.9016 11.667 44.1111 11.2936 44.4841C10.9202 44.8572 10.7105 45.3631 10.7105 45.8906C10.7105 46.4181 10.9202 46.924 11.2936 47.297C11.667 47.67 12.1735 47.8796 12.7016 47.8796H13.936C14.4641 47.8796 14.9706 47.67 15.344 47.297C15.7174 46.924 15.9271 46.4181 15.9271 45.8906C15.9271 45.3631 15.7174 44.8572 15.344 44.4841C14.9706 44.1111 14.4641 43.9016 13.936 43.9016Z" fill="black"/>
<path d="M3.22387 43.9016H1.9894C1.46132 43.9016 0.954865 44.1111 0.581459 44.4841C0.208054 44.8572 -0.00172424 45.3631 -0.00172424 45.8906C-0.00172424 46.4181 0.208054 46.924 0.581459 47.297C0.954865 47.67 1.46132 47.8796 1.9894 47.8796H3.22387C3.75195 47.8796 4.2584 47.67 4.63181 47.297C5.00521 46.924 5.21499 46.4181 5.21499 45.8906C5.21499 45.3631 5.00521 44.8572 4.63181 44.4841C4.2584 44.1111 3.75195 43.9016 3.22387 43.9016Z" fill="black"/>
<defs>
<filter id="filter0_d_236_2913" x="19.2148" y="5.13867" width="135.785" height="130.19" filterUnits="userSpaceOnUse" color-interpolation-filters="sRGB">
<feFlood flood-opacity="0" result="BackgroundImageFix"/>
<feColorMatrix in="SourceAlpha" type="matrix" values="0 0 0 0 0 0 0 0 0 0 0 0 0 0 0 0 0 0 127 0" result="hardAlpha"/>
<feOffset dx="7" dy="7"/>
<feComposite in2="hardAlpha" operator="out"/>
<feColorMatrix type="matrix" values="0 0 0 0 0.992157 0 0 0 0 0.572549 0 0 0 0 0.105882 0 0 0 1 0"/>
<feBlend mode="normal" in2="BackgroundImageFix" result="effect1_dropShadow_236_2913"/>
<feBlend mode="normal" in="SourceGraphic" in2="effect1_dropShadow_236_2913" result="shape"/>
</filter>
</defs>
</svg>
