<svg width="148" height="136" viewBox="0 0 148 136" fill="none" xmlns="http://www.w3.org/2000/svg">
<g filter="url(#filter0_d_236_2909)">
<path d="M94.9887 113.417C93.1671 116.796 90.673 119.767 87.6598 122.148C84.6467 124.528 81.178 126.268 77.4669 127.261C70.6807 129.077 63.481 128.566 57.0195 125.811C50.5581 123.056 45.2083 118.216 41.8261 112.065C40.1389 109.052 37.7178 106.514 34.7871 104.685C31.8565 102.856 28.511 101.796 25.0609 101.603C21.2283 101.317 17.498 100.232 14.1098 98.4201C8.00896 95.1779 3.39988 89.7042 1.24726 83.1444C0.201559 80.0052 -0.19297 76.6861 0.0877393 73.3895C0.368448 70.0929 1.31851 66.888 2.87997 63.9703C5.06614 60.0202 8.28311 56.7357 12.1888 54.4662C16.0945 52.1967 20.5429 51.027 25.0609 51.0815C29.2103 51.0893 33.3026 52.0472 37.0235 53.8816C40.7444 55.7159 43.9948 58.3779 46.5251 61.6631C48.5918 64.4326 51.3253 66.6359 54.4719 68.0685C57.6186 69.5011 61.0764 70.1165 64.5247 69.8578C70.5718 69.3495 76.6355 70.6218 81.9669 73.5176C88.9893 77.0847 94.306 83.2918 96.7479 90.774C99.1899 98.2563 98.5571 106.401 94.9887 113.417ZM18.6894 61.6631C19.0731 61.9716 19.5508 62.14 20.0433 62.1404C20.3197 62.1423 20.5934 62.0867 20.8471 61.9771C21.1008 61.8675 21.3288 61.7064 21.5168 61.5039C21.676 61.3448 22.1937 60.8277 22.7911 61.1459C23.2517 61.3879 23.7888 61.4402 24.2875 61.2915C24.7862 61.1428 25.2067 60.8049 25.4592 60.3503C25.5853 60.1206 25.6648 59.8683 25.693 59.6078C25.7212 59.3473 25.6977 59.0838 25.6237 58.8325C25.5497 58.5811 25.4267 58.3468 25.2618 58.1431C25.0968 57.9394 24.8933 57.7702 24.6627 57.6453C23.6521 57.1252 22.4945 56.964 21.38 57.1881C20.2656 57.4122 19.2606 58.0083 18.5301 58.8785C18.1857 59.2707 18.0095 59.7824 18.0393 60.3033C18.0691 60.8242 18.3025 61.3125 18.6894 61.6631ZM26.0167 66.5163C25.0076 66.0038 23.856 65.8429 22.7448 66.0591C21.6337 66.2753 20.6268 66.8563 19.884 67.7097C19.7125 67.9048 19.5814 68.1321 19.4985 68.3782C19.4155 68.6244 19.3824 68.8845 19.4009 69.1436C19.4194 69.4026 19.4893 69.6554 19.6064 69.8873C19.7235 70.1192 19.8856 70.3255 20.0832 70.4943C20.257 70.6631 20.4627 70.7957 20.6883 70.8845C20.9139 70.9733 21.1549 71.0164 21.3973 71.0115C21.9521 70.9964 22.4798 70.7685 22.8707 70.375C23.03 70.2159 23.5477 69.6987 24.145 70.0169C24.3774 70.1414 24.6321 70.2186 24.8946 70.244C25.157 70.2693 25.4219 70.2424 25.6738 70.1646C25.9257 70.0869 26.1596 69.96 26.3621 69.7913C26.5645 69.6225 26.7313 69.4152 26.8529 69.1816C27.0921 68.7166 27.1384 68.1764 26.9819 67.6776C26.8254 67.1788 26.4787 66.7616 26.0167 66.5163ZM34.6183 59.4752C33.6012 58.9389 32.4316 58.7649 31.3023 58.9818C30.173 59.1987 29.1514 59.7937 28.406 60.6686C28.064 61.0542 27.8888 61.5595 27.9187 62.0738C27.9485 62.5882 28.181 63.0698 28.5653 63.4134C28.9205 63.7481 29.3911 63.9333 29.8794 63.9305C30.1563 63.9362 30.4312 63.8823 30.6855 63.7725C30.9397 63.6626 31.1673 63.4995 31.3528 63.2941C31.5216 63.1006 31.7475 62.9656 31.9979 62.9084C32.2483 62.8512 32.5105 62.8748 32.7466 62.9758C33.2124 63.2239 33.757 63.2796 34.2633 63.1308C34.7697 62.982 35.1974 62.6407 35.4545 62.1802C35.5792 61.9481 35.6564 61.6936 35.6818 61.4315C35.7072 61.1693 35.6802 60.9047 35.6024 60.6531C35.5246 60.4014 35.3975 60.1677 35.2286 59.9655C35.0597 59.7633 34.8522 59.5966 34.6183 59.4752ZM65.5203 82.3488C65.8862 82.6614 66.353 82.831 66.8344 82.8262C67.1113 82.8319 67.3862 82.778 67.6405 82.6681C67.8947 82.5583 68.1223 82.3951 68.3078 82.1897C68.4671 82.0306 69.0246 81.5532 69.5822 81.8317C70.0479 82.0798 70.5925 82.1354 71.0989 81.9867C71.6052 81.8379 72.033 81.4966 72.2901 81.0361C72.4147 80.804 72.4919 80.5495 72.5173 80.2873C72.5427 80.0252 72.5157 79.7606 72.4379 79.509C72.3601 79.2573 72.2331 79.0236 72.0641 78.8214C71.8952 78.6192 71.6877 78.4525 71.4538 78.331C70.4419 77.8168 69.2859 77.6588 68.1729 77.8826C67.0599 78.1064 66.0551 78.6989 65.3212 79.5642C64.9817 79.9615 64.8123 80.4763 64.8495 80.9973C64.8868 81.5183 65.1277 82.0038 65.5203 82.3488ZM72.8476 87.202C71.837 86.682 70.6794 86.5208 69.5649 86.7449C68.4504 86.969 67.4454 87.5651 66.715 88.4352C66.5387 88.6281 66.4036 88.8548 66.3179 89.1015C66.2322 89.3482 66.1975 89.6098 66.2162 89.8702C66.2348 90.1307 66.3063 90.3847 66.4262 90.6167C66.5462 90.8487 66.7122 91.0539 66.9141 91.2198C67.2541 91.5532 67.712 91.7391 68.1884 91.737C68.4779 91.7365 68.7636 91.672 69.0253 91.5482C69.2869 91.4244 69.5178 91.2444 69.7016 91.021C69.7016 91.021 70.299 90.3447 70.9361 90.7027C71.4008 90.9559 71.9472 91.0144 72.455 90.8652C72.9628 90.716 73.3905 90.3713 73.644 89.9071C73.8975 89.4429 73.956 88.8971 73.8066 88.3898C73.6573 87.8825 73.3123 87.4553 72.8476 87.202ZM81.4492 80.1609C80.4253 79.6253 79.25 79.4517 78.1148 79.6684C76.9795 79.8851 75.9511 80.4793 75.1971 81.3543C75.0261 81.5459 74.8954 81.7698 74.8127 82.0128C74.7299 82.2558 74.6969 82.5129 74.7154 82.7688C74.734 83.0248 74.8038 83.2745 74.9208 83.503C75.0377 83.7315 75.1994 83.9342 75.3962 84.0992C75.5701 84.268 75.7758 84.4006 76.0014 84.4894C76.2269 84.5781 76.4679 84.6213 76.7103 84.6163C76.9873 84.622 77.2621 84.5681 77.5164 84.4582C77.7706 84.3484 77.9982 84.1853 78.1838 83.9798C78.3425 83.7848 78.5615 83.6478 78.8064 83.5903C79.0514 83.5327 79.3085 83.5578 79.5377 83.6616C80.0024 83.9148 80.5488 83.9732 81.0566 83.824C81.5644 83.6748 81.9921 83.3302 82.2456 82.866C82.4991 82.4018 82.5576 81.856 82.4082 81.3487C82.2589 80.8414 81.9139 80.4141 81.4492 80.1609ZM127.285 68.3462C129.751 75.8165 129.158 83.958 125.637 90.9936C122.115 98.0292 115.951 103.387 108.488 105.899C106.226 106.598 103.885 107.012 101.52 107.132C103.008 99.8656 102.093 92.3127 98.911 85.6113C95.7291 78.9099 90.4533 73.4229 83.8783 69.9772C80.1334 67.9889 76.0588 66.695 71.852 66.1583C72.4701 63.0241 72.3493 59.7892 71.4991 56.7098C70.649 53.6303 69.0928 50.7908 66.9539 48.4162C64.4186 45.5495 62.5308 42.1712 61.4186 38.5109C59.2667 32.0724 59.7606 25.0439 62.792 18.9689C65.8233 12.8939 71.1443 8.26903 77.5864 6.10984C84.1236 4.26099 91.1277 5.07269 97.0676 8.36748C103.007 11.6623 107.4 17.1722 109.285 23.6927C110.437 27.3545 110.791 31.2205 110.32 35.0301C109.849 38.4505 110.248 41.9343 111.48 45.1602C112.712 48.386 114.737 51.2501 117.369 53.4882C122.045 57.3766 125.49 62.5384 127.285 68.3462ZM92.3206 24.1104C91.9506 23.0371 91.2326 22.1178 90.2805 21.4981C89.3284 20.8784 88.1965 20.5938 87.0641 20.6893C86.8023 20.7094 86.5471 20.781 86.3131 20.9C86.0792 21.019 85.8711 21.1831 85.7008 21.3827C85.5306 21.5824 85.4015 21.8137 85.3211 22.0633C85.2407 22.313 85.2105 22.5761 85.2323 22.8375C85.2524 23.099 85.3241 23.3539 85.4432 23.5876C85.5623 23.8214 85.7265 24.0292 85.9264 24.1993C86.1262 24.3694 86.3578 24.4983 86.6077 24.5786C86.8577 24.659 87.121 24.6891 87.3827 24.6674C87.3827 24.6674 88.2986 24.5878 88.4977 25.3039C88.6254 25.7096 88.88 26.0637 89.224 26.3143C89.568 26.5649 89.9834 26.6987 90.4092 26.6962C90.6104 26.6892 90.8105 26.6626 91.0065 26.6166C91.5115 26.4555 91.9327 26.1022 92.1787 25.6331C92.4246 25.1639 92.4757 24.6169 92.3206 24.1104ZM96.2232 19.3368C96.473 19.2632 96.7056 19.1406 96.9074 18.9762C97.1092 18.8117 97.2761 18.6088 97.3985 18.3791C97.5208 18.1495 97.5961 17.8978 97.62 17.6387C97.6438 17.3797 97.6157 17.1185 97.5373 16.8704C97.1845 15.7913 96.4776 14.8626 95.5309 14.2346C94.5843 13.6065 93.4532 13.3158 92.3206 13.4095C91.7955 13.4591 91.3105 13.7112 90.9684 14.1123C90.6264 14.5134 90.4543 15.0319 90.4888 15.5577C90.5028 15.8178 90.569 16.0724 90.6835 16.3065C90.7981 16.5405 90.9586 16.7491 91.1555 16.9198C91.3525 17.0906 91.5818 17.22 91.8299 17.3003C92.0779 17.3807 92.3396 17.4104 92.5994 17.3876C92.6392 17.3876 93.5153 17.3478 93.7542 18.0241C93.872 18.4357 94.1241 18.7962 94.4704 19.0485C94.8167 19.3007 95.2374 19.4302 95.6657 19.4164C95.855 19.4265 96.0444 19.3995 96.2232 19.3368ZM103.351 25.1447C103 24.0511 102.29 23.1073 101.337 22.4652C100.383 21.823 99.2416 21.5198 98.0948 21.6043C97.8331 21.6244 97.5779 21.696 97.3439 21.815C97.1099 21.934 96.9018 22.098 96.7316 22.2976C96.5613 22.4973 96.4323 22.7286 96.3519 22.9783C96.2714 23.228 96.2413 23.491 96.263 23.7524C96.2831 24.0139 96.3548 24.2689 96.4739 24.5026C96.593 24.7363 96.7573 24.9442 96.9571 25.1143C97.157 25.2843 97.3886 25.4133 97.6385 25.4936C97.8884 25.5739 98.1518 25.6041 98.4134 25.5823C98.6638 25.5552 98.9158 25.6157 99.1264 25.7536C99.337 25.8914 99.4932 26.098 99.5683 26.3381C99.696 26.7439 99.9505 27.098 100.295 27.3486C100.639 27.5992 101.054 27.733 101.48 27.7304C101.668 27.7208 101.854 27.6941 102.037 27.6509C102.542 27.4898 102.963 27.1365 103.209 26.6673C103.455 26.1982 103.506 25.6512 103.351 25.1447ZM111.117 71.6877C110.754 70.6097 110.038 69.6854 109.084 69.0646C108.13 68.4437 106.994 68.1626 105.86 68.2666C105.383 68.3599 104.957 68.6241 104.662 69.0094C104.367 69.3948 104.222 69.8747 104.257 70.3588C104.291 70.843 104.501 71.2979 104.848 71.6379C105.195 71.9779 105.654 72.1795 106.139 72.2049C106.378 72.2446 107.134 72.2446 107.294 72.8413C107.42 73.2512 107.673 73.6106 108.016 73.8679C108.36 74.1252 108.776 74.2672 109.205 74.2734C109.41 74.2724 109.613 74.2319 109.803 74.1541C110.302 73.9981 110.72 73.6518 110.966 73.1902C111.212 72.7286 111.266 72.1889 111.117 71.6877ZM115.059 66.9141C115.564 66.753 115.985 66.3996 116.231 65.9305C116.477 65.4614 116.528 64.9143 116.373 64.4079C116.01 63.3298 115.294 62.4056 114.34 61.7847C113.386 61.1639 112.25 60.8827 111.117 60.9868C110.855 61.0077 110.6 61.0798 110.367 61.1991C110.133 61.3184 109.926 61.4824 109.755 61.6819C109.585 61.8814 109.456 62.1124 109.375 62.3617C109.295 62.611 109.264 62.8737 109.285 63.1349C109.306 63.3961 109.378 63.6507 109.497 63.884C109.617 64.1173 109.781 64.3249 109.981 64.4948C110.18 64.6647 110.412 64.7937 110.661 64.8743C110.911 64.955 111.174 64.9857 111.435 64.9648C111.435 64.9648 112.351 64.8853 112.55 65.6013C112.678 66.0071 112.933 66.3612 113.277 66.6118C113.621 66.8624 114.036 66.9962 114.462 66.9936C114.663 66.9867 114.863 66.9601 115.059 66.9141ZM122.187 72.722C121.835 71.6209 121.119 70.6715 120.158 70.0285C119.196 69.3856 118.044 69.0871 116.891 69.1816C116.637 69.1982 116.388 69.2651 116.16 69.3783C115.932 69.4916 115.729 69.6491 115.562 69.8415C115.395 70.034 115.268 70.2576 115.189 70.4994C115.109 70.7412 115.079 70.9964 115.099 71.2501C115.097 71.5152 115.15 71.7778 115.256 72.0211C115.361 72.2643 115.516 72.4829 115.711 72.6627C115.906 72.8425 116.137 72.9796 116.388 73.0651C116.639 73.1507 116.905 73.1829 117.17 73.1596C117.421 73.1211 117.678 73.1716 117.896 73.3024C118.114 73.4331 118.28 73.6359 118.364 73.8756C118.492 74.2814 118.747 74.6355 119.091 74.8861C119.435 75.1367 119.85 75.2705 120.276 75.2679C120.478 75.2807 120.681 75.2537 120.873 75.1884C121.373 75.0324 121.791 74.6861 122.037 74.2245C122.283 73.7629 122.337 73.2231 122.187 72.722Z" fill="#070600"/>
<path d="M34.6183 59.4752C33.6012 58.9389 32.4316 58.7649 31.3023 58.9818C30.173 59.1987 29.1514 59.7937 28.406 60.6686C28.064 61.0542 27.8888 61.5595 27.9187 62.0738C27.9485 62.5882 28.181 63.0698 28.5653 63.4134C28.9205 63.7481 29.3911 63.9333 29.8794 63.9305C30.1563 63.9362 30.4312 63.8823 30.6855 63.7725C30.9397 63.6626 31.1673 63.4995 31.3528 63.2941C31.5216 63.1006 31.7475 62.9656 31.9979 62.9084C32.2483 62.8512 32.5105 62.8748 32.7466 62.9758C33.2124 63.2239 33.757 63.2796 34.2633 63.1308C34.7697 62.982 35.1974 62.6407 35.4545 62.1802C35.5792 61.9481 35.6564 61.6936 35.6818 61.4315C35.7072 61.1693 35.6802 60.9047 35.6024 60.6531C35.5246 60.4014 35.3975 60.1677 35.2286 59.9655C35.0597 59.7633 34.8522 59.5966 34.6183 59.4752Z" fill="#F3D6A3"/>
<path d="M18.6894 61.6631C19.0731 61.9716 19.5508 62.14 20.0433 62.1404C20.3197 62.1423 20.5934 62.0867 20.8471 61.9771C21.1008 61.8675 21.3288 61.7064 21.5168 61.5039C21.676 61.3448 22.1937 60.8277 22.7911 61.1459C23.2517 61.3879 23.7888 61.4402 24.2875 61.2915C24.7862 61.1428 25.2067 60.8049 25.4592 60.3503C25.5853 60.1206 25.6648 59.8683 25.693 59.6078C25.7212 59.3473 25.6977 59.0838 25.6237 58.8325C25.5497 58.5811 25.4267 58.3468 25.2618 58.1431C25.0968 57.9394 24.8933 57.7702 24.6627 57.6453C23.6521 57.1252 22.4945 56.964 21.38 57.1881C20.2656 57.4122 19.2606 58.0083 18.5301 58.8785C18.1857 59.2707 18.0095 59.7824 18.0393 60.3033C18.0691 60.8242 18.3025 61.3125 18.6894 61.6631Z" fill="#F3D6A3"/>
<path d="M26.0167 66.5163C25.0076 66.0038 23.856 65.8429 22.7448 66.0591C21.6337 66.2753 20.6268 66.8563 19.884 67.7097C19.7125 67.9048 19.5814 68.1321 19.4985 68.3782C19.4155 68.6244 19.3824 68.8845 19.4009 69.1436C19.4194 69.4026 19.4893 69.6554 19.6064 69.8873C19.7235 70.1192 19.8856 70.3255 20.0832 70.4943C20.257 70.6631 20.4627 70.7957 20.6883 70.8845C20.9139 70.9733 21.1549 71.0164 21.3973 71.0115C21.9521 70.9964 22.4798 70.7685 22.8707 70.375C23.03 70.2159 23.5477 69.6987 24.145 70.0169C24.3774 70.1414 24.6321 70.2186 24.8946 70.244C25.157 70.2693 25.4219 70.2424 25.6738 70.1646C25.9257 70.0869 26.1596 69.96 26.3621 69.7913C26.5645 69.6225 26.7313 69.4152 26.8529 69.1816C27.0921 68.7166 27.1384 68.1764 26.9819 67.6776C26.8254 67.1788 26.4787 66.7616 26.0167 66.5163Z" fill="#F3D6A3"/>
<path d="M65.5203 82.3488C65.8862 82.6614 66.353 82.831 66.8344 82.8262C67.1113 82.8319 67.3862 82.778 67.6405 82.6681C67.8947 82.5583 68.1223 82.3951 68.3078 82.1897C68.4671 82.0306 69.0246 81.5532 69.5822 81.8317C70.0479 82.0798 70.5925 82.1354 71.0989 81.9867C71.6052 81.8379 72.033 81.4966 72.2901 81.0361C72.4147 80.804 72.4919 80.5495 72.5173 80.2873C72.5427 80.0252 72.5157 79.7606 72.4379 79.509C72.3601 79.2573 72.2331 79.0236 72.0641 78.8214C71.8952 78.6192 71.6877 78.4525 71.4538 78.331C70.4419 77.8168 69.2859 77.6588 68.1729 77.8826C67.0599 78.1064 66.0551 78.6989 65.3212 79.5642C64.9817 79.9615 64.8123 80.4763 64.8495 80.9973C64.8868 81.5183 65.1277 82.0038 65.5203 82.3488Z" fill="#F3D6A3"/>
<path d="M72.8476 87.202C71.837 86.682 70.6794 86.5208 69.5649 86.7449C68.4504 86.969 67.4454 87.5651 66.715 88.4352C66.5387 88.6281 66.4036 88.8548 66.3179 89.1015C66.2322 89.3482 66.1975 89.6098 66.2162 89.8702C66.2348 90.1307 66.3063 90.3847 66.4262 90.6167C66.5462 90.8487 66.7122 91.0539 66.9141 91.2198C67.2541 91.5532 67.712 91.7391 68.1884 91.737C68.4779 91.7365 68.7636 91.672 69.0253 91.5482C69.2869 91.4244 69.5178 91.2444 69.7016 91.021C69.7016 91.021 70.299 90.3447 70.9361 90.7027C71.4008 90.9559 71.9472 91.0144 72.455 90.8652C72.9628 90.716 73.3905 90.3713 73.644 89.9071C73.8975 89.4429 73.956 88.8971 73.8066 88.3898C73.6573 87.8825 73.3123 87.4553 72.8476 87.202Z" fill="#F3D6A3"/>
<path d="M81.4492 80.1609C80.4253 79.6253 79.25 79.4517 78.1148 79.6684C76.9795 79.8851 75.9511 80.4793 75.1971 81.3543C75.0261 81.5459 74.8954 81.7698 74.8127 82.0128C74.7299 82.2558 74.6969 82.5129 74.7154 82.7688C74.734 83.0248 74.8038 83.2745 74.9208 83.503C75.0377 83.7315 75.1994 83.9342 75.3962 84.0992C75.5701 84.268 75.7758 84.4006 76.0014 84.4894C76.2269 84.5781 76.4679 84.6213 76.7103 84.6163C76.9873 84.622 77.2621 84.5681 77.5164 84.4582C77.7706 84.3484 77.9982 84.1853 78.1838 83.9798C78.3425 83.7848 78.5615 83.6478 78.8064 83.5903C79.0514 83.5327 79.3085 83.5578 79.5377 83.6616C80.0024 83.9148 80.5488 83.9732 81.0566 83.824C81.5644 83.6748 81.9921 83.3302 82.2456 82.866C82.4991 82.4018 82.5576 81.856 82.4082 81.3487C82.2589 80.8414 81.9139 80.4141 81.4492 80.1609Z" fill="#F3D6A3"/>
<path d="M111.117 71.6877C110.754 70.6097 110.038 69.6854 109.084 69.0646C108.13 68.4437 106.994 68.1626 105.86 68.2666C105.383 68.3599 104.957 68.6241 104.662 69.0094C104.367 69.3948 104.222 69.8747 104.257 70.3588C104.291 70.843 104.501 71.2979 104.848 71.6379C105.195 71.9779 105.654 72.1795 106.139 72.2049C106.378 72.2446 107.134 72.2446 107.294 72.8413C107.42 73.2512 107.673 73.6106 108.016 73.8679C108.36 74.1252 108.776 74.2672 109.205 74.2734C109.41 74.2724 109.613 74.2319 109.803 74.1541C110.302 73.9981 110.72 73.6518 110.966 73.1902C111.212 72.7286 111.266 72.1889 111.117 71.6877Z" fill="#F3D6A3"/>
<path d="M122.187 72.722C121.835 71.6209 121.119 70.6715 120.158 70.0285C119.196 69.3856 118.044 69.0871 116.891 69.1816C116.637 69.1982 116.388 69.2651 116.16 69.3783C115.932 69.4916 115.729 69.6491 115.562 69.8415C115.395 70.034 115.268 70.2576 115.189 70.4994C115.109 70.7412 115.079 70.9964 115.099 71.2501C115.097 71.5152 115.15 71.7778 115.256 72.0211C115.361 72.2643 115.516 72.4829 115.711 72.6627C115.906 72.8425 116.137 72.9796 116.388 73.0651C116.639 73.1507 116.905 73.1829 117.17 73.1596C117.421 73.1211 117.678 73.1716 117.896 73.3024C118.114 73.4331 118.28 73.6359 118.364 73.8756C118.492 74.2814 118.747 74.6355 119.091 74.8861C119.435 75.1367 119.85 75.2705 120.276 75.2679C120.478 75.2807 120.681 75.2537 120.873 75.1884C121.373 75.0324 121.791 74.6861 122.037 74.2245C122.283 73.7629 122.337 73.2231 122.187 72.722Z" fill="#F3D6A3"/>
<path d="M115.059 66.9141C115.564 66.753 115.985 66.3996 116.231 65.9305C116.477 65.4614 116.528 64.9143 116.373 64.4079C116.01 63.3298 115.294 62.4056 114.34 61.7847C113.386 61.1639 112.25 60.8827 111.117 60.9868C110.855 61.0077 110.6 61.0798 110.367 61.1991C110.133 61.3184 109.926 61.4824 109.755 61.6819C109.585 61.8814 109.456 62.1124 109.375 62.3617C109.295 62.611 109.264 62.8737 109.285 63.1349C109.306 63.3961 109.378 63.6507 109.497 63.884C109.617 64.1173 109.781 64.3249 109.981 64.4948C110.18 64.6647 110.412 64.7937 110.661 64.8743C110.911 64.955 111.174 64.9857 111.435 64.9648C111.435 64.9648 112.351 64.8853 112.55 65.6013C112.678 66.0071 112.933 66.3612 113.277 66.6118C113.621 66.8624 114.036 66.9962 114.462 66.9936C114.663 66.9867 114.863 66.9601 115.059 66.9141Z" fill="#F3D6A3"/>
<path d="M92.3206 24.1104C91.9506 23.0371 91.2326 22.1178 90.2805 21.4981C89.3284 20.8784 88.1965 20.5938 87.0641 20.6893C86.8023 20.7094 86.5471 20.781 86.3131 20.9C86.0792 21.019 85.8711 21.1831 85.7008 21.3827C85.5306 21.5824 85.4015 21.8137 85.3211 22.0633C85.2407 22.313 85.2105 22.5761 85.2323 22.8375C85.2524 23.099 85.3241 23.3539 85.4432 23.5876C85.5623 23.8214 85.7265 24.0292 85.9264 24.1993C86.1262 24.3694 86.3578 24.4983 86.6077 24.5786C86.8577 24.659 87.121 24.6891 87.3827 24.6674C87.3827 24.6674 88.2986 24.5878 88.4977 25.3039C88.6254 25.7096 88.88 26.0637 89.224 26.3143C89.568 26.5649 89.9834 26.6987 90.4092 26.6962C90.6104 26.6892 90.8105 26.6626 91.0065 26.6166C91.5115 26.4555 91.9327 26.1022 92.1787 25.6331C92.4246 25.1639 92.4757 24.6169 92.3206 24.1104Z" fill="#F3D6A3"/>
<path d="M103.351 25.1447C103 24.0511 102.29 23.1073 101.337 22.4652C100.383 21.823 99.2416 21.5198 98.0948 21.6043C97.8331 21.6244 97.5779 21.696 97.3439 21.815C97.1099 21.934 96.9018 22.098 96.7316 22.2976C96.5613 22.4973 96.4323 22.7286 96.3519 22.9783C96.2714 23.228 96.2413 23.491 96.263 23.7524C96.2831 24.0139 96.3548 24.2689 96.4739 24.5026C96.593 24.7363 96.7573 24.9442 96.9571 25.1143C97.157 25.2843 97.3886 25.4133 97.6385 25.4936C97.8884 25.5739 98.1518 25.6041 98.4134 25.5823C98.6638 25.5552 98.9158 25.6157 99.1264 25.7536C99.337 25.8914 99.4932 26.098 99.5683 26.3381C99.696 26.7439 99.9505 27.098 100.295 27.3486C100.639 27.5992 101.054 27.733 101.48 27.7304C101.668 27.7208 101.854 27.6941 102.037 27.6509C102.542 27.4898 102.963 27.1365 103.209 26.6673C103.455 26.1982 103.506 25.6512 103.351 25.1447Z" fill="#F3D6A3"/>
<path d="M96.2232 19.3368C96.473 19.2632 96.7056 19.1406 96.9074 18.9762C97.1092 18.8117 97.2761 18.6088 97.3985 18.3791C97.5208 18.1495 97.5961 17.8978 97.62 17.6387C97.6438 17.3797 97.6157 17.1185 97.5373 16.8704C97.1845 15.7913 96.4776 14.8626 95.5309 14.2346C94.5843 13.6065 93.4532 13.3158 92.3206 13.4095C91.7955 13.4591 91.3105 13.7112 90.9684 14.1123C90.6264 14.5134 90.4543 15.0319 90.4888 15.5577C90.5028 15.8178 90.569 16.0724 90.6835 16.3065C90.7981 16.5405 90.9586 16.7491 91.1555 16.9198C91.3525 17.0906 91.5818 17.22 91.8299 17.3003C92.0779 17.3807 92.3396 17.4104 92.5994 17.3876C92.6392 17.3876 93.5153 17.3478 93.7542 18.0241C93.872 18.4357 94.1241 18.7962 94.4704 19.0485C94.8167 19.3007 95.2374 19.4302 95.6657 19.4164C95.855 19.4265 96.0444 19.3995 96.2232 19.3368Z" fill="#F3D6A3"/>
</g>
<path d="M28.5033 1.98902V8.35387C28.5033 8.88139 28.7131 9.3873 29.0865 9.76032C29.4599 10.1333 29.9663 10.3429 30.4944 10.3429C31.0225 10.3429 31.5289 10.1333 31.9023 9.76032C32.2757 9.3873 32.4855 8.88139 32.4855 8.35387V1.98902C32.4855 1.4615 32.2757 0.955583 31.9023 0.58257C31.5289 0.209557 31.0225 0 30.4944 0C29.9663 0 29.4599 0.209557 29.0865 0.58257C28.7131 0.955583 28.5033 1.4615 28.5033 1.98902Z" fill="#070600"/>
<path d="M38.3951 15.1165H35.2093C34.6813 15.1165 34.1748 14.907 33.8014 14.534C33.428 14.1609 33.2182 13.655 33.2182 13.1275C33.2182 12.6 33.428 12.0941 33.8014 11.7211C34.1748 11.348 34.6813 11.1385 35.2093 11.1385H38.3951C38.9232 11.1385 39.4296 11.348 39.803 11.7211C40.1764 12.0941 40.3862 12.6 40.3862 13.1275C40.3862 13.655 40.1764 14.1609 39.803 14.534C39.4296 14.907 38.9232 15.1165 38.3951 15.1165Z" fill="#070600"/>
<path d="M31.8386 25.5969C31.4652 25.9699 30.9587 26.1794 30.4307 26.1794C29.9033 26.1794 29.3974 25.9664 29.0241 25.5943C28.6509 25.2221 28.4406 24.7172 28.4396 24.1904V17.8256C28.4396 17.298 28.6493 16.7921 29.0227 16.4191C29.3962 16.0461 29.9026 15.8366 30.4307 15.8366C30.9587 15.8366 31.4652 16.0461 31.8386 16.4191C32.212 16.7921 32.4218 17.298 32.4218 17.8256V24.1904C32.4218 24.7179 32.212 25.2239 31.8386 25.5969Z" fill="#070600"/>
<path d="M25.7277 15.0409H22.5419C22.0138 15.0409 21.5074 14.8314 21.134 14.4584C20.7606 14.0854 20.5508 13.5794 20.5508 13.0519C20.5508 12.5244 20.7606 12.0185 21.134 11.6455C21.5074 11.2725 22.0138 11.0629 22.5419 11.0629H25.7277C26.2557 11.0629 26.7622 11.2725 27.1356 11.6455C27.509 12.0185 27.7188 12.5244 27.7188 13.0519C27.7188 13.5794 27.509 14.0854 27.1356 14.4584C26.7622 14.8314 26.2557 15.0409 25.7277 15.0409Z" fill="#070600"/>
<path d="M138.609 49.2458C138.983 48.8728 139.489 48.6633 140.017 48.6633V48.6752C140.545 48.6752 141.052 48.8848 141.425 49.2578C141.799 49.6308 142.008 50.1367 142.008 50.6642V54.4553C142.008 54.9828 141.799 55.4887 141.425 55.8617C141.052 56.2347 140.545 56.4443 140.017 56.4443C139.489 56.4443 138.983 56.2347 138.609 55.8617C138.236 55.4887 138.026 54.9828 138.026 54.4553V50.6523C138.026 50.1248 138.236 49.6189 138.609 49.2458Z" fill="#070600"/>
<path d="M138.609 35.9473C138.983 35.5743 139.489 35.3647 140.017 35.3647V35.3766C140.543 35.3766 141.048 35.5846 141.421 35.955C141.794 36.3254 142.005 36.8283 142.008 37.3537V41.1567C142.008 41.6842 141.799 42.1902 141.425 42.5632C141.052 42.9362 140.545 43.1457 140.017 43.1457C139.489 43.1457 138.983 42.9362 138.609 42.5632C138.236 42.1902 138.026 41.6842 138.026 41.1567V37.3537C138.026 36.8262 138.236 36.3203 138.609 35.9473Z" fill="#070600"/>
<path d="M134.064 43.9016H135.298C135.827 43.9016 136.333 44.1111 136.706 44.4841C137.08 44.8572 137.29 45.3631 137.29 45.8906C137.29 46.4181 137.08 46.924 136.706 47.297C136.333 47.67 135.827 47.8796 135.298 47.8796H134.064C133.536 47.8796 133.029 47.67 132.656 47.297C132.283 46.924 132.073 46.4181 132.073 45.8906C132.073 45.3631 132.283 44.8572 132.656 44.4841C133.029 44.1111 133.536 43.9016 134.064 43.9016Z" fill="#070600"/>
<path d="M144.776 43.9016H146.011C146.539 43.9016 147.045 44.1111 147.419 44.4841C147.792 44.8572 148.002 45.3631 148.002 45.8906C148.002 46.4181 147.792 46.924 147.419 47.297C147.045 47.67 146.539 47.8796 146.011 47.8796H144.776C144.248 47.8796 143.742 47.67 143.368 47.297C142.995 46.924 142.785 46.4181 142.785 45.8906C142.785 45.3631 142.995 44.8572 143.368 44.4841C143.742 44.1111 144.248 43.9016 144.776 43.9016Z" fill="#070600"/>
<defs>
<filter id="filter0_d_236_2909" x="0" y="5.13867" width="135.785" height="130.19" filterUnits="userSpaceOnUse" color-interpolation-filters="sRGB">
<feFlood flood-opacity="0" result="BackgroundImageFix"/>
<feColorMatrix in="SourceAlpha" type="matrix" values="0 0 0 0 0 0 0 0 0 0 0 0 0 0 0 0 0 0 127 0" result="hardAlpha"/>
<feOffset dx="7" dy="7"/>
<feComposite in2="hardAlpha" operator="out"/>
<feColorMatrix type="matrix" values="0 0 0 0 0.992157 0 0 0 0 0.572549 0 0 0 0 0.105882 0 0 0 1 0"/>
<feBlend mode="normal" in2="BackgroundImageFix" result="effect1_dropShadow_236_2909"/>
<feBlend mode="normal" in="SourceGraphic" in2="effect1_dropShadow_236_2909" result="shape"/>
</filter>
</defs>
</svg>
