<svg width="120" height="120" viewBox="0 0 120 120" fill="none" xmlns="http://www.w3.org/2000/svg">
<circle cx="60" cy="60" r="60" fill="#FD921B"/>
<path fill-rule="evenodd" clip-rule="evenodd" d="M80.8896 13.8708C79.9461 14.0189 78.4167 14.3361 77.8298 14.5055C77.5679 14.5811 77.1345 14.5899 75.9411 14.5438C64.3213 14.095 55.3445 18.5569 49.7291 27.5727C49.5482 27.8632 49.2864 28.2788 49.1473 28.4961C49.0082 28.7134 48.8944 28.9027 48.8944 28.9169C48.8944 28.931 48.6977 29.2966 48.4572 29.7294C45.8908 34.3481 43.8834 40.2285 41.8649 49.0406C40.5434 54.8101 38.0429 59.619 34.2182 63.7466C26.9885 71.5492 24.9977 81.7093 28.885 90.9668C33.4666 101.878 44.6401 108.156 55.3539 105.838C60.7117 104.679 65.8231 102.052 69.2674 98.6867L70.262 97.7148L71.126 98.5707C81.6235 108.97 97.6537 106.004 98.2782 93.5481C98.6816 85.5012 88.7604 77.9534 77.7797 77.9534H76.9204L76.9571 77.7836C76.9773 77.6902 77.0315 77.2232 77.0776 76.7458C77.5141 72.2206 78.5612 68.9514 80.2079 66.9715C93.5956 50.876 97.1076 32.4268 89.0764 20.3843L88.712 19.8379L88.759 18.9125C88.9608 14.9309 86.0436 13.0619 80.8896 13.8708ZM84.6271 16.0675C86.2673 16.425 86.7572 17.4694 86.4137 19.8773L86.3486 20.3335L86.8362 21.0472C94.0554 31.6163 92.084 46.6629 81.5322 61.5291C80.5196 62.9557 78.9743 64.9916 78.7764 65.1601C78.7276 65.2016 78.4706 65.4903 78.2053 65.8017C76.0484 68.3331 73.0407 70.9361 71.1835 71.8789C70.8205 72.0631 68.1485 71.9263 65.9686 71.6117C63.8069 71.2998 63.7676 71.368 63.3683 76.113C63.2635 77.3585 63.1254 78.7252 63.0616 79.15C62.6507 81.8824 63.4028 83.1514 65.4691 83.212L66.065 83.2295L66.097 83.7803C66.1146 84.0833 66.1985 84.6318 66.2835 84.9992C66.4185 85.583 66.4275 85.7378 66.3544 86.2288C66.3084 86.5376 66.2708 86.9927 66.2708 87.2402C66.2708 87.4875 66.2452 87.6906 66.2141 87.6914C66.183 87.6923 65.9195 87.7285 65.6286 87.772C65.3377 87.8156 64.2266 87.8743 63.1593 87.9026L61.2188 87.9541L60.9922 88.171C60.8675 88.2903 60.6896 88.579 60.5967 88.8126C60.5038 89.0461 60.1801 89.7347 59.8774 90.3427C58.8158 92.4753 58.748 93.4671 59.6032 94.3553C60.4542 95.239 61.2436 95.371 64.333 95.1464L65.606 95.0538L66.1084 94.4801C66.3847 94.1646 66.7467 93.7318 66.9129 93.5184C67.2948 93.028 67.2406 93.0053 67.6343 93.821C67.8193 94.2042 68.1701 94.8358 68.4138 95.2247L68.857 95.9317L68.4894 96.3172C62.59 102.504 52.9203 105.467 45.5324 103.352C28.922 98.5962 23.8809 78.303 36.0263 65.0846C37.6505 63.3169 39.0685 61.3969 40.1653 59.4805C40.3612 59.138 40.5271 58.8579 40.5339 58.8582C40.5407 58.8585 40.5504 59.5972 40.5556 60.4999C40.5608 61.4025 40.6021 62.4601 40.6474 62.8501L40.7298 63.5593L40.2847 64.0955C40.0399 64.3905 39.6369 64.8865 39.3892 65.1978C39.1415 65.5092 38.693 66.0356 38.3926 66.3677C37.1511 67.7402 37.1202 68.7369 38.2797 70.0126C40.0449 71.9547 41.3194 72.943 41.9632 72.8692C42.7132 72.7832 42.8197 72.6318 43.9068 70.1038C44.2906 69.2113 44.7029 68.2664 44.823 68.0041C44.9431 67.7417 45.0414 67.5125 45.0414 67.4947C45.0414 67.4769 45.1786 67.1579 45.3463 66.7858C45.8127 65.7512 45.7759 65.0274 45.224 64.3733C44.7611 63.8249 43.2582 62.9876 42.5744 62.8973C42.0894 62.8332 42.0972 62.8587 42.0963 61.3485C42.0945 58.4501 42.6576 54.5005 43.4489 51.8623C43.613 51.315 43.922 50.1093 44.1353 49.1829C48.4533 30.4344 54.0803 21.9542 64.6842 18.2142C67.5565 17.2012 71.7561 16.6532 75.6767 16.7798C77.8225 16.8491 77.6767 16.858 78.7307 16.5924C81.1669 15.9785 83.3336 15.7856 84.6271 16.0675ZM79.3786 19.3354C78.3916 19.6649 77.8023 19.9907 76.4961 20.9291C76.0326 21.2621 75.5775 21.5855 75.4849 21.6477C71.5795 24.2716 71.7895 25.8172 76.3566 28.0635C77.287 28.521 79.2547 29.2709 79.5252 29.2709C79.7103 29.2709 80.2617 26.5758 80.691 23.5724C81.2403 19.7305 80.9549 18.8092 79.3786 19.3354ZM71.5215 19.5909C70.1542 19.6858 67.7818 20.0484 67.7818 20.1626C67.7818 20.2478 68.993 21.9496 69.0536 21.9496C69.0884 21.9496 69.3921 21.7054 70.0105 21.1801C70.0936 21.1095 70.5614 20.7295 71.05 20.3357C71.5387 19.9419 71.9127 19.6085 71.8811 19.5948C71.8495 19.5811 71.6877 19.5794 71.5215 19.5909ZM64.4576 21.1156C62.6019 21.6926 59.475 23.7086 57.6611 25.4975C55.3509 27.7758 55.1797 28.4479 56.4702 30.1766C58.2393 32.5466 59.4165 32.7625 60.7769 30.9662C62.6708 28.4657 64.0824 26.8098 66.019 24.8171C67.1923 23.6098 67.2302 23.2109 66.2967 21.8947C65.7731 21.1564 65.1606 20.897 64.4576 21.1156ZM85.1325 23.7628C85.1138 23.8241 85.06 24.4177 85.0129 25.0819C84.9659 25.7461 84.8562 26.8794 84.7691 27.6003C84.5779 29.1817 84.6129 29.4088 85.0845 29.6492C85.4007 29.8104 85.3447 29.8117 87.0658 29.6043C87.5752 29.543 87.5612 29.6064 87.2691 28.6816C86.6103 26.5951 85.2347 23.4284 85.1325 23.7628ZM69.3552 26.9333C68.5166 27.3758 64.4711 32.1773 63.9273 33.3754C62.9673 35.4907 63.333 36.941 65.062 37.8756C67.8562 39.3861 69.9137 40.2773 72.122 40.9338C74.1991 41.5513 75.1128 41.0633 76.2039 38.7541C77.1669 36.7161 78.5862 33.0982 78.5849 32.6849C78.5825 31.9394 78.2785 31.6509 76.6689 30.8668C74.5667 29.8428 73.0601 28.8892 71.4837 27.585C70.4629 26.7405 69.9931 26.5967 69.3552 26.9333ZM28.836 30.9804C20.9039 31.6007 12.8708 40.1888 12.5029 48.442L12.4575 49.4609L12.2516 49.7251C10.4976 51.9757 11.2571 54.0532 14.1417 54.895C14.6611 55.0466 15.392 55.3174 15.766 55.4968C20.833 57.9281 25.8764 57.4744 31.3011 54.0991C38.0454 49.9028 41.151 44.5558 39.7132 39.6154C38.0531 33.9112 33.8659 30.587 28.836 30.9804ZM53.4035 32.0219C52.8566 32.2167 52.6306 32.4805 52.0747 33.5731C50.0281 37.5951 48.0514 43.8212 48.5164 44.781C48.9242 45.6225 51.6778 47.538 52.4747 47.5346C53.6579 47.5295 53.906 47.1248 55.1201 43.2182C56.0245 40.3082 56.4771 39.0549 57.4317 36.8186C57.8271 35.892 57.7569 35.0892 57.2303 34.5165C57.154 34.4335 56.7553 33.9814 56.3444 33.5118C55.0759 32.0625 54.3383 31.6889 53.4035 32.0219ZM86.9713 32.7467C84.713 32.9473 83.6568 33.9498 82.6501 36.8484C82.4035 37.5585 82.062 38.53 81.8911 39.0074C81.1498 41.0785 81.7509 42.1535 83.5593 41.9909C84.383 41.9169 87.7516 41.35 87.8309 41.2721C88.196 40.9139 88.4684 33.2699 88.1354 32.7316C88.0914 32.6605 87.9158 32.6627 86.9713 32.7467ZM61.6814 39.5667C60.4415 39.9683 60.0639 40.5669 59.1296 43.6115C58.894 44.3794 58.3942 45.9211 58.019 47.0375L57.337 49.0672L57.3741 49.5297C57.4176 50.0702 57.6774 50.6312 58.048 50.9846C58.3276 51.2512 58.6895 51.4395 60.3024 52.1571C65.3748 54.4142 65.6163 54.4062 67.7446 51.9095C71.5989 47.388 72.423 45.7914 71.6593 44.3254C71.2017 43.4468 71.0107 43.315 68.7639 42.3281C67.9952 41.9905 66.6353 41.3369 65.7419 40.8757C62.9146 39.4161 63.1184 39.5046 62.5311 39.4826C62.2313 39.4713 61.8633 39.5078 61.6814 39.5667ZM87.0406 44.4712C86.9819 44.5263 84.5247 44.7459 82.7783 44.8521L81.0407 44.9578L80.4213 45.1781C79.4124 45.537 78.5491 46.3344 77.9089 47.4985C77.2874 48.6285 75.3202 51.6791 74.6909 52.4888C73.4094 54.1375 73.7522 55.7177 75.4948 56.1947C76.221 56.3934 79.8353 56.3917 80.5496 56.1922C82.6716 55.5997 84.3659 52.8962 86.5182 46.6683C86.7623 45.9621 86.8766 45.5947 87.1702 44.5738C87.204 44.4562 87.124 44.393 87.0406 44.4712ZM47.4475 49.1226C47.0647 49.3247 46.8772 49.6677 46.6602 50.563C46.1949 52.483 45.6607 54.0955 44.6284 56.6958C43.7427 58.927 44.0082 59.8342 45.8658 60.9247C47.2809 61.7555 47.8171 61.5706 48.5189 60.0103C48.7386 59.5217 49.0368 58.8672 49.1815 58.5559C49.3262 58.2445 49.538 57.769 49.6522 57.4992C49.7663 57.2294 50.0193 56.635 50.2144 56.1784C52.0512 51.8785 52.0314 51.4519 49.9252 49.9592C48.4378 48.9051 48.0852 48.786 47.4475 49.1226ZM55.8042 54.0277C55.363 54.1643 54.9854 54.5794 54.6313 55.3168C54.447 55.7007 53.6242 57.3559 52.8029 58.9949C50.6142 63.3628 50.6036 63.5648 52.5208 64.3996C52.7909 64.5172 53.1522 64.676 53.3237 64.7524C58.2088 66.9286 58.8948 66.8992 59.7373 64.4777C60.4089 62.5471 60.9471 61.2709 61.8237 59.5301C63.1269 56.9421 63.0516 56.7266 60.4678 55.647C59.6912 55.3225 58.547 54.8221 57.9251 54.535C56.7485 53.9918 56.2812 53.88 55.8042 54.0277ZM69.6327 58.8656C69.01 59.0571 68.8873 59.2071 67.3845 61.6127C64.2704 66.5978 65.34 68.6994 71.0415 68.7979L73.3568 68.8378L73.4129 68.6594C73.6526 67.8979 75.3193 64.9583 75.718 64.594C75.7407 64.5733 75.9256 64.3355 76.1288 64.0657C76.3321 63.7959 76.6918 63.3543 76.9281 63.0845C77.4767 62.4582 79.7168 59.6647 79.7178 59.6058C79.7183 59.5812 78.9281 59.5391 77.9621 59.512C75.6945 59.4486 72.1959 59.1155 71.0682 58.8556C70.6895 58.7684 69.9317 58.7736 69.6327 58.8656ZM49.2256 67.0027C48.6541 67.262 47.9104 68.7275 46.0185 73.322C44.8981 76.0432 44.8808 75.982 47.1923 77.5073C48.0246 78.0564 48.7905 78.5627 48.8944 78.6323C48.9983 78.7019 49.2533 78.8549 49.461 78.9723C50.7371 79.693 51.1546 79.917 52.1053 80.3912C57.194 82.9289 57.4007 82.7752 57.7679 76.1797C57.8303 75.0589 57.9021 73.9041 57.9275 73.6135C58.1496 71.0702 57.1538 69.7381 54.0976 68.4903C53.2511 68.1447 52.0264 67.6361 51.3759 67.3601C50.076 66.8085 49.7668 66.7572 49.2256 67.0027ZM75.7487 71.2395C75.3329 72.7777 75.0645 74.3735 74.8116 76.8094C74.6427 78.4371 74.7764 78.2249 73.7301 78.5254C73.2625 78.6597 72.6906 78.8532 72.4594 78.9553L72.039 79.141L72.0667 77.3207C72.1038 74.8775 72.2124 73.1163 72.3332 73.0003C72.3854 72.9503 72.853 72.664 73.3724 72.3642C73.8918 72.0645 74.6543 71.5864 75.0668 71.3019C75.9338 70.7039 75.8924 70.7077 75.7487 71.2395ZM34.5778 73.1138C33.4594 73.4089 32.8314 74.4483 32.1588 77.1174C30.8545 82.2932 31.6552 84.3151 36.2215 87.3757C37.8884 88.493 38.7879 88.1386 39.0646 86.2559C39.255 84.9602 39.8387 82.193 40.3251 80.2804C40.9189 77.945 40.9405 77.9993 38.3809 75.3943C36.1583 73.1323 35.6541 72.8299 34.5778 73.1138ZM43.5796 80.7056C43.3249 80.8984 42.4027 84.8545 42.137 86.8942C41.658 90.5714 42.9631 91.8057 49.1697 93.5458C51.1426 94.0989 51.8857 93.9187 52.7759 92.6714C55.7609 88.4892 55.7221 87.007 52.5915 85.6191C49.9277 84.4382 46.5545 82.4506 44.4261 80.8076C44.1258 80.5758 43.8026 80.5368 43.5796 80.7056ZM33.6466 89.9605C34.8745 92.2735 36.6566 94.5531 38.6144 96.3153C39.2683 96.9038 39.2424 96.9033 39.1451 96.3273C38.9915 95.4174 38.8507 94.2502 38.8001 93.4683L38.7481 92.6644L38.4006 92.4662C37.0047 91.6699 35.5069 90.7298 34.27 89.8734C33.816 89.5591 33.3961 89.2732 33.3369 89.2381C33.2776 89.2029 33.417 89.528 33.6466 89.9605ZM42.6431 94.8624C42.4277 94.949 42.1712 95.3652 42.1708 95.629C42.1703 96.0057 42.8295 98.5293 43.088 99.1401L43.1904 99.382L44.0592 99.041C44.8716 98.7221 46.5753 97.9185 47.1438 97.5861C47.9467 97.1167 47.8903 96.4934 47.0199 96.2132C46.7038 96.1115 44.8234 95.4329 43.7792 95.0439C43.0497 94.7721 42.9197 94.7513 42.6431 94.8624ZM53.9562 98.0904C52.9569 98.9083 51.4603 99.9016 50.1081 100.644C49.0305 101.236 49.0195 101.231 51.3355 101.177C54.7608 101.096 57.2905 100.454 60.2543 98.9117L61.1506 98.4454L59.9143 98.3932C58.1381 98.3182 55.7385 98.1066 54.4851 97.9145C54.2705 97.8816 54.1708 97.9148 53.9562 98.0904Z" fill="#D89C54"/>
<path fill-rule="evenodd" clip-rule="evenodd" d="M84.6271 16.0675C86.2673 16.425 86.7572 17.4694 86.4137 19.8773L86.3486 20.3335L86.8362 21.0472C94.0554 31.6163 92.084 46.6629 81.5322 61.5291C80.5196 62.9557 78.9743 64.9916 78.7764 65.1601C78.7276 65.2016 78.4706 65.4903 78.2053 65.8017C76.0484 68.3331 73.0407 70.9361 71.1835 71.8789C70.8205 72.0631 68.1485 71.9263 65.9686 71.6117C63.8069 71.2998 63.7676 71.368 63.3683 76.113C63.2635 77.3585 63.1254 78.7252 63.0616 79.15C62.6507 81.8824 63.4028 83.1514 65.4691 83.212L66.065 83.2295L66.097 83.7803C66.1146 84.0833 66.1985 84.6318 66.2835 84.9992C66.4185 85.583 66.4275 85.7378 66.3544 86.2288C66.3084 86.5376 66.2708 86.9927 66.2708 87.2402C66.2708 87.4875 66.2452 87.6906 66.2141 87.6914C66.183 87.6923 65.9195 87.7285 65.6286 87.772C65.3377 87.8156 64.2266 87.8743 63.1593 87.9026L61.2188 87.9541L60.9922 88.171C60.8675 88.2903 60.6896 88.579 60.5967 88.8126C60.5038 89.0461 60.1801 89.7347 59.8774 90.3427C58.8158 92.4753 58.748 93.4671 59.6032 94.3553C60.4542 95.239 61.2436 95.371 64.333 95.1464L65.606 95.0538L66.1084 94.4801C66.3847 94.1646 66.7467 93.7318 66.9129 93.5184C67.2948 93.028 67.2406 93.0053 67.6343 93.821C67.8193 94.2042 68.1701 94.8358 68.4138 95.2247L68.857 95.9317L68.4894 96.3172C62.59 102.504 52.9203 105.467 45.5324 103.352C28.922 98.5962 23.8809 78.303 36.0263 65.0846C37.6505 63.3169 39.0685 61.3969 40.1653 59.4805C40.3612 59.138 40.5271 58.8579 40.5339 58.8582C40.5407 58.8585 40.5504 59.5972 40.5556 60.4999C40.5608 61.4025 40.6021 62.4601 40.6474 62.8501L40.7298 63.5593L40.2847 64.0955C40.0399 64.3905 39.6369 64.8865 39.3892 65.1978C39.1415 65.5092 38.693 66.0356 38.3926 66.3677C37.1511 67.7402 37.1202 68.7369 38.2797 70.0126C40.0449 71.9547 41.3194 72.943 41.9632 72.8692C42.7132 72.7832 42.8197 72.6318 43.9068 70.1038C44.2906 69.2113 44.7029 68.2664 44.823 68.0041C44.9431 67.7417 45.0414 67.5125 45.0414 67.4947C45.0414 67.4769 45.1786 67.1579 45.3463 66.7858C45.8127 65.7512 45.7759 65.0274 45.224 64.3733C44.7611 63.8249 43.2582 62.9876 42.5744 62.8973C42.0894 62.8332 42.0972 62.8587 42.0963 61.3485C42.0945 58.4501 42.6576 54.5005 43.4489 51.8623C43.613 51.315 43.922 50.1093 44.1353 49.1829C48.4533 30.4344 54.0803 21.9542 64.6842 18.2142C67.5565 17.2012 71.7561 16.6532 75.6767 16.7798C77.8225 16.8491 77.6767 16.858 78.7307 16.5924C81.1669 15.9785 83.3336 15.7856 84.6271 16.0675ZM76.4961 20.9291C77.8023 19.9907 78.3916 19.6649 79.3786 19.3354C80.9549 18.8092 81.2403 19.7305 80.691 23.5724C80.2617 26.5758 79.7103 29.2709 79.5252 29.2709C79.2547 29.2709 77.287 28.521 76.3566 28.0635C71.7895 25.8172 71.5795 24.2716 75.4849 21.6477C75.5775 21.5855 76.0326 21.2621 76.4961 20.9291ZM67.7818 20.1626C67.7818 20.0484 70.1542 19.6858 71.5215 19.5909C71.6877 19.5794 71.8495 19.5811 71.8811 19.5948C71.9127 19.6085 71.5387 19.9419 71.05 20.3357C70.5614 20.7295 70.0936 21.1095 70.0105 21.1801C69.3921 21.7054 69.0884 21.9496 69.0536 21.9496C68.993 21.9496 67.7818 20.2478 67.7818 20.1626ZM57.6611 25.4975C59.475 23.7086 62.6019 21.6926 64.4576 21.1156C65.1606 20.897 65.7731 21.1564 66.2967 21.8947C67.2302 23.2109 67.1923 23.6098 66.019 24.8171C64.0824 26.8098 62.6708 28.4657 60.7769 30.9662C59.4165 32.7625 58.2393 32.5466 56.4702 30.1766C55.1797 28.4479 55.3509 27.7758 57.6611 25.4975ZM85.0129 25.0819C85.06 24.4177 85.1138 23.8241 85.1325 23.7628C85.2347 23.4284 86.6103 26.5951 87.2691 28.6816C87.5612 29.6064 87.5752 29.543 87.0658 29.6043C85.3447 29.8117 85.4007 29.8104 85.0845 29.6492C84.6129 29.4088 84.5779 29.1817 84.7691 27.6003C84.8562 26.8794 84.9659 25.7461 85.0129 25.0819ZM63.9273 33.3754C64.4711 32.1773 68.5166 27.3758 69.3552 26.9333C69.9931 26.5967 70.4629 26.7405 71.4837 27.585C73.0601 28.8892 74.5667 29.8428 76.6689 30.8668C78.2785 31.6509 78.5825 31.9394 78.5849 32.6849C78.5862 33.0982 77.1669 36.7161 76.2039 38.7541C75.1128 41.0633 74.1991 41.5513 72.122 40.9338C69.9137 40.2773 67.8562 39.3861 65.062 37.8756C63.333 36.941 62.9673 35.4907 63.9273 33.3754ZM52.0747 33.5731C52.6306 32.4805 52.8566 32.2167 53.4035 32.0219C54.3383 31.6889 55.0759 32.0625 56.3444 33.5118C56.7553 33.9814 57.154 34.4335 57.2303 34.5165C57.7569 35.0892 57.8271 35.892 57.4317 36.8186C56.4771 39.0549 56.0245 40.3082 55.1201 43.2182C53.906 47.1248 53.6579 47.5295 52.4747 47.5346C51.6778 47.538 48.9242 45.6225 48.5164 44.781C48.0514 43.8212 50.0281 37.5951 52.0747 33.5731ZM82.6501 36.8484C83.6568 33.9498 84.713 32.9473 86.9713 32.7467C87.9158 32.6627 88.0914 32.6605 88.1354 32.7316C88.4684 33.2699 88.196 40.9139 87.8309 41.2721C87.7516 41.35 84.383 41.9169 83.5593 41.9909C81.7509 42.1535 81.1498 41.0785 81.8911 39.0074C82.062 38.53 82.4035 37.5585 82.6501 36.8484ZM59.1296 43.6115C60.0639 40.5669 60.4415 39.9683 61.6814 39.5667C61.8633 39.5078 62.2313 39.4713 62.5311 39.4826C63.1184 39.5046 62.9146 39.4161 65.7419 40.8757C66.6353 41.3369 67.9952 41.9905 68.7639 42.3281C71.0107 43.315 71.2017 43.4468 71.6593 44.3254C72.423 45.7914 71.5989 47.388 67.7446 51.9095C65.6163 54.4062 65.3748 54.4142 60.3024 52.1571C58.6895 51.4395 58.3276 51.2512 58.048 50.9846C57.6774 50.6312 57.4176 50.0702 57.3741 49.5297L57.337 49.0672L58.019 47.0375C58.3942 45.9211 58.894 44.3794 59.1296 43.6115ZM82.7783 44.8521C84.5247 44.7459 86.9819 44.5263 87.0406 44.4712C87.124 44.393 87.204 44.4562 87.1702 44.5738C86.8766 45.5947 86.7623 45.9621 86.5182 46.6683C84.3659 52.8962 82.6716 55.5997 80.5496 56.1922C79.8353 56.3917 76.221 56.3934 75.4948 56.1947C73.7522 55.7177 73.4094 54.1375 74.6909 52.4888C75.3202 51.6791 77.2874 48.6285 77.9089 47.4985C78.5491 46.3344 79.4124 45.537 80.4213 45.1781L81.0407 44.9578L82.7783 44.8521ZM46.6602 50.563C46.8772 49.6677 47.0647 49.3247 47.4475 49.1226C48.0852 48.786 48.4378 48.9051 49.9252 49.9592C52.0314 51.4519 52.0512 51.8785 50.2144 56.1784C50.0193 56.635 49.7663 57.2294 49.6522 57.4992C49.538 57.769 49.3262 58.2445 49.1815 58.5559C49.0368 58.8672 48.7386 59.5217 48.5189 60.0103C47.8171 61.5706 47.2809 61.7555 45.8658 60.9247C44.0082 59.8342 43.7427 58.927 44.6284 56.6958C45.6607 54.0955 46.1949 52.483 46.6602 50.563ZM54.6313 55.3168C54.9854 54.5794 55.363 54.1643 55.8042 54.0277C56.2812 53.88 56.7485 53.9918 57.9251 54.535C58.547 54.8221 59.6912 55.3225 60.4678 55.647C63.0516 56.7266 63.1269 56.9421 61.8237 59.5301C60.9471 61.2709 60.4089 62.5471 59.7373 64.4777C58.8948 66.8992 58.2088 66.9286 53.3237 64.7524C53.1522 64.676 52.7909 64.5172 52.5208 64.3996C50.6036 63.5648 50.6142 63.3628 52.8029 58.9949C53.6242 57.3559 54.447 55.7007 54.6313 55.3168ZM67.3845 61.6127C68.8873 59.2071 69.01 59.0571 69.6327 58.8656C69.9317 58.7736 70.6895 58.7684 71.0682 58.8556C72.1959 59.1155 75.6945 59.4486 77.9621 59.512C78.9281 59.5391 79.7183 59.5812 79.7178 59.6058C79.7168 59.6647 77.4767 62.4582 76.9281 63.0845C76.6918 63.3543 76.3321 63.7959 76.1288 64.0657C75.9256 64.3355 75.7407 64.5733 75.718 64.594C75.3193 64.9583 73.6526 67.8979 73.4129 68.6594L73.3568 68.8378L71.0415 68.7979C65.34 68.6994 64.2704 66.5978 67.3845 61.6127ZM46.0185 73.322C47.9104 68.7275 48.6541 67.262 49.2256 67.0027C49.7668 66.7572 50.076 66.8085 51.3759 67.3601C52.0264 67.6361 53.2511 68.1447 54.0976 68.4903C57.1538 69.7381 58.1496 71.0702 57.9275 73.6135C57.9021 73.9041 57.8303 75.0589 57.7679 76.1797C57.4007 82.7752 57.194 82.9289 52.1053 80.3912C51.1546 79.917 50.7371 79.693 49.461 78.9723C49.2533 78.8549 48.9983 78.7019 48.8944 78.6323C48.7905 78.5627 48.0246 78.0564 47.1923 77.5073C44.8808 75.982 44.8981 76.0432 46.0185 73.322ZM32.1588 77.1174C32.8314 74.4483 33.4594 73.4089 34.5778 73.1138C35.6541 72.8299 36.1583 73.1323 38.3809 75.3943C40.9405 77.9993 40.9189 77.945 40.3251 80.2804C39.8387 82.193 39.255 84.9602 39.0646 86.2559C38.7879 88.1386 37.8884 88.493 36.2215 87.3757C31.6552 84.3151 30.8545 82.2932 32.1588 77.1174ZM42.137 86.8942C42.4027 84.8545 43.3249 80.8984 43.5796 80.7056C43.8026 80.5368 44.1258 80.5758 44.4261 80.8076C46.5545 82.4506 49.9277 84.4382 52.5915 85.6191C55.7221 87.007 55.7609 88.4892 52.7759 92.6714C51.8857 93.9187 51.1426 94.0989 49.1697 93.5458C42.9631 91.8057 41.658 90.5714 42.137 86.8942ZM38.6144 96.3153C36.6566 94.5531 34.8745 92.2735 33.6466 89.9605C33.417 89.528 33.2776 89.2029 33.3369 89.2381C33.3961 89.2732 33.816 89.5591 34.27 89.8734C35.5069 90.7298 37.0047 91.6699 38.4006 92.4662L38.7481 92.6644L38.8001 93.4683C38.8507 94.2502 38.9915 95.4174 39.1451 96.3273C39.2424 96.9033 39.2683 96.9038 38.6144 96.3153ZM42.1708 95.629C42.1712 95.3652 42.4277 94.949 42.6431 94.8624C42.9197 94.7513 43.0497 94.7721 43.7792 95.0439C44.8234 95.4329 46.7038 96.1115 47.0199 96.2132C47.8903 96.4934 47.9467 97.1167 47.1438 97.5861C46.5753 97.9185 44.8716 98.7221 44.0592 99.041L43.1904 99.382L43.088 99.1401C42.8295 98.5293 42.1703 96.0057 42.1708 95.629ZM50.1081 100.644C51.4603 99.9016 52.9569 98.9083 53.9562 98.0904C54.1708 97.9148 54.2705 97.8816 54.4851 97.9145C55.7385 98.1066 58.1381 98.3182 59.9143 98.3932L61.1506 98.4454L60.2543 98.9117C57.2905 100.454 54.7608 101.096 51.3355 101.177C49.0195 101.231 49.0305 101.236 50.1081 100.644Z" fill="#F3D6A3"/>
<path fill-rule="evenodd" clip-rule="evenodd" d="M81.3116 13.811C80.3316 13.9455 79.3781 14.1296 78.4769 14.3584L77.721 14.5502L74.6218 14.5657C65.7808 14.6099 59.6876 16.8138 54.3334 21.9038C48.7631 27.1993 45.0949 35.0838 42.0403 48.3268C40.5499 54.7886 38.1498 59.5564 34.3427 63.6183C25.1285 73.4491 24.4544 86.9595 32.6622 97.2972C38.5022 104.653 48.1951 107.968 56.7067 105.52C62.1555 103.954 66.9246 101.293 69.6824 98.2813L70.228 97.6855L71.2474 98.669C81.7533 108.804 97.005 106.18 98.2427 94.0247C99.0594 86.0044 89.193 78.1109 78.2314 78.0149C77.5143 78.0087 76.9275 77.9995 76.9275 77.9944C76.9194 77.4538 77.3472 74.2946 77.5807 73.1707C78.2096 70.1436 78.9378 68.5385 80.6641 66.3745C93.8057 49.9005 97.0057 32.5257 89.122 20.4499L88.6713 19.7595L88.736 19.2048C89.1963 15.2578 86.2682 13.1306 81.3116 13.811ZM84.5425 16.0133C86.1793 16.351 86.7554 17.2513 86.5179 19.0999C86.3645 20.2933 86.3706 20.324 86.9232 21.1201C92.9327 29.7786 92.6107 41.4096 86.007 54.2169C81.9553 62.0747 76.4967 68.6795 71.5603 71.6968L70.9178 72.0896L69.9729 72.0394C69.0201 71.9887 67.5048 71.8539 66.0422 71.6897C63.9665 71.4567 63.8654 71.5569 63.5946 74.1146C63.5308 74.7168 63.4583 75.5324 63.4335 75.9269C63.3604 77.0886 63.2435 78.3505 63.1675 78.7964C62.9874 79.8534 62.9292 81.1371 63.0494 81.4016C63.0871 81.4847 63.1103 81.5986 63.101 81.6546C63.0916 81.7107 63.1199 81.7344 63.1638 81.7073C63.2095 81.6792 63.2271 81.7011 63.205 81.7586C63.1838 81.8139 63.2125 81.9221 63.2688 81.999L63.3713 82.139L63.3759 81.9213C63.3784 81.8016 63.4382 81.2789 63.5088 80.7598C63.6339 79.8397 63.6805 79.3823 63.8473 77.4372C63.9659 76.0519 64.1489 74.3613 64.2299 73.9018C64.4054 72.9053 64.9519 72.6873 66.6469 72.938C67.0419 72.9963 67.7307 73.0682 68.1776 73.0976C68.9088 73.1456 68.9902 73.1654 68.9902 73.2954C68.9902 74.2011 69.8323 74.2356 71.4596 73.3966C71.5496 73.3502 71.7282 73.3195 71.8564 73.3283C72.0177 73.3395 72.0895 73.3105 72.0895 73.2342C72.0895 73.1736 72.1235 73.145 72.1651 73.1707C72.2066 73.1964 72.2407 73.166 72.2407 73.1033C72.2407 73.0406 72.4701 72.8634 72.7509 72.7091C73.5616 72.2639 74.57 71.6373 75.2462 71.1586C75.5897 70.9154 75.8815 70.7165 75.8947 70.7165C75.9079 70.7165 75.8221 71.0818 75.7039 71.5283C75.3698 72.7913 75.1313 74.189 74.9241 76.0985C74.6654 78.4826 74.7012 78.323 74.4115 78.382C72.818 78.7068 71.0126 79.5815 70.0322 80.5036L69.7024 80.8138L69.0169 80.8289C66.5341 80.8834 65.6671 82.194 66.2901 84.9508C66.407 85.4679 66.4442 85.8011 66.4081 86.008C66.3792 86.1741 66.3312 86.6414 66.3014 87.0463C66.2572 87.649 66.2254 87.7827 66.1259 87.7837C66.0263 87.7846 66.0234 87.7969 66.1099 87.8515C66.2998 87.9717 66.1469 88.1288 65.8216 88.148C65.6497 88.1581 65.4676 88.1409 65.4171 88.1098C65.3209 88.0504 65.223 88.0467 62.9052 88.0169C61.2742 87.9959 60.7508 88.1422 60.7508 88.619C60.7508 88.6525 60.563 89.0777 60.3335 89.5637C60.104 90.0498 59.9311 90.4624 59.9492 90.4805C59.9675 90.4987 59.9145 90.5813 59.8316 90.6642C59.7487 90.7469 59.7001 90.8648 59.7236 90.9261C59.7471 90.9873 59.7387 91.0204 59.7049 90.9995C59.6194 90.9467 59.3 91.6246 59.3627 91.7258C59.3918 91.7729 59.3787 91.7865 59.3319 91.7577C59.0382 91.5764 59.0264 93.272 59.3172 93.8613L59.5036 94.2389L59.5507 93.7481C59.6047 93.1844 59.6363 93.1041 60.4929 91.3541C60.8427 90.6396 61.1288 90.0022 61.1288 89.9375C61.1288 89.7996 61.5216 89.3683 61.6472 89.3683C61.6946 89.3683 61.7335 89.3393 61.7335 89.3038C61.7335 89.2683 62.6265 89.2173 63.7178 89.1903C65.9097 89.1362 66.1725 89.1083 66.2129 88.9261C66.228 88.8578 66.2662 89.0398 66.2978 89.3305C66.5118 91.3029 67.3244 93.5282 68.4853 95.3209C68.9367 96.018 68.9952 95.8648 67.8375 97.02C64.9692 99.8821 60.3531 102.345 55.6484 103.523C39.1269 107.659 24.2167 89.6494 30.6453 73.3217C31.7432 70.5332 33.3011 68.076 35.5686 65.5565C37.8271 63.0471 39.0845 61.3469 40.3839 59.0454L40.54 58.769L40.5491 60.3204C40.5542 61.1737 40.5978 62.2813 40.6461 62.7817L40.7339 63.6915L40.3159 64.1529C40.043 64.4542 39.9138 64.6554 39.9435 64.7328C39.9708 64.804 39.9577 64.8319 39.9107 64.8029C39.8016 64.7356 39.5573 65.0223 39.6274 65.1354C39.6626 65.1923 39.6527 65.2079 39.6015 65.1763C39.556 65.1482 39.484 65.1684 39.4415 65.2213C39.0703 65.6829 38.4373 66.4121 38.3734 66.4515C38.3298 66.4785 38.3147 66.5741 38.34 66.664C38.3737 66.7845 38.3664 66.7996 38.3121 66.721C38.2064 66.568 37.8371 66.9941 37.8925 67.2051C37.9198 67.3088 37.911 67.3257 37.8644 67.259C37.7384 67.0785 37.5066 67.7529 37.5066 68.3001C37.5066 69.0222 37.8473 69.7429 37.9439 69.2251C37.9652 69.1109 38.0005 68.9445 38.0222 68.8553C38.069 68.6639 38.3737 68.1756 38.5824 67.9576C38.7326 67.8006 39.3242 67.1304 39.6137 66.7893C39.702 66.6852 39.9088 66.4218 40.0733 66.2041C40.2377 65.9863 40.3994 65.8081 40.4323 65.8081C40.4653 65.8081 40.4924 65.7402 40.4924 65.6571C40.4924 65.5741 40.5359 65.5061 40.5891 65.5061C40.6423 65.5061 40.7348 65.4381 40.7948 65.3551C40.9283 65.1699 41.0215 65.1609 41.0215 65.3333C41.0215 66.288 41.5699 67.3939 42.0432 67.3939C42.6369 67.3939 42.7613 67.0302 42.5362 65.9523C42.3689 65.1516 42.2065 63.8441 42.2668 63.7838C42.2887 63.762 42.3066 63.8348 42.3066 63.9455V64.1469H42.6053C43.355 64.1469 44.1005 64.4334 45.0631 65.0918L45.5761 65.4427L45.5223 65.156C45.4427 64.7325 45.2946 64.4914 44.9346 64.1996C44.4148 63.7783 43.7463 63.3806 43.6539 63.4377C43.6049 63.468 43.589 63.457 43.6167 63.4123C43.6873 63.2982 43.0023 63.0262 42.4944 62.9665L42.0599 62.9155L42.1032 60.7561C42.1688 57.4791 42.5872 54.686 43.4617 51.6872C43.6495 51.0434 43.9445 49.8881 44.1173 49.1197C48.9467 27.6527 56.3422 18.6733 70.6532 16.9005C71.4387 16.8033 72.4048 16.7709 74.8486 16.7604L78.0234 16.7465L78.7793 16.5529C81.1588 15.9434 83.2532 15.7473 84.5425 16.0133ZM79.3084 19.4085C78.2465 19.7848 77.0596 20.4644 77.2424 20.5912C77.3119 20.6395 77.2924 20.6469 77.1794 20.6153C77.0673 20.584 76.9839 20.6149 76.9148 20.7135C76.8594 20.7926 76.7799 20.8654 76.7383 20.8752C76.6968 20.8849 76.6708 20.9222 76.6807 20.9581C76.6906 20.9939 76.6566 21.0074 76.6051 20.9879C76.5537 20.9684 76.4196 21.0291 76.3072 21.1228C76.1948 21.2164 75.7866 21.5119 75.4001 21.7793C74.0734 22.6973 73.6467 23.0773 73.7771 23.2245C73.8361 23.291 73.8181 23.2883 73.7237 23.2165L73.5815 23.1082L73.323 23.4071C73.1251 23.6357 73.0747 23.7506 73.1084 23.8965C73.1372 24.0213 73.1291 24.0523 73.085 23.9863C73.0018 23.8619 72.8898 24.0888 72.9702 24.2188C73.0013 24.269 72.9836 24.2767 72.9232 24.2394C72.8495 24.1939 72.834 24.2451 72.8585 24.4543C72.8762 24.6054 72.871 24.7289 72.8471 24.7289C72.8232 24.7289 72.8166 24.8646 72.8324 25.0305C72.8502 25.2164 72.8917 25.3134 72.9406 25.2832C72.9861 25.2551 72.9976 25.2703 72.9676 25.3187C72.9063 25.4178 73.1917 26.0126 73.3004 26.0126C73.3412 26.0126 73.3676 25.9872 73.3593 25.956C73.2735 25.6387 73.7848 24.6631 74.206 24.3406C74.3338 24.2427 74.5556 24.0661 74.699 23.9481C75.2475 23.4968 76.062 22.9195 76.1525 22.9181C76.2045 22.9173 76.247 22.8899 76.247 22.8574C76.247 22.8248 76.3405 22.7429 76.4549 22.6754C76.5692 22.6079 77.0199 22.2914 77.4564 21.9721C78.6012 21.1349 80.0157 20.5002 80.7366 20.5002C80.9119 20.5002 80.9336 20.4706 80.9336 20.2321C80.9336 19.3867 80.2901 19.0606 79.3084 19.4085ZM70.5777 19.7193C69.6088 19.8271 68.1903 20.0442 67.9918 20.1152L67.8627 20.1613L68.0361 20.4629C68.1315 20.6288 68.2479 20.7564 68.2948 20.7465C68.3418 20.7366 68.3623 20.7749 68.3405 20.8314C68.2699 21.0152 68.6362 21.3635 68.8061 21.2741C68.8866 21.2317 69.1736 21.173 69.4438 21.1435C69.9631 21.0869 70.3148 20.9272 70.2282 20.7873C70.1968 20.7364 70.2108 20.7247 70.2639 20.7574C70.338 20.8032 71.4 20.0185 71.5146 19.8334C71.6254 19.6543 71.404 19.6274 70.5777 19.7193ZM63.9256 21.396C62.4986 21.9918 61.02 22.8018 61.1059 22.9408C61.1316 22.9821 61.1138 22.9918 61.0661 22.9624C60.9433 22.8865 59.264 24.0535 59.2957 24.1928C59.3061 24.2385 59.2891 24.2718 59.2579 24.2669C59.1081 24.2433 59.0614 24.2856 59.1634 24.3527C59.2546 24.4127 59.245 24.4236 59.1144 24.4082C58.9196 24.3853 57.3955 25.7531 57.4742 25.8803C57.5016 25.9247 57.4883 25.9386 57.4443 25.9114C57.3333 25.8429 56.113 27.192 56.1833 27.3056C56.2172 27.3606 56.2064 27.3753 56.1553 27.3437C56.0503 27.2789 55.8866 27.5719 55.9441 27.7215C55.9676 27.7827 55.9549 27.8131 55.9158 27.7889C55.8767 27.7648 55.8047 27.8786 55.7558 28.0418C55.6525 28.3862 55.7232 29.0659 55.854 28.9852C55.9037 28.9545 55.9146 28.9694 55.8815 29.0229C55.8515 29.0716 55.9032 29.2349 55.9965 29.3857L56.1662 29.6601L56.2894 29.2105C56.4198 28.7344 56.6442 28.3599 56.8012 28.3559C56.8532 28.3546 56.8958 28.3111 56.896 28.2592C56.8962 28.2073 57.0497 27.9958 57.2373 27.7892C57.4247 27.5826 57.6395 27.3447 57.7144 27.2606C57.9541 26.9914 59.282 25.7551 59.5416 25.5596C59.6793 25.4557 59.8292 25.3368 59.8746 25.2953C60.4571 24.7622 62.2351 23.6528 63.4721 23.0506C64.8211 22.3939 65.0106 22.3196 65.4733 22.2652L65.8658 22.2192L66.255 22.4735C66.4691 22.6133 66.6448 22.7557 66.6456 22.7898C66.6472 22.8609 66.8737 23.1022 66.8737 23.0328C66.8737 22.8593 66.6367 22.4609 66.5612 22.5075C66.5062 22.5414 66.4926 22.5298 66.5253 22.4768C66.6002 22.3557 66.2618 21.9216 66.1315 21.9715C66.0591 21.9992 66.0398 21.9746 66.0707 21.8941C66.342 21.1879 65.1095 20.9017 63.9256 21.396ZM85.0624 25.3924C84.9898 26.2112 84.8815 27.2526 84.8217 27.7069C84.6403 29.0871 84.7504 29.6297 85.2131 29.6361C85.35 29.638 85.6592 27.1368 85.7099 25.6162C85.7193 25.3359 85.7528 25.1065 85.7843 25.1065C85.8623 25.1065 85.5912 24.4872 85.3722 24.1652L85.1944 23.9039L85.0624 25.3924ZM69.4051 26.9843C69.1535 27.0984 68.7054 27.5141 67.8519 28.4254C67.2569 29.0607 65.9801 30.6552 66.0178 30.7161C66.044 30.7586 66.0339 30.7738 65.9953 30.7499C65.8297 30.6476 63.9505 33.172 64.0328 33.3861C64.056 33.4467 64.0483 33.4798 64.0156 33.4596C63.9288 33.406 63.5697 34.4258 63.4697 35.0097C63.3719 35.5809 63.4832 36.1877 63.7772 36.6855C63.9796 37.0281 63.9607 37.0466 63.9783 36.4894C64.0087 35.5221 64.8132 33.7276 65.4758 33.1486C65.5233 33.1071 65.7466 32.8353 65.9719 32.5445C66.1972 32.2538 66.4073 32.0046 66.4387 31.9908C66.47 31.9769 66.4957 31.9203 66.4957 31.8649C66.4957 31.8096 66.5222 31.7529 66.5545 31.739C66.5868 31.7252 66.8287 31.459 67.0922 31.1475C67.3556 30.8361 67.6128 30.5472 67.6637 30.5057C67.7146 30.4641 67.7703 30.3887 67.7874 30.338C67.867 30.1026 69.617 28.3564 69.9203 28.2097C70.6117 27.8753 71.1003 28.0106 72.0534 28.8001C72.4339 29.1152 72.8421 29.4409 72.9605 29.524C73.079 29.6071 73.2631 29.7454 73.3697 29.8315C73.5816 30.0026 74.4372 30.5812 75.1509 31.0362C75.8437 31.4778 77.9293 32.5155 78.0394 32.4733C78.0929 32.4528 78.1371 32.4604 78.1374 32.4902C78.1377 32.5201 78.222 32.5835 78.3248 32.6311L78.5118 32.7178L78.4809 32.4801C78.438 32.1507 78.36 31.9715 78.2809 32.0203C78.2442 32.043 78.2327 32.0132 78.2554 31.9541C78.3097 31.8125 77.7211 31.3434 77.5645 31.4035C77.5007 31.4278 77.466 31.4198 77.4872 31.3854C77.5399 31.3003 76.0959 30.6519 75.9068 30.6758C75.8024 30.689 75.7857 30.6754 75.8529 30.6319C75.921 30.5878 75.8536 30.5254 75.6286 30.424C75.4517 30.3443 75.295 30.2961 75.2803 30.3169C75.2657 30.3377 75.2199 30.2945 75.1787 30.2209C75.1375 30.1474 75.0719 30.1069 75.0329 30.131C74.9938 30.1551 74.9619 30.1399 74.9619 30.0972C74.9619 30.0545 74.9053 30.0413 74.8362 30.0678C74.7575 30.0979 74.729 30.086 74.76 30.0359C74.7885 29.9898 74.5772 29.8191 74.2621 29.6337C73.961 29.4566 73.3644 29.0611 72.9363 28.7548C72.5083 28.4485 72.1248 28.2185 72.0841 28.2436C72.0434 28.2687 72.0195 28.2577 72.0309 28.2191C72.0525 28.1462 70.8087 27.0827 70.5235 26.9302C70.2832 26.8018 69.7505 26.8275 69.4051 26.9843ZM27.8309 31.1182C20.0385 32.5124 13.102 40.2527 12.5108 48.2135L12.4183 49.4595L12.0612 50.0075C10.5679 52.2994 11.3426 54.0862 14.1823 54.8997C14.6629 55.0374 15.4554 55.3403 15.9434 55.5731C21.3301 58.141 26.8934 57.29 32.9273 52.9752C38.2826 49.1456 40.8902 44.2586 39.8057 40.0841C38.1611 33.754 33.3274 30.1348 27.8309 31.1182ZM53.3452 32.0977C53.0144 32.2411 52.8035 32.4291 52.8639 32.5266C52.8894 32.568 52.8631 32.5856 52.8054 32.5658C52.6018 32.4958 51.1497 35.3325 51.2762 35.5532C51.3037 35.6012 51.2982 35.6152 51.264 35.5843C51.1585 35.4887 50.5107 37.0633 50.5806 37.2454C50.6023 37.3015 50.5862 37.3267 50.5452 37.3013C50.5041 37.276 50.4704 37.2703 50.4704 37.2888C50.4704 37.3072 50.3668 37.6066 50.2402 37.954C48.6695 42.2626 48.2165 44.1521 48.5935 44.8222L48.7661 45.1289L48.8323 44.9533C48.8687 44.8568 48.9291 44.7187 48.9664 44.6466C49.0037 44.5745 49.0342 44.4765 49.0342 44.4287C49.0342 44.3811 49.1744 43.8964 49.3458 43.3517C50.1865 40.6788 50.6744 39.2901 50.7902 39.2401C50.8222 39.2262 50.8484 39.1486 50.8484 39.0675C50.8484 38.8824 51.4456 37.3519 51.8376 36.5323C52.0003 36.1921 52.1334 35.8886 52.1334 35.8579C52.1334 35.6999 53.0943 33.9153 53.2834 33.7221C54.3083 32.6748 55.8103 33.2056 57.2438 35.1217C57.5778 35.568 57.6516 35.6365 57.6516 35.5004C57.6516 35.4381 57.6063 35.3419 57.551 35.2867C57.4957 35.2314 57.4649 35.1429 57.4826 35.09C57.5358 34.9304 56.4789 33.6834 56.3551 33.7598C56.3208 33.781 56.31 33.7532 56.3312 33.6981C56.3524 33.6429 56.228 33.4627 56.0546 33.2977C55.8749 33.1265 55.7601 33.0561 55.7876 33.1337C55.8172 33.2176 55.8058 33.2513 55.7579 33.2217C55.7151 33.1953 55.6986 33.1154 55.7212 33.0441C55.771 32.8874 55.2879 32.3883 55.1618 32.4662C55.1155 32.4947 55.0871 32.4773 55.0985 32.4275C55.1734 32.1011 53.893 31.8604 53.3452 32.0977ZM86.9431 32.782C85.992 32.8916 85.1492 33.2091 84.5888 33.6689C84.384 33.837 84.346 33.9032 84.4235 33.9571C84.4922 34.0047 84.4701 34.0118 84.3541 33.9791C84.1978 33.9352 84.1096 34.0383 84.2407 34.1117C84.2719 34.129 84.2585 34.1343 84.211 34.1234C83.984 34.0711 83.3607 35.0543 83.0097 36.0182C82.3789 37.7508 82.1424 38.4857 82.1908 38.5639C82.219 38.6094 82.2093 38.6265 82.1693 38.6018C82.1051 38.5622 81.7098 39.6582 81.5801 40.2353C81.5205 40.5004 81.7101 41.1618 81.919 41.4174C82.0112 41.5302 82.0674 41.5606 82.0587 41.4929C82.0508 41.4306 82.1005 41.2533 82.1692 41.0988C82.238 40.9444 82.2943 40.7859 82.2943 40.7466C82.2943 40.6822 82.6666 39.6392 82.8232 39.2652C82.858 39.1822 82.9034 39.0462 82.9241 38.9632C83.0218 38.5722 83.7261 36.7437 83.8695 36.509C83.9583 36.3636 84.0617 36.1767 84.0994 36.0937C84.2324 35.8001 84.644 35.3502 85.1104 34.9887C85.811 34.4455 86.4831 34.214 87.8313 34.0512L88.1904 34.0078V33.7209C88.1904 33.5631 88.1688 33.2763 88.1423 33.0837L88.0942 32.7333L87.6321 32.7446C87.3779 32.7508 87.0679 32.7677 86.9431 32.782ZM30.253 34.3929C31.1768 34.5129 31.8688 34.9231 32.1819 35.536C32.6365 36.4263 32.2311 36.8137 29.5317 38.0685C27.9158 38.8196 26.1886 39.761 25.7004 40.1565C25.5834 40.2513 25.3855 40.392 25.2608 40.4692C24.9372 40.6695 23.8008 41.5677 22.9175 42.3212C20.25 44.597 19.3002 44.9107 18.7197 43.7076C17.0888 40.328 25.2433 33.7423 30.253 34.3929ZM61.8498 39.6097C61.8902 39.6751 61.8748 39.6929 61.8019 39.665C61.4414 39.5268 60.4844 40.2718 60.111 40.9813C59.889 41.4033 59.3711 42.8521 59.4423 42.8521C59.4654 42.8521 59.4451 42.8994 59.3971 42.9571C59.3491 43.0148 59.3023 43.1677 59.2933 43.2968C59.2842 43.4259 59.256 43.5315 59.2306 43.5316C59.2052 43.5316 59.1075 43.812 59.0134 44.1547C58.9194 44.4974 58.7266 45.1158 58.5849 45.5291C58.4432 45.9424 58.3472 46.3321 58.3714 46.3952C58.3956 46.4583 58.3907 46.4851 58.3604 46.4548C58.272 46.3666 57.855 47.5861 57.9313 47.7095C57.9588 47.7539 57.9378 47.7594 57.8791 47.7232C57.8052 47.6776 57.7902 47.7115 57.8187 47.8602C57.8395 47.969 57.8307 48.0421 57.7992 48.0226C57.6972 47.9595 57.4248 49.0168 57.4259 49.4712C57.4269 49.8014 57.4471 49.8841 57.5065 49.7993C57.5687 49.7107 57.5755 49.723 57.538 49.856C57.4731 50.0867 57.5669 50.3882 57.6587 50.2435C57.7057 50.1693 57.7252 50.2006 57.726 50.3513C57.7276 50.6502 57.8548 50.5371 57.9002 50.1962C57.9341 49.9415 58.1858 49.165 58.6161 47.987C58.6995 47.7586 58.9464 47.011 59.1646 46.3257C60.545 41.9918 60.7063 41.627 61.4162 41.2332C62.7688 40.4829 63.3834 40.5235 64.99 41.4688C65.6127 41.8352 68.4703 43.266 69.595 43.7744C70.0593 43.9843 70.2098 44.0202 70.4265 43.9726C70.572 43.9406 70.7307 43.9281 70.7793 43.9449C70.8278 43.9615 70.8863 43.9264 70.9092 43.8668C70.9321 43.8071 70.9254 43.7583 70.8942 43.7583C70.8629 43.7583 70.83 43.6686 70.8209 43.5589C70.7989 43.2935 70.7194 43.2436 69.4438 42.6944C68.841 42.4347 68.3056 42.1904 68.2542 42.1513C68.2027 42.1121 68.1074 42.1004 68.0424 42.1254C67.9773 42.1504 67.9386 42.1457 67.9565 42.115C67.9742 42.0843 67.4916 41.8213 66.8839 41.5306C66.2762 41.2399 65.4786 40.8402 65.1112 40.6424C64.7439 40.4446 64.4067 40.3054 64.3618 40.3331C64.3167 40.361 64.3019 40.3486 64.3286 40.3053C64.3564 40.2605 64.0985 40.086 63.7259 39.8972L63.0747 39.5673L62.4324 39.5402C61.9254 39.5189 61.8027 39.5336 61.8498 39.6097ZM70.9749 43.597C71.0412 43.6952 71.0773 43.8227 71.0552 43.8802C71.0331 43.9378 71.0527 43.9848 71.0987 43.9848C71.1447 43.9848 71.1824 44.0397 71.1824 44.1069C71.1824 44.1993 71.141 44.2157 71.0123 44.1745C70.4209 43.9852 70.3346 44.0646 70.8588 44.3159C71.1589 44.4596 71.4905 44.6633 71.5958 44.7685C71.7503 44.9228 71.7864 44.9348 71.7837 44.8309C71.779 44.6552 71.5749 44.2208 71.5635 44.3624C71.5585 44.4247 71.5064 44.3652 71.4476 44.2302C71.3889 44.0952 71.3016 43.9848 71.2535 43.9848C71.2055 43.9848 71.1844 43.9375 71.2067 43.8795C71.2289 43.8217 71.1587 43.6943 71.0507 43.5964L70.8544 43.4185L70.9749 43.597ZM86.1872 44.6319C85.7299 44.6859 84.4883 44.7841 83.4281 44.85C80.9344 45.0051 79.7311 45.2666 79.8473 45.6279C79.8796 45.7281 79.8723 45.7351 79.8164 45.657C79.603 45.3586 77.8322 47.3004 78.0284 47.6177C78.0526 47.6567 78.0274 47.6794 77.9723 47.668C77.9169 47.6565 77.8768 47.7059 77.8826 47.7785C77.8882 47.8508 77.8645 47.8923 77.8296 47.8708C77.7409 47.816 77.5892 48.1227 77.6536 48.2268C77.6853 48.2779 77.6729 48.2916 77.6231 48.2609C77.5769 48.2323 77.4997 48.286 77.4499 48.3813C77.3052 48.6592 76.4094 50.0847 75.932 50.797C75.4939 51.4505 75.4226 51.5873 75.5658 51.4989C75.6095 51.472 75.6208 51.5041 75.593 51.5763C75.5627 51.6552 75.5274 51.6703 75.495 51.618C75.4661 51.5712 75.3081 51.7334 75.127 51.9956C74.9525 52.2482 74.8321 52.4913 74.8597 52.5358C74.8888 52.5827 74.8742 52.5948 74.825 52.5643C74.7085 52.4924 74.3218 53.0435 74.1307 53.5538C73.9254 54.1022 73.9657 54.7992 74.2283 55.2392L74.4113 55.5457L74.4559 55.221C74.4982 54.9144 74.6994 54.4127 74.8132 54.3301C74.8418 54.3094 74.9247 54.1765 74.9975 54.0348C75.0701 53.8931 75.2119 53.6892 75.3125 53.5817C75.4131 53.4742 75.622 53.1923 75.7767 52.9553C75.9314 52.7183 76.1006 52.5229 76.1525 52.5211C76.2045 52.5192 76.247 52.4613 76.247 52.3923C76.247 52.2814 76.6593 51.5595 76.7791 51.4606C76.8042 51.4399 77.1077 50.9641 77.4534 50.4034C77.7991 49.8427 78.1963 49.2061 78.3362 48.9887C78.4759 48.7713 78.5903 48.572 78.5903 48.5457C78.5903 48.4479 79.1633 47.7124 79.4573 47.433C80.4392 46.4992 81.2711 46.2308 83.4659 46.1398C84.048 46.1156 84.9154 46.061 85.3935 46.0182C85.8716 45.9755 86.3642 45.9315 86.4881 45.9207L86.7133 45.9008L86.876 45.4148C87.0876 44.7827 87.1488 44.511 87.0769 44.5235C87.0449 44.5291 86.6445 44.5778 86.1872 44.6319ZM47.8247 49.0452C47.8247 49.0911 47.7908 49.1076 47.7493 49.082C47.6599 49.0268 47.2132 49.2742 47.2615 49.3522C47.2798 49.3817 47.2439 49.4254 47.1818 49.4492C47.1196 49.473 47.0688 49.5466 47.0688 49.6127C47.0688 49.6787 47.0372 49.7132 46.9987 49.6894C46.9157 49.6382 46.9152 49.6397 46.6185 50.8813C46.4911 51.4141 46.4095 51.8866 46.4372 51.9313C46.4657 51.9774 46.4523 51.9909 46.4064 51.9625C46.3577 51.9325 46.3045 52.0111 46.2735 52.1584C46.2183 52.4214 45.5864 54.4176 45.4785 54.6699C45.3355 55.0043 44.9363 56.034 44.9223 56.1047C44.914 56.1462 44.8699 56.2482 44.8242 56.3312C44.6206 56.7018 44.267 57.7346 44.3163 57.8144C44.3482 57.866 44.3383 57.8824 44.2922 57.854C44.1909 57.7914 44.0921 58.551 44.1586 58.8815C44.2434 59.3026 44.2808 59.393 44.3522 59.349C44.3903 59.3254 44.404 59.3514 44.3828 59.4067C44.3616 59.4619 44.3981 59.5741 44.464 59.656C44.5402 59.7507 44.5727 59.7636 44.5532 59.6916C44.5036 59.5079 44.9392 58.1912 45.2902 57.4639C45.6568 56.7044 46.5654 53.8437 47.3048 51.1208C47.6535 49.8369 49.1604 49.9602 50.7483 51.4026C50.8388 51.4847 50.9489 51.5296 50.9931 51.5024C51.0439 51.471 51.0551 51.5006 51.0234 51.5831C50.9851 51.6829 51.0029 51.702 51.0998 51.6649C51.1795 51.6344 51.2263 51.654 51.2263 51.718C51.2263 51.7739 51.2774 51.862 51.3397 51.9137C51.6606 52.1797 51.2986 51.2864 50.9055 50.8419C50.1733 50.0141 47.8247 48.6444 47.8247 49.0452ZM55.7422 54.1314C55.2904 54.2998 54.6166 55.1102 54.7496 55.3252C54.7844 55.3814 54.7682 55.3895 54.7024 55.3488C54.6291 55.3036 54.6155 55.3218 54.6521 55.4166C54.6794 55.4879 54.6709 55.5271 54.6332 55.5038C54.5429 55.4481 54.3743 55.9625 54.4452 56.0771C54.4821 56.1366 54.4672 56.1455 54.4 56.1039C54.3267 56.0587 54.3132 56.0769 54.3497 56.1717C54.378 56.2455 54.3687 56.2823 54.3279 56.2571C54.2886 56.2329 54.203 56.316 54.1379 56.442C54.0727 56.568 54.0425 56.671 54.0708 56.671C54.0991 56.671 54.0722 56.7305 54.0111 56.8032C53.7964 57.0584 52.9604 58.7925 53.0119 58.8756C53.0416 58.9237 53.0299 58.9388 52.9845 58.9108C52.9156 58.8682 52.8022 59.0184 52.7825 59.1781C52.7789 59.2072 52.7335 59.2734 52.6815 59.3253C52.6295 59.3772 52.587 59.4437 52.587 59.473C52.587 59.5023 52.2766 60.1645 51.8972 60.9446C51.1437 62.494 51.0498 62.8533 51.2646 63.3667C51.3613 63.5979 51.3995 63.6319 51.4616 63.5415C51.5205 63.4558 51.5274 63.4693 51.4908 63.5994C51.4645 63.6928 51.4756 63.7693 51.5156 63.7693C51.6134 63.7693 51.6926 63.5488 51.6307 63.4487C51.6013 63.4014 51.6168 63.3905 51.6682 63.4223C51.7178 63.4529 51.7555 63.4318 51.7555 63.3734C51.7555 63.231 51.9321 62.8644 52.0012 62.8637C52.0324 62.8634 52.0578 62.8216 52.0578 62.7708C52.0578 62.6503 54.3415 58.0757 54.4181 58.0429C54.4504 58.029 54.4768 57.9691 54.4768 57.9098C54.4768 57.8504 54.6638 57.4318 54.8925 56.9797C55.1212 56.5276 55.3092 56.1287 55.3105 56.0934C55.3139 55.9941 55.702 55.5928 55.9526 55.4294C56.5399 55.0464 57.0147 55.1181 58.5209 55.8169C60.2235 56.6069 62.4579 57.5772 62.5743 57.5772C62.6124 57.5772 62.6289 57.5007 62.611 57.4073C62.5569 57.1244 62.4773 56.9717 62.4068 57.0152C62.3701 57.0379 62.3596 57.0055 62.3834 56.9433C62.4927 56.6587 59.0238 54.8716 58.2815 54.8301C58.1915 54.8251 58.1329 54.8058 58.1515 54.7872C58.4151 54.524 56.2616 53.9378 55.7422 54.1314ZM69.8653 58.8376C69.6985 58.8647 69.6706 58.8902 69.7519 58.9416C69.8317 58.992 69.8081 59.0099 69.6603 59.0108C69.2571 59.0132 68.6659 59.4896 68.5643 59.8942C68.5354 60.009 68.4508 60.1547 68.3763 60.2181C68.3018 60.2816 68.2308 60.3844 68.2186 60.4467C68.2065 60.509 68.1347 60.606 68.0592 60.6622C67.9836 60.7184 67.9407 60.8136 67.9638 60.8738C67.9869 60.9339 67.9739 60.9634 67.9349 60.9394C67.8491 60.8864 67.6957 61.1508 67.7309 61.2908C67.7447 61.3457 67.7406 61.3618 67.7218 61.3266C67.7031 61.2914 67.6255 61.3572 67.5496 61.4729C67.4736 61.5886 67.4285 61.7109 67.4494 61.7446C67.4703 61.7783 67.4545 61.8059 67.4145 61.8059C67.2916 61.8059 66.8723 62.619 66.9198 62.7656C66.9511 62.8624 66.9435 62.8731 66.8933 62.8033C66.81 62.6876 66.3193 63.696 65.9999 64.6393C65.6952 65.5396 65.7452 66.6747 66.111 67.158L66.2312 67.3168L66.2411 66.8992C66.2521 66.4347 66.404 65.8081 66.5056 65.8081C66.5417 65.8081 66.5713 65.727 66.5713 65.6278C66.5713 65.4374 67.5484 63.4052 67.9071 62.8498C68.023 62.6702 68.1525 62.4647 68.195 62.3931C69.6034 60.0162 69.8587 59.8652 71.9163 60.1917C73.2397 60.4017 75.4512 60.6508 76.5116 60.7093C76.9273 60.7321 77.5949 60.7698 77.995 60.7929L78.7225 60.835L79.0743 60.3728C79.2678 60.1187 79.4056 59.8776 79.3805 59.837C79.3555 59.7965 79.3758 59.7727 79.4257 59.7841C79.4755 59.7955 79.5298 59.7684 79.5465 59.724C79.5669 59.6691 78.9033 59.6139 77.4772 59.5522C75.3627 59.4608 73.9578 59.3408 72.4345 59.1216C71.9799 59.0561 71.5207 59.0227 71.414 59.0474C71.2878 59.0764 71.2553 59.0686 71.3209 59.0248C71.4665 58.9276 70.2638 58.7729 69.8653 58.8376ZM50.1236 67.1053L50.2389 67.2698L50.0929 67.372C49.9463 67.4745 49.6389 67.3748 49.6389 67.2247C49.6389 67.1932 49.5907 67.1674 49.5318 67.1674C49.4729 67.1674 49.4112 67.1266 49.3945 67.0769C49.3261 66.8716 48.8478 67.281 48.5899 67.7656C48.4495 68.0295 48.3683 68.2246 48.4096 68.1991C48.5115 68.1361 48.4808 68.8536 48.364 69.2629C48.3137 69.4394 48.245 69.5838 48.2114 69.5838C48.1778 69.5838 48.0286 69.7019 47.8798 69.8462C47.7184 70.0029 47.5971 70.0722 47.5792 70.0184C47.5301 69.8712 46.5295 72.0538 46.512 72.3462C46.5064 72.4387 46.4813 72.5017 46.4562 72.4862C46.4025 72.453 45.9854 73.462 45.9854 73.6252C45.9854 73.6868 45.9534 73.737 45.9143 73.737C45.8752 73.737 45.8635 73.7898 45.8883 73.8542C45.914 73.9214 45.9013 73.9517 45.8585 73.9253C45.8174 73.8999 45.7838 73.918 45.7838 73.9654C45.7838 74.0129 45.6817 74.3063 45.557 74.6175C45.3033 75.2503 45.2721 75.6685 45.4506 76.0442C45.5851 76.3273 45.8513 76.5979 45.7625 76.3611C45.7353 76.2884 45.7434 76.229 45.7808 76.229C45.818 76.229 45.9211 76.0336 46.0096 75.7948C46.2858 75.0508 46.9266 73.4854 47.0685 73.2085C47.1429 73.0631 47.3666 72.5534 47.5655 72.0758C47.9325 71.1946 48.5822 69.7802 48.9359 69.093C49.4574 68.0793 50.2233 67.8944 51.4668 68.4819C51.8542 68.665 52.5284 68.9577 52.9649 69.1325C55.2453 70.0453 56.0355 70.3904 56.5366 70.6922C56.7757 70.8362 56.9713 70.9855 56.9713 71.024C56.9713 71.1284 57.1787 71.1087 57.2288 70.9997C57.2527 70.9478 57.2544 70.9783 57.2324 71.0676C57.2053 71.1784 57.2478 71.2743 57.3663 71.3697C57.4618 71.4465 57.5822 71.5944 57.6339 71.6982L57.728 71.887L57.6817 71.6982C57.543 71.133 56.8373 70.0369 56.6121 70.0369C56.5464 70.0369 56.5155 70.0139 56.5436 69.9858C56.5717 69.9578 56.5204 69.8558 56.4297 69.7593C56.2592 69.5781 56.0894 69.5168 56.1847 69.671C56.2184 69.7255 56.2055 69.7376 56.1502 69.7035C56.1015 69.6734 56.0794 69.6203 56.1011 69.5853C56.1649 69.4822 55.5264 69.1647 54.0293 68.5553C52.3907 67.8882 52.6081 67.9788 51.2529 67.3987C50.0653 66.8903 49.9523 66.8609 50.1236 67.1053ZM34.5458 73.2007C33.7232 73.4123 32.6272 74.804 32.8329 75.3757C32.8598 75.4504 32.8531 75.4856 32.8181 75.4537C32.7353 75.3784 32.6044 75.697 32.3324 76.6365C31.6433 79.0166 31.4711 81.832 31.9434 82.9951L32.0936 83.365L32.0978 82.3833C32.1075 80.1565 32.7673 77.1882 33.6253 75.5116C34.2678 74.2561 36.0102 73.9654 37.1059 74.9308C37.3463 75.1426 38.4748 76.2836 39.8391 77.6943C40.5924 78.4732 40.6976 78.5275 40.5111 78.0413C40.4872 77.979 40.4631 77.911 40.4574 77.8903C40.3781 77.5978 40.3136 77.5071 40.2126 77.5459C40.131 77.5771 40.1108 77.5555 40.1432 77.4714C40.2151 77.2841 39.3083 76.3805 39.1994 76.531C39.1319 76.6244 39.1257 76.6192 39.1642 76.5014C39.2126 76.3532 38.3481 75.4122 38.2046 75.4569C38.1679 75.4683 38.1557 75.4488 38.1775 75.4135C38.2342 75.3219 37.0582 74.1736 36.9802 74.2444C36.9445 74.2769 36.9417 74.258 36.9738 74.2025C37.0115 74.1373 36.9435 74.0101 36.7821 73.8438C36.505 73.5582 36.3038 73.4877 36.5311 73.7559L36.6751 73.9258L36.508 73.7847C36.4161 73.7071 36.3481 73.6051 36.3568 73.5582C36.3665 73.5061 36.2783 73.48 36.1313 73.4913C35.9985 73.5015 35.8709 73.4792 35.8477 73.4417C35.8245 73.4043 35.8821 73.3893 35.9758 73.4086C36.122 73.4388 36.1165 73.4267 35.9371 73.3232C35.6933 73.1824 34.8913 73.1119 34.5458 73.2007ZM43.6672 80.7598C43.5714 80.8428 43.5176 80.9108 43.5476 80.9108C43.5778 80.9108 43.5548 80.9584 43.4966 81.0165C43.3748 81.1382 42.7913 83.4564 42.4665 85.1086C42.0283 87.3387 41.9735 88.8202 42.2993 89.6326L42.4507 90.0102L42.4557 89.4438C42.4686 87.9529 43.6678 82.2705 44.0293 81.9869C44.2076 81.8471 44.5913 81.8723 44.8036 82.0378C45.3075 82.4307 45.7142 82.7231 45.7566 82.7231C45.7826 82.7231 46.1309 82.9555 46.5308 83.2394C48.2003 84.425 51.8498 86.4972 52.7382 86.7641C53.017 86.8478 54.2584 87.4781 54.3762 87.5958C54.432 87.6515 54.5418 87.7174 54.6202 87.7423C54.6986 87.7672 54.7821 87.8614 54.8057 87.9516C54.8294 88.0419 54.8682 88.0962 54.8921 88.0723C54.9608 88.0038 54.6657 87.3173 54.596 87.3834C54.5616 87.4161 54.5534 87.3747 54.5777 87.2917C54.6288 87.1165 54.4489 86.8379 54.3315 86.9105C54.2848 86.9393 54.2686 86.9157 54.2925 86.8537C54.3876 86.6059 53.6213 86.1279 52.0721 85.4684C51.6277 85.2793 51.222 85.09 51.1706 85.048C51.1192 85.006 51.0182 84.9942 50.9461 85.0218C50.8741 85.0495 50.8398 85.0474 50.87 85.0173C50.9433 84.944 49.7794 84.3032 49.6539 84.3478C49.5998 84.367 49.5752 84.3508 49.5993 84.3119C49.6576 84.2176 49.3571 84.0608 49.2477 84.1283C49.1913 84.1632 49.1831 84.1471 49.2239 84.0812C49.2688 84.0087 49.2514 83.9944 49.1609 84.0291C49.0922 84.0554 49.0441 84.0467 49.054 84.0098C49.0639 83.9729 48.6978 83.7158 48.2405 83.4387C47.7832 83.1615 47.3553 82.8871 47.2896 82.8289C47.224 82.7708 47.1463 82.7231 47.1171 82.7231C47.0623 82.7231 45.4736 81.677 45.4058 81.5963C45.2661 81.4298 44.7108 81.1465 44.5965 81.1833C44.5012 81.2141 44.4895 81.2065 44.5572 81.1578C44.6984 81.0561 44.415 80.8168 44.2262 80.8783C44.1117 80.9157 44.1052 80.9094 44.1938 80.8468C44.2847 80.7825 44.267 80.7541 44.0944 80.6886C43.8321 80.589 43.8721 80.5823 43.6672 80.7598ZM81.3116 81.1869C86.9935 81.9461 92.819 85.6844 92.0386 88.0707C91.8337 88.697 91.3162 88.8451 90.4133 88.5357C89.9871 88.3897 87.6624 87.2742 87.2992 87.0414C85.6589 85.9904 82.0124 84.8844 78.8171 84.4688C77.5826 84.3083 76.5851 84.1552 76.3226 84.0858C75.5637 83.8854 75.411 83.8238 75.1597 83.6168C74.9296 83.4274 74.8863 83.3445 74.8863 83.0928C74.8863 81.4442 77.48 80.6749 81.3116 81.1869ZM33.4773 89.5596C33.5229 89.6595 33.5944 89.72 33.6364 89.6941C33.6788 89.6679 33.6894 89.6845 33.6603 89.7316C33.605 89.8209 33.8589 90.3813 33.9917 90.4633C34.0346 90.4898 34.0465 90.5489 34.0182 90.5946C33.9855 90.6475 34.011 90.6607 34.0887 90.631C34.1784 90.5965 34.1983 90.6164 34.1638 90.706C34.1341 90.7836 34.1472 90.8092 34.2004 90.7764C34.2461 90.7482 34.3284 90.7887 34.3833 90.8666C34.4381 90.9445 34.7891 91.2115 35.1632 91.4599C36.1578 92.1204 38.1364 93.3705 38.1871 93.3705C38.2111 93.3705 38.331 93.4446 38.4536 93.535C38.741 93.7473 38.7637 93.714 38.7063 93.1647L38.6584 92.7076L38.3471 92.5351C37.5821 92.1112 35.8483 91.0374 34.9913 90.4566C34.0235 89.8006 33.9451 89.7562 34.037 89.9158C34.0686 89.9706 34.0626 89.9838 34.0226 89.9473C33.9848 89.9126 33.9538 89.8557 33.9538 89.8208C33.9538 89.7858 33.8279 89.6719 33.6742 89.5677L33.3946 89.378L33.4773 89.5596ZM42.6508 94.9499C42.6273 94.9878 42.6508 95.0366 42.703 95.0583C42.7552 95.08 42.7145 95.0914 42.6124 95.0837C42.1446 95.0481 42.1598 95.9326 42.6573 97.6917C42.914 98.5993 42.9687 98.6076 42.7544 97.7062C42.3631 96.0602 42.9177 95.76 44.8389 96.5779C44.9636 96.631 45.5709 96.8526 46.1885 97.0703L47.3113 97.4661L47.4672 97.3103C47.9527 96.8254 47.6433 96.5214 46.1239 95.9903C44.9998 95.5973 44.6005 95.4516 43.5171 95.0388C43.0786 94.8717 42.7217 94.8351 42.6508 94.9499ZM53.7422 98.3488C53.4836 98.5484 53.2938 98.7332 53.3201 98.7596C53.3465 98.7859 53.3114 98.8075 53.2421 98.8075C53.1728 98.8075 53.1161 98.8435 53.1161 98.8874C53.1161 98.9314 53.0821 98.9464 53.0405 98.9207C52.999 98.8951 52.9649 98.9038 52.9649 98.9401C52.9649 98.9765 52.8296 99.0822 52.6641 99.1751C52.4986 99.268 52.3345 99.3953 52.2994 99.458C52.2643 99.5208 52.187 99.5795 52.1278 99.5886C51.9249 99.6197 51.1601 100.121 51.2049 100.193C51.2296 100.233 51.2104 100.241 51.1623 100.212C51.0575 100.147 50.1539 100.687 50.2114 100.78C50.2335 100.815 50.1938 100.822 50.1232 100.795C50.048 100.767 49.9605 100.793 49.9114 100.859C49.8655 100.921 49.7259 101.001 49.6011 101.036C49.4039 101.091 49.4482 101.108 49.9413 101.166C50.6698 101.252 52.0029 101.2 52.0417 101.084C52.0575 101.036 52.1066 100.997 52.1508 100.997C52.2653 100.997 53.3551 100.25 54.2172 99.5804C54.5147 99.3493 54.779 99.1983 54.8485 99.2198C54.9375 99.2473 58.5972 99.6381 58.7655 99.6381C58.7814 99.6381 58.7701 99.5988 58.7405 99.5509C58.7074 99.4975 58.7197 99.4842 58.7722 99.5167C58.9101 99.6018 59.2094 99.413 59.0791 99.323C59.0025 99.2701 59.0168 99.2624 59.1322 99.2945C59.3561 99.3568 60.0511 99.0432 59.9107 98.9433C59.8319 98.8872 59.8418 98.8805 59.951 98.9161C60.0775 98.9575 60.9458 98.5996 60.8796 98.5333C60.8671 98.5208 60.4843 98.4924 60.029 98.4702C58.1972 98.3807 57.6269 98.3406 56.1776 98.1991C55.3461 98.118 54.5637 98.0368 54.439 98.0188C54.2566 97.9924 54.1201 98.057 53.7422 98.3488Z" fill="#CF743D"/>
<path fill-rule="evenodd" clip-rule="evenodd" d="M81.4658 13.8035C80.4296 13.9362 79.4894 14.1131 78.554 14.3514L77.7977 14.5441L74.6969 14.561C57.1412 14.6563 47.6761 24.1405 42.3676 46.956C41.6293 50.1289 41.3913 51.0543 41.0421 52.109C39.6512 56.3103 37.266 60.5023 34.6982 63.2583C33.7547 64.2709 33.5589 64.4934 32.9031 65.2982C17.2819 84.469 35.1816 112.597 58.2096 105.065C62.9926 103.501 66.8716 101.223 69.5932 98.3797L70.2372 97.7068L71.1059 98.5586C81.1303 108.388 95.6222 106.633 98.0755 95.2927C99.9053 86.8337 89.76 78.0667 78.141 78.0667H76.928L76.9292 77.9344C76.9675 73.745 78.4337 69.1539 80.5909 66.4693C93.7339 50.1126 96.985 32.6618 89.1542 20.504L88.6975 19.795L88.7177 18.7281C88.7896 14.9492 86.2081 13.1962 81.4658 13.8035ZM84.5765 15.9954C86.2977 16.3599 86.7396 17.2095 86.5048 19.702L86.4407 20.382L86.9339 21.1049C91.8173 28.2634 92.5453 36.8571 89.1292 47.0144C87.0983 53.0529 82.6965 60.7654 78.633 65.4047C78.3816 65.6918 78.0102 66.1168 77.8076 66.3491C75.5573 68.9307 73.0982 70.9282 70.4474 72.328C69.1244 73.0268 69.0683 73.0731 69.0649 73.4713C69.055 74.6141 71.909 73.5347 75.3313 71.1012C75.8698 70.7184 75.9582 70.6768 75.9161 70.8263C75.4027 72.6527 75.1709 73.9365 74.8964 76.4738L74.6969 78.3186L74.5078 78.3734C72.2491 79.0285 71.1215 79.5721 70.0712 80.5125L69.7053 80.8401L68.8734 80.8808C66.5338 80.9952 65.6176 82.5068 66.3201 85.0931C66.4405 85.5364 66.46 85.742 66.4097 86.0375C65.9017 89.0208 66.6552 92.4199 68.4634 95.3022C68.9402 96.0622 69.0014 95.9033 67.7579 97.1345C62.2325 102.605 53.0235 105.357 46.0918 103.609C29.0454 99.3096 23.613 78.5937 35.9834 65.0613C37.7516 63.127 38.8724 61.6025 40.1414 59.4051L40.5123 58.7629L40.5603 60.7273C40.6245 63.3589 40.6977 64.0117 41.1351 65.8619C41.4449 67.1721 41.6319 67.4733 42.0797 67.3839C42.5441 67.2911 42.7384 66.9302 42.5924 66.4315C42.3756 65.6915 42.1351 63.7458 42.0366 61.9361C41.9482 60.3105 42.2222 57.3478 42.7004 54.7584C42.9775 53.2577 43.0079 53.1312 43.4427 51.6609C43.5902 51.1623 43.8541 50.1253 44.0292 49.3566C49.4739 25.4489 58.0975 16.4615 75.3283 16.7368L77.7221 16.775L78.593 16.5608C81.1058 15.9428 83.3337 15.7322 84.5765 15.9954ZM28.1392 31.0758C20.1946 32.18 12.8562 40.4486 12.4622 48.7397L12.4287 49.4451L12.1654 49.8411C10.5351 52.2942 11.275 54.1416 14.1932 54.904C14.6092 55.0127 15.3069 55.2753 15.7436 55.4875C20.5394 57.8183 25.099 57.5248 30.4331 54.542C36.9223 50.9132 40.8494 45.1464 39.9067 40.6302C38.5779 34.2644 33.6988 30.303 28.1392 31.0758ZM30.8695 32.9236C33.4808 33.3822 35.5333 35.0215 36.9427 37.7744C37.3949 38.6575 37.9835 40.3105 38.0039 40.7546C38.0109 40.9062 38.0374 41.0175 38.063 41.0021C38.126 40.9639 38.2042 41.6539 38.2049 42.2546C38.2058 43.1046 37.51 45.4453 37.2956 45.313C37.2631 45.2929 37.2522 45.3365 37.2714 45.4097C37.2909 45.4844 37.1763 45.7421 37.011 45.9954C36.8485 46.2442 36.59 46.6425 36.4366 46.8805C35.5128 48.3139 32.0497 51.6493 31.7057 51.4369C31.6612 51.4094 31.6447 51.4334 31.6674 51.4924C31.6915 51.5551 31.6257 51.6334 31.5013 51.69C31.3879 51.7416 31.1739 51.8777 31.0256 51.9924C30.3863 52.4873 28.4467 53.5272 27.1637 54.063C23.4768 55.6026 20.2213 55.5478 16.7261 53.8873C16.0707 53.576 15.3319 53.2889 14.8914 53.1746C12.9817 52.6789 12.7533 52.1797 13.7881 50.7629C14.2822 50.0864 14.2883 50.063 14.3333 48.6766C14.5084 43.2732 17.8208 38.1589 23.2754 34.8695C25.9964 33.2286 28.6845 32.5398 30.8695 32.9236ZM79.9974 79.9952C89.2064 80.9613 96.8428 87.2613 96.4099 93.5357C96.2777 95.4522 95.2622 98.3025 94.3791 99.2354C94.3273 99.2901 94.1869 99.4708 94.067 99.637C93.6768 100.178 92.4329 101.31 92.6962 100.884C92.7232 100.841 92.691 100.83 92.6187 100.857C92.5328 100.89 92.5217 100.921 92.5827 100.959C92.8094 101.099 90.7634 102.295 90.4487 102.207C90.3242 102.172 90.3061 102.178 90.3831 102.232C90.4617 102.286 90.3235 102.358 89.8537 102.507C87.5707 103.233 84.8167 103.259 82.033 102.58C80.8543 102.293 79.1834 101.722 79.2422 101.627C79.2632 101.593 79.2276 101.586 79.1633 101.61C78.7946 101.752 75.182 99.6555 73.835 98.5188C72.4456 97.3462 70.8256 95.6647 70.9271 95.5005C70.9543 95.4565 70.945 95.44 70.9063 95.4639C70.8073 95.5251 69.9449 94.2114 69.4327 93.219C68.4567 91.3279 67.9688 89.0259 68.1551 87.1906C68.3352 85.4162 68.3352 85.3946 68.1485 84.7909C67.902 83.9934 67.8973 83.126 68.1381 82.8854L68.3105 82.7132L69.3795 82.7285L70.4486 82.7438L71.0223 82.1911C72.9662 80.3187 76.0015 79.576 79.9974 79.9952Z" fill="#814B26"/>
<path fill-rule="evenodd" clip-rule="evenodd" d="M82.3689 13.7247C81.2401 13.814 79.459 14.1209 78.2221 14.4393L77.6053 14.5981L75.8285 14.5466C70.9522 14.4054 66.2884 15.1306 62.7099 16.5865C62.3356 16.7388 61.8304 16.9442 61.5873 17.043C59.7079 17.8066 57.0642 19.5202 55.0978 21.2494C53.8971 22.3053 51.9605 24.4176 52.0542 24.569C52.0862 24.621 52.0778 24.6393 52.034 24.6123C51.8384 24.4914 49.7532 27.5068 48.6462 29.5112C46.0361 34.2374 43.9459 40.2394 42.1442 48.1816C41.1688 52.4818 40.0667 55.3875 38.2199 58.5279C37.9052 59.0632 37.6694 59.5395 37.696 59.5861C37.7227 59.6328 37.7176 59.6467 37.6846 59.6169C37.6138 59.5531 37.5394 59.6462 36.8269 60.6915C36.2635 61.518 35.1606 62.8734 34.4435 63.6208C25.7961 72.6332 24.5845 85.3792 31.409 95.5412C37.4296 104.506 47.8569 108.365 57.6568 105.254C62.7109 103.65 66.3775 101.575 69.3396 98.6416L70.2986 97.6921L71.3055 98.6777C81.5688 108.723 96.7117 106.293 98.2142 94.3597C99.2459 86.1652 89.2232 78.085 78.0178 78.0776L76.918 78.0769L77.0124 77.1509C77.5554 71.8237 78.4471 69.1117 80.4731 66.6252C81.2562 65.6641 82.6427 63.846 83.1535 63.1103C94.2646 47.1088 96.4576 31.7444 89.2224 20.5918L88.732 19.8359L88.7232 18.5509C88.6995 15.0941 86.4697 13.4006 82.3689 13.7247ZM84.7831 15.9932C86.219 16.3526 86.7184 17.1161 86.6025 18.7746C86.5704 19.2336 86.5404 19.7968 86.5359 20.0262L86.5275 20.4433L86.914 20.9745C94.5383 31.4514 92.0334 47.652 80.3711 63.2916C79.7232 64.1604 79.2026 64.9027 79.214 64.9412C79.2254 64.9798 79.2048 64.9928 79.1682 64.9702C79.1035 64.9302 78.9455 65.0994 77.9401 66.285C75.7891 68.8216 72.8601 71.1885 70.2332 72.5129C68.9706 73.1495 68.6918 73.8006 69.5859 74.0249C70.0984 74.1535 73.4478 72.4547 75.3212 71.1159C76.0731 70.5786 76.0339 70.5102 75.7187 71.8107C75.3598 73.2909 75.1926 74.3165 74.9549 76.4928C74.8439 77.5096 74.7443 78.3512 74.7335 78.3632C74.7227 78.3751 74.3947 78.4697 74.0047 78.5733C73.0306 78.8321 73.0232 78.8348 73.0715 78.9129C73.095 78.951 73.0639 78.9628 73.0022 78.9392C72.7264 78.8333 70.859 79.8913 70.1366 80.5626L69.7753 80.8983L69.3427 80.8835C66.7528 80.795 65.7014 82.2898 66.3865 85.0866C66.5167 85.618 66.5278 85.7892 66.4627 86.2582C66.0245 89.4135 66.8083 92.731 68.6518 95.5249L68.9675 96.0033L68.6586 96.3186C68.4888 96.492 68.2036 96.7899 68.025 96.9806C67.8464 97.1713 67.4791 97.5245 67.2088 97.7654C66.9385 98.0062 66.7286 98.2414 66.7425 98.2879C66.7564 98.3343 66.7442 98.3489 66.7156 98.3203C66.6499 98.2545 65.8782 98.8605 65.9064 98.9558C65.9178 98.9945 65.8897 99.003 65.8441 98.9748C65.7983 98.9465 65.6869 98.9889 65.5964 99.0691C63.7619 100.693 58.3564 103.088 54.9141 103.802C38.338 107.243 24.0772 88.9408 30.8122 72.8702C31.8738 70.3371 33.6792 67.5623 35.6129 65.4914C37.5271 63.4415 38.9166 61.5793 40.1498 59.411L40.5557 58.6973L40.6051 60.5826C40.6744 63.2271 40.8485 64.5269 41.4324 66.7572C41.5763 67.3069 42.0339 67.5027 42.4358 67.1866C42.6834 66.992 42.6841 66.8988 42.4475 65.6498C41.695 61.6761 42.0807 56.1483 43.411 51.8467C43.5589 51.3682 43.8047 50.4158 43.957 49.7303C46.5001 38.2892 49.5137 30.869 53.6606 25.8383C53.9649 25.4691 54.1954 25.1371 54.1727 25.1005C54.1501 25.0639 54.2073 24.9699 54.2999 24.8916L54.4682 24.7492L54.3175 24.9381L54.1668 25.1271L54.3719 24.9461C54.4847 24.8464 54.5558 24.7306 54.5299 24.6887C54.5039 24.6467 54.5196 24.6353 54.5648 24.6631C54.6568 24.7201 54.8836 24.4389 54.8529 24.3058C54.8421 24.2587 54.8477 24.246 54.8653 24.2777C54.8829 24.3094 55.2941 23.9686 55.7792 23.5202C56.2642 23.0719 56.8311 22.5527 57.039 22.3665C57.2469 22.1803 57.4077 21.9999 57.3963 21.9657C57.3849 21.9314 57.4072 21.9229 57.4458 21.9468C57.4845 21.9707 57.664 21.8667 57.8447 21.7157C58.0254 21.5648 58.3773 21.305 58.6269 21.1384C58.8764 20.9719 59.1431 20.7638 59.2194 20.6759C59.2958 20.5881 59.3376 20.5566 59.3123 20.6062C59.287 20.6556 59.5901 20.5075 59.9859 20.2771C60.4003 20.0358 60.6846 19.8244 60.6564 19.7786C60.6283 19.7333 60.6433 19.7215 60.6912 19.751C60.7374 19.7796 61.0773 19.6512 61.4465 19.4659C65.5455 17.4079 70.9407 16.3915 76.2443 16.678L77.681 16.7557L78.7017 16.5044C81.4069 15.8385 83.4717 15.6649 84.7831 15.9932ZM28.2519 31.101C24.6769 31.5883 20.8264 33.7822 17.5143 37.2191C17.1926 37.5529 16.9447 37.8681 16.9634 37.9196C16.982 37.971 16.9597 38.005 16.9137 37.9951C16.7962 37.9698 16.1891 38.7267 15.4799 39.7825C13.6833 42.4576 12.5452 45.9533 12.5423 48.8051L12.5417 49.4284L12.2799 49.7928C12.1359 49.9932 11.8892 50.4269 11.7317 50.7567L11.4453 51.3563V52.0744C11.4453 53.5216 12.3112 54.4006 14.1948 54.8654C14.5425 54.9512 15.3421 55.256 15.9716 55.5426C20.5854 57.6438 24.4596 57.5038 29.4408 55.0557C30.7287 54.4227 32.2487 53.4956 32.2177 53.362C32.2063 53.3129 32.2326 53.2947 32.2764 53.3217C32.3472 53.3655 33.3397 52.6908 33.9034 52.2158C35.4179 50.9397 35.4589 50.9004 36.6696 49.5696C39.3204 46.6556 40.5532 43.1679 39.8928 40.4509C39.2495 37.8038 37.5791 34.7222 36.1551 33.5552C35.536 33.0479 35.2003 32.7906 34.8093 32.5236C32.9851 31.2782 30.6572 30.7732 28.2519 31.101ZM31.6646 33.0155C34.7482 33.8572 37.0191 36.5884 38.147 40.8117C39.2075 44.7823 34.6998 50.6128 28.1933 53.6863C23.915 55.7072 20.6199 55.7538 16.5491 53.8509C15.9877 53.5885 15.1971 53.2864 14.7922 53.1797C13.0296 52.715 12.6965 51.8114 13.85 50.6232C13.9025 50.5691 14.0284 50.4072 14.1296 50.2632L14.3137 50.0017L14.2932 49.3137C14.2534 47.9775 14.5429 46.232 15.0699 44.6311C17.4217 37.4863 26.013 31.4728 31.6646 33.0155ZM80.3674 80.0047C89.2757 81.0787 96.4722 86.9349 96.4701 93.1084C96.4678 99.8808 90.7587 104.216 83.503 102.954C74.1485 101.328 67.197 93.8289 68.2203 86.4672L68.3411 85.5979L68.153 84.8422C67.9743 84.124 67.9154 83.3711 68.0105 83.0169C68.0789 82.7619 68.5889 82.6568 69.4916 82.7119C70.3792 82.7659 70.408 82.7554 71.0144 82.1541C72.1036 81.0742 73.7693 80.3094 75.6016 80.048C75.9135 80.0035 76.2538 79.9546 76.3578 79.9393C76.8994 79.8598 79.5206 79.9025 80.3674 80.0047Z" fill="black"/>
</svg>
