<svg width="155" height="141" viewBox="0 0 155 141" fill="none" xmlns="http://www.w3.org/2000/svg">
<path d="M127.573 2.12341V8.91833C127.573 9.4815 127.349 10.0216 126.95 10.4198C126.551 10.818 126.011 11.0417 125.447 11.0417C124.883 11.0417 124.343 10.818 123.944 10.4198C123.545 10.0216 123.321 9.4815 123.321 8.91833V2.12341C123.321 1.56025 123.545 1.02016 123.944 0.621948C124.343 0.223732 124.883 0 125.447 0C126.011 0 126.551 0.223732 126.95 0.621948C127.349 1.02016 127.573 1.56025 127.573 2.12341Z" fill="black"/>
<path d="M117.012 16.1379H120.414C120.977 16.1379 121.518 15.9142 121.917 15.516C122.315 15.1178 122.539 14.5777 122.539 14.0145C122.539 13.4514 122.315 12.9113 121.917 12.5131C121.518 12.1148 120.977 11.8911 120.414 11.8911H117.012C116.449 11.8911 115.908 12.1148 115.509 12.5131C115.111 12.9113 114.887 13.4514 114.887 14.0145C114.887 14.5777 115.111 15.1178 115.509 15.516C115.908 15.9142 116.449 16.1379 117.012 16.1379Z" fill="black"/>
<path d="M124.012 27.3264C124.411 27.7246 124.951 27.9484 125.515 27.9484C126.078 27.9484 126.618 27.7209 127.017 27.3236C127.415 26.9263 127.64 26.3874 127.641 25.825V19.03C127.641 18.4669 127.417 17.9268 127.018 17.5286C126.619 17.1303 126.079 16.9066 125.515 16.9066C124.951 16.9066 124.411 17.1303 124.012 17.5286C123.613 17.9268 123.389 18.4669 123.389 19.03V25.825C123.389 26.3881 123.613 26.9282 124.012 27.3264Z" fill="black"/>
<path d="M130.536 16.0573H133.937C134.501 16.0573 135.041 15.8335 135.44 15.4353C135.839 15.0371 136.062 14.497 136.062 13.9338C136.062 13.3707 135.839 12.8306 135.44 12.4324C135.041 12.0342 134.501 11.8104 133.937 11.8104H130.536C129.972 11.8104 129.431 12.0342 129.033 12.4324C128.634 12.8306 128.41 13.3707 128.41 13.9338C128.41 14.497 128.634 15.0371 129.033 15.4353C129.431 15.8335 129.972 16.0573 130.536 16.0573Z" fill="black"/>
<path d="M10.0269 52.5732C9.62828 52.175 9.08762 51.9513 8.52386 51.9513V51.9641C7.96011 51.9641 7.41943 52.1878 7.0208 52.5861C6.62216 52.9843 6.39822 53.5244 6.39822 54.0875V58.1346C6.39822 58.6978 6.62216 59.238 7.0208 59.6362C7.41943 60.0344 7.96011 60.2581 8.52386 60.2581C9.08762 60.2581 9.62828 60.0344 10.0269 59.6362C10.4256 59.238 10.6495 58.6978 10.6495 58.1346V54.0747C10.6495 53.5115 10.4256 52.9715 10.0269 52.5732Z" fill="black"/>
<path d="M10.0269 38.3761C9.62828 37.9779 9.08762 37.7543 8.52386 37.7543V37.767C7.96231 37.767 7.42357 37.9889 7.0253 38.3844C6.62703 38.7799 6.4016 39.3167 6.39822 39.8777V43.9376C6.39822 44.5008 6.62216 45.0409 7.0208 45.4391C7.41943 45.8373 7.96011 46.061 8.52386 46.061C9.08762 46.061 9.62828 45.8373 10.0269 45.4391C10.4256 45.0409 10.6495 44.5008 10.6495 43.9376V39.8777C10.6495 39.3145 10.4256 38.7743 10.0269 38.3761Z" fill="black"/>
<path d="M14.8795 46.8679H13.5616C12.9979 46.8679 12.4572 47.0917 12.0586 47.4899C11.66 47.8881 11.436 48.4282 11.436 48.9913C11.436 49.5545 11.66 50.0946 12.0586 50.4928C12.4572 50.891 12.9979 51.1147 13.5616 51.1147H14.8795C15.4433 51.1147 15.984 50.891 16.3826 50.4928C16.7812 50.0946 17.0052 49.5545 17.0052 48.9913C17.0052 48.4282 16.7812 47.8881 16.3826 47.4899C15.984 47.0917 15.4433 46.8679 14.8795 46.8679Z" fill="black"/>
<path d="M3.44357 46.8679H2.12569C1.56194 46.8679 1.02126 47.0917 0.62262 47.4899C0.223984 47.8881 3.05176e-05 48.4282 3.05176e-05 48.9913C3.05176e-05 49.5545 0.223984 50.0946 0.62262 50.4928C1.02126 50.891 1.56194 51.1147 2.12569 51.1147H3.44357C4.00732 51.1147 4.548 50.891 4.94664 50.4928C5.34528 50.0946 5.56923 49.5545 5.56923 48.9913C5.56923 48.4282 5.34528 47.8881 4.94664 47.4899C4.548 47.0917 4.00732 46.8679 3.44357 46.8679Z" fill="black"/>
<g filter="url(#filter0_d_236_2926)">
<path d="M136.253 65.5628L121.895 71.4986C123.514 75.5734 124.805 79.7701 125.756 84.049L126.301 86.5171L105.717 107.052L103.242 106.521C98.9499 105.572 94.7406 104.285 90.6536 102.671L84.7 116.986C84.6417 117.128 84.5489 117.253 84.43 117.35C84.3111 117.448 84.1698 117.514 84.0189 117.543C83.8679 117.573 83.712 117.564 83.5651 117.519C83.4183 117.473 83.2851 117.392 83.1776 117.282L74.179 108.311C72.7105 106.847 71.5662 105.092 70.82 103.16C70.0738 101.228 69.7423 99.1608 69.8469 97.093L70.1687 91.3299C53.5084 79.0634 36.6502 57.5537 32.0581 20.0136C31.9278 19.0724 32.0173 18.1139 32.3197 17.2128C32.622 16.3118 33.1289 15.4925 33.801 14.8189C34.4731 14.1453 35.2921 13.6355 36.1942 13.3292C37.0963 13.023 38.0572 12.9287 39.0019 13.0535C76.6422 17.6689 98.2287 34.4891 110.532 51.0502L116.3 50.754C118.37 50.6418 120.44 50.9626 122.377 51.6958C124.315 52.4291 126.078 53.5585 127.551 55.0115L136.55 63.9832C136.674 64.0888 136.769 64.2255 136.824 64.3793C136.878 64.5331 136.891 64.6985 136.861 64.8589C136.831 65.0192 136.759 65.1688 136.652 65.2924C136.545 65.416 136.407 65.5093 136.253 65.5628ZM138.939 108.693C141.321 107.86 143.88 107.655 146.365 108.101C146.586 108.148 146.815 108.139 147.032 108.075C147.248 108.01 147.445 107.892 147.603 107.731C147.799 107.536 147.93 107.286 147.979 107.014C148.028 106.743 147.991 106.463 147.875 106.213C145.239 100.561 138.246 89.195 125.583 98.3764C125.517 98.4355 125.464 98.5077 125.428 98.5885C125.392 98.6693 125.373 98.7569 125.373 98.8454C125.373 98.9339 125.392 99.0214 125.428 99.1022C125.464 99.183 125.517 99.2553 125.583 99.3143C127.278 100.645 128.636 102.355 129.545 104.306C130.455 106.257 130.891 108.394 130.819 110.544C130.81 110.797 130.705 111.036 130.526 111.215C130.347 111.393 130.107 111.498 129.853 111.507C127.706 111.593 125.568 111.176 123.612 110.288C121.656 109.401 119.936 108.068 118.59 106.398C118.531 106.326 118.456 106.267 118.372 106.227C118.287 106.187 118.195 106.167 118.101 106.167C118.007 106.167 117.915 106.187 117.83 106.227C117.746 106.267 117.671 106.326 117.612 106.398C115.854 108.483 111.015 115.295 116.374 121.873C118.714 124.677 122.066 126.45 125.707 126.809C130.906 127.365 140.511 129.055 144.434 133.522C144.592 133.709 144.797 133.848 145.028 133.927C145.259 134.006 145.507 134.021 145.746 133.971C145.985 133.92 146.206 133.806 146.384 133.64C146.563 133.474 146.693 133.263 146.761 133.029C148.148 128.315 150.301 117.776 138.939 108.693Z" fill="black"/>
</g>
<path d="M92.0062 72.121C93.1137 71.0663 93.9948 69.7924 94.5953 68.3778C95.1957 66.9632 95.5028 65.4376 95.4978 63.8949C95.4889 61.0736 94.544 58.3311 92.8143 56.106C91.0846 53.881 88.6701 52.302 85.9569 51.6217C84.625 51.2766 83.3988 50.5978 82.3918 49.6482C81.3849 48.6986 80.6299 47.5089 80.1968 46.1894C79.6883 44.731 78.8841 43.3943 77.836 42.2654C75.9568 40.2305 73.3761 39.0042 70.634 38.8433C69.3202 38.7602 68.005 38.9484 66.7687 39.3965C65.5324 39.8446 64.4009 40.543 63.4433 41.4493C62.1544 42.7043 61.2282 44.2911 60.7632 46.0407C60.2983 47.7904 60.312 49.6376 60.8029 51.386C61.2375 52.996 62.0309 54.4862 63.1221 55.742C64.2133 56.9978 65.5733 57.9859 67.0976 58.6302C68.3758 59.1477 69.5059 59.9822 70.3832 61.0564C71.2604 62.1306 71.8564 63.4097 72.1158 64.775C72.5497 67.1749 73.6688 69.398 75.335 71.1698C77.4348 73.5291 80.3707 74.9546 83.4969 75.133C86.6232 75.3114 89.684 74.228 92.0062 72.121ZM64.2021 47.8241C64.3605 47.9413 64.4748 48.1094 64.5262 48.3006C64.5557 48.4077 64.5628 48.5197 64.5471 48.6294C64.5315 48.7392 64.4933 48.8443 64.4352 48.9381C64.3906 49.0163 64.246 49.2704 64.4303 49.4696C64.5711 49.6235 64.647 49.8267 64.6418 50.0355C64.6366 50.2444 64.5507 50.4425 64.4024 50.5872C64.3273 50.6598 64.2387 50.7166 64.1417 50.7544C64.0446 50.7921 63.941 50.8101 63.8368 50.8072C63.7326 50.8043 63.6299 50.7807 63.5346 50.7376C63.4392 50.6945 63.3531 50.6329 63.2811 50.5563C62.9764 50.2174 62.7941 49.7846 62.7642 49.3289C62.7343 48.8732 62.8586 48.4217 63.1166 48.0487C63.2314 47.8746 63.4095 47.7536 63.6125 47.7116C63.8156 47.6695 64.0273 47.7099 64.2021 47.8241ZM66.8274 50.1694C66.5257 49.8304 66.3441 49.3999 66.3115 48.9463C66.279 48.4927 66.3972 48.042 66.6476 47.6659C66.7046 47.5792 66.7782 47.505 66.8641 47.4475C66.95 47.3899 67.0464 47.3503 67.1477 47.3308C67.2491 47.3114 67.3534 47.3125 67.4546 47.3341C67.5558 47.3557 67.6519 47.3974 67.7372 47.4568C67.8201 47.5069 67.8924 47.5731 67.95 47.6516C68.0075 47.73 68.0491 47.8191 68.0725 47.9137C68.1244 48.1307 68.0918 48.359 67.9814 48.5512C67.9369 48.6294 67.7922 48.8836 67.9765 49.0827C68.0485 49.1601 68.1046 49.2511 68.1416 49.3504C68.1787 49.4496 68.1959 49.5552 68.1922 49.661C68.1886 49.7668 68.1642 49.8707 68.1205 49.9666C68.0768 50.0626 68.0146 50.1487 67.9375 50.2199C67.7839 50.3606 67.5813 50.4341 67.3736 50.4247C67.1658 50.4152 66.9696 50.3235 66.8274 50.1694ZM65.0192 54.2329C64.7075 53.8932 64.5191 53.4571 64.4849 52.9963C64.4507 52.5356 64.5728 52.0778 64.8311 51.6985C64.9436 51.526 65.1193 51.4061 65.3199 51.3647C65.5204 51.3234 65.7295 51.3641 65.9014 51.478C66.0668 51.5815 66.1868 51.7451 66.2366 51.9349C66.2675 52.0419 66.2754 52.1541 66.2597 52.2641C66.244 52.3741 66.2051 52.4793 66.1455 52.5724C66.0888 52.6578 66.0604 52.7594 66.0645 52.8625C66.0686 52.9656 66.105 53.0649 66.1683 53.1462C66.312 53.3015 66.39 53.5072 66.3856 53.7191C66.3811 53.931 66.2946 54.1321 66.1446 54.2793C66.0685 54.3516 65.9788 54.4077 65.8808 54.4446C65.7828 54.4814 65.6784 54.4981 65.5737 54.4938C65.469 54.4895 65.3661 54.4642 65.2709 54.4194C65.1757 54.3746 65.0901 54.3112 65.0192 54.2329ZM77.0144 63.8767C77.1724 63.9866 77.2861 64.1503 77.3343 64.3377C77.3653 64.4447 77.3732 64.5569 77.3575 64.6669C77.3418 64.7769 77.3028 64.882 77.2432 64.9752C77.1987 65.0534 77.0735 65.3189 77.2384 65.5067C77.382 65.662 77.46 65.8677 77.4556 66.0796C77.4512 66.2915 77.3646 66.4926 77.2146 66.6398C77.1385 66.7121 77.0488 66.7682 76.9508 66.8051C76.8528 66.8419 76.7485 66.8586 76.6438 66.8543C76.5391 66.85 76.4361 66.8247 76.3409 66.7799C76.2457 66.7351 76.1602 66.6717 76.0892 66.5934C75.7865 66.2535 75.6056 65.8209 75.5758 65.3658C75.5459 64.9107 75.6688 64.4597 75.9247 64.0858C76.0419 63.9131 76.2219 63.7944 76.4257 63.7553C76.6296 63.7162 76.8411 63.7598 77.0144 63.8767ZM79.6396 66.222C79.3348 65.8832 79.1525 65.4504 79.1226 64.9947C79.0927 64.539 79.217 64.0875 79.4751 63.7144C79.5308 63.6262 79.6037 63.5504 79.6895 63.4917C79.7753 63.4331 79.8721 63.3927 79.974 63.3732C80.076 63.3536 80.1809 63.3552 80.2824 63.3779C80.384 63.4007 80.48 63.444 80.5647 63.5053C80.7281 63.603 80.847 63.7616 80.8958 63.9468C80.9257 64.0592 80.9307 64.1768 80.9104 64.2911C80.8901 64.4054 80.845 64.5136 80.7783 64.6079C80.7783 64.6079 80.5809 64.9094 80.7846 65.1199C80.9301 65.2742 81.0094 65.4803 81.0049 65.6928C81.0005 65.9053 80.9127 66.1068 80.7608 66.253C80.609 66.3991 80.4056 66.478 80.1953 66.4722C79.985 66.4664 79.7851 66.3764 79.6396 66.222ZM77.8314 70.2855C77.5193 69.9431 77.3304 69.5047 77.2955 69.0417C77.2606 68.5787 77.3817 68.1184 77.6392 67.7356C77.6949 67.6495 77.7673 67.5758 77.852 67.5187C77.9366 67.4615 78.0319 67.4223 78.1321 67.4031C78.2323 67.384 78.3354 67.3854 78.4352 67.4073C78.5351 67.4292 78.6298 67.4711 78.7136 67.5306C78.7965 67.5807 78.8688 67.6469 78.9263 67.7254C78.9838 67.8038 79.0255 67.8929 79.0488 67.9876C79.0798 68.0945 79.0877 68.2067 79.072 68.3167C79.0562 68.4267 79.0173 68.5319 78.9577 68.625C78.8994 68.7067 78.8696 68.8058 78.8729 68.9068C78.8763 69.0078 78.9127 69.1051 78.9764 69.1834C79.1219 69.3377 79.2012 69.5438 79.1968 69.7563C79.1923 69.9688 79.1045 70.1703 78.9527 70.3165C78.8008 70.4626 78.5974 70.5415 78.3871 70.5356C78.1768 70.5298 77.9769 70.4399 77.8314 70.2855Z" fill="#F3D6A3"/>
<defs>
<filter id="filter0_d_236_2926" x="32" y="13" width="123" height="128" filterUnits="userSpaceOnUse" color-interpolation-filters="sRGB">
<feFlood flood-opacity="0" result="BackgroundImageFix"/>
<feColorMatrix in="SourceAlpha" type="matrix" values="0 0 0 0 0 0 0 0 0 0 0 0 0 0 0 0 0 0 127 0" result="hardAlpha"/>
<feOffset dx="7" dy="7"/>
<feComposite in2="hardAlpha" operator="out"/>
<feColorMatrix type="matrix" values="0 0 0 0 0.992157 0 0 0 0 0.572549 0 0 0 0 0.105882 0 0 0 1 0"/>
<feBlend mode="normal" in2="BackgroundImageFix" result="effect1_dropShadow_236_2926"/>
<feBlend mode="normal" in="SourceGraphic" in2="effect1_dropShadow_236_2926" result="shape"/>
</filter>
</defs>
</svg>
