<svg width="433" height="433" viewBox="0 0 433 433" fill="none" xmlns="http://www.w3.org/2000/svg">
<g filter="url(#filter0_d_236_2905)">
<path d="M62.2593 62.2605C-20.7271 145.247 -20.7271 279.794 62.2593 362.781C145.246 445.767 279.793 445.767 362.78 362.781C445.766 279.794 445.766 145.247 362.78 62.2604C279.793 -20.726 145.246 -20.726 62.2593 62.2605ZM301.148 301.149C252.2 350.097 172.839 350.097 123.891 301.149C74.9435 252.201 74.9435 172.84 123.891 123.893C172.839 74.9446 252.2 74.9446 301.148 123.893C350.096 172.84 350.096 252.201 301.148 301.149Z" fill="#EE1B1B"/>
<path d="M62.5698 362.473C97.5854 397.488 143.751 419.146 193.062 423.69C242.372 428.234 291.718 415.378 332.543 387.351C373.368 359.324 403.097 317.893 416.576 270.244C430.055 222.594 426.433 171.729 406.339 126.47C386.245 81.2109 350.945 44.411 306.561 22.4513C262.177 0.49158 211.507 -5.24304 163.338 6.24184C115.168 17.7267 72.5372 45.7069 42.8362 85.3305C13.1352 124.954 -1.76254 173.723 0.726132 223.179L87.5977 218.808C86.1297 189.637 94.9169 160.872 112.435 137.501C129.954 114.129 155.099 97.6257 183.511 90.8516C211.923 84.0775 241.809 87.4599 267.988 100.412C294.167 113.365 314.988 135.071 326.841 161.766C338.693 188.461 340.829 218.463 332.879 246.568C324.929 274.673 307.393 299.11 283.313 315.641C259.234 332.172 230.128 339.755 201.043 337.075C171.958 334.395 144.728 321.621 124.075 300.968L62.5698 362.473Z" fill="black"/>
</g>
<defs>
<filter id="filter0_d_236_2905" x="0.0195312" y="0.0205078" width="432" height="432" filterUnits="userSpaceOnUse" color-interpolation-filters="sRGB">
<feFlood flood-opacity="0" result="BackgroundImageFix"/>
<feColorMatrix in="SourceAlpha" type="matrix" values="0 0 0 0 0 0 0 0 0 0 0 0 0 0 0 0 0 0 127 0" result="hardAlpha"/>
<feOffset dx="7" dy="7"/>
<feComposite in2="hardAlpha" operator="out"/>
<feColorMatrix type="matrix" values="0 0 0 0 0.992157 0 0 0 0 0.572549 0 0 0 0 0.105882 0 0 0 1 0"/>
<feBlend mode="normal" in2="BackgroundImageFix" result="effect1_dropShadow_236_2905"/>
<feBlend mode="normal" in="SourceGraphic" in2="effect1_dropShadow_236_2905" result="shape"/>
</filter>
</defs>
</svg>
